G04 #@! TF.FileFunction,Soldermask,Top*
%FSLAX46Y46*%
G04 Gerber Fmt 4.6, Leading zero omitted, Abs format (unit mm)*
G04 Created by KiCad (PCBNEW 4.0.6) date 2017 August 14, Monday 10:36:18*
%MOMM*%
%LPD*%
G01*
G04 APERTURE LIST*
%ADD10C,0.100000*%
%ADD11O,1.998980X1.998980*%
%ADD12R,1.998980X1.998980*%
%ADD13R,1.500000X0.300000*%
%ADD14R,0.300000X1.500000*%
%ADD15R,1.600000X1.600000*%
%ADD16C,1.600000*%
%ADD17R,1.250000X1.000000*%
%ADD18R,1.000000X1.250000*%
%ADD19R,2.200000X2.200000*%
%ADD20O,2.200000X2.200000*%
%ADD21R,1.600000X1.000000*%
%ADD22R,1.198880X1.198880*%
%ADD23R,1.000000X1.600000*%
%ADD24O,1.800000X2.600000*%
%ADD25C,3.000000*%
%ADD26R,0.900000X1.700000*%
%ADD27O,1.600000X1.600000*%
%ADD28R,3.500120X3.500120*%
%ADD29R,1.727200X1.727200*%
%ADD30O,1.727200X1.727200*%
%ADD31R,2.032000X1.727200*%
%ADD32O,2.032000X1.727200*%
%ADD33R,1.727200X2.032000*%
%ADD34O,1.727200X2.032000*%
%ADD35R,2.032000X2.032000*%
%ADD36O,2.032000X2.032000*%
%ADD37C,1.524000*%
%ADD38C,2.700020*%
%ADD39R,2.400000X1.500000*%
%ADD40O,0.899160X1.501140*%
%ADD41R,0.700000X1.300000*%
%ADD42R,1.300000X0.700000*%
%ADD43R,1.550000X1.300000*%
%ADD44R,1.100000X4.600000*%
%ADD45R,10.800000X9.400000*%
%ADD46R,3.800000X2.000000*%
%ADD47R,1.500000X2.000000*%
%ADD48R,1.750000X0.450000*%
%ADD49R,5.600700X2.100580*%
%ADD50C,4.000000*%
G04 APERTURE END LIST*
D10*
D11*
X41275000Y-118745000D03*
D12*
X41275000Y-116205000D03*
D13*
X122475000Y-75915000D03*
X122475000Y-76415000D03*
X122475000Y-76915000D03*
X122475000Y-77415000D03*
X122475000Y-77915000D03*
X122475000Y-78415000D03*
X122475000Y-78915000D03*
X122475000Y-79415000D03*
X122475000Y-79915000D03*
X122475000Y-80415000D03*
X122475000Y-80915000D03*
X122475000Y-81415000D03*
X122475000Y-81915000D03*
X122475000Y-82415000D03*
X122475000Y-82915000D03*
X122475000Y-83415000D03*
X122475000Y-83915000D03*
X122475000Y-84415000D03*
X122475000Y-84915000D03*
X122475000Y-85415000D03*
X122475000Y-85915000D03*
X122475000Y-86415000D03*
X122475000Y-86915000D03*
X122475000Y-87415000D03*
X122475000Y-87915000D03*
D14*
X124175000Y-89615000D03*
X124675000Y-89615000D03*
X125175000Y-89615000D03*
X125675000Y-89615000D03*
X126175000Y-89615000D03*
X126675000Y-89615000D03*
X127175000Y-89615000D03*
X127675000Y-89615000D03*
X128175000Y-89615000D03*
X128675000Y-89615000D03*
X129175000Y-89615000D03*
X129675000Y-89615000D03*
X130175000Y-89615000D03*
X130675000Y-89615000D03*
X131175000Y-89615000D03*
X131675000Y-89615000D03*
X132175000Y-89615000D03*
X132675000Y-89615000D03*
X133175000Y-89615000D03*
X133675000Y-89615000D03*
X134175000Y-89615000D03*
X134675000Y-89615000D03*
X135175000Y-89615000D03*
X135675000Y-89615000D03*
X136175000Y-89615000D03*
D13*
X137875000Y-87915000D03*
X137875000Y-87415000D03*
X137875000Y-86915000D03*
X137875000Y-86415000D03*
X137875000Y-85915000D03*
X137875000Y-85415000D03*
X137875000Y-84915000D03*
X137875000Y-84415000D03*
X137875000Y-83915000D03*
X137875000Y-83415000D03*
X137875000Y-82915000D03*
X137875000Y-82415000D03*
X137875000Y-81915000D03*
X137875000Y-81415000D03*
X137875000Y-80915000D03*
X137875000Y-80415000D03*
X137875000Y-79915000D03*
X137875000Y-79415000D03*
X137875000Y-78915000D03*
X137875000Y-78415000D03*
X137875000Y-77915000D03*
X137875000Y-77415000D03*
X137875000Y-76915000D03*
X137875000Y-76415000D03*
X137875000Y-75915000D03*
D14*
X136175000Y-74215000D03*
X135675000Y-74215000D03*
X135175000Y-74215000D03*
X134675000Y-74215000D03*
X134175000Y-74215000D03*
X133675000Y-74215000D03*
X133175000Y-74215000D03*
X132675000Y-74215000D03*
X132175000Y-74215000D03*
X131675000Y-74215000D03*
X131175000Y-74215000D03*
X130675000Y-74215000D03*
X130175000Y-74215000D03*
X129675000Y-74215000D03*
X129175000Y-74215000D03*
X128675000Y-74215000D03*
X128175000Y-74215000D03*
X127675000Y-74215000D03*
X127175000Y-74215000D03*
X126675000Y-74215000D03*
X126175000Y-74215000D03*
X125675000Y-74215000D03*
X125175000Y-74215000D03*
X124675000Y-74215000D03*
X124175000Y-74215000D03*
D15*
X50165000Y-99695000D03*
D16*
X50165000Y-102195000D03*
D15*
X83820000Y-97155000D03*
D16*
X83820000Y-99655000D03*
D15*
X82550000Y-109855000D03*
D16*
X82550000Y-113655000D03*
D17*
X89535000Y-92980000D03*
X89535000Y-94980000D03*
D15*
X71755000Y-109855000D03*
D16*
X71755000Y-113655000D03*
D18*
X122460000Y-105410000D03*
X124460000Y-105410000D03*
X131175000Y-104140000D03*
X129175000Y-104140000D03*
X124190000Y-57150000D03*
X122190000Y-57150000D03*
D17*
X125095000Y-68310000D03*
X125095000Y-66310000D03*
X136525000Y-68310000D03*
X136525000Y-66310000D03*
X132715000Y-68310000D03*
X132715000Y-66310000D03*
X128905000Y-68310000D03*
X128905000Y-66310000D03*
X81280000Y-78470000D03*
X81280000Y-76470000D03*
D18*
X59325000Y-74930000D03*
X61325000Y-74930000D03*
X59325000Y-71120000D03*
X61325000Y-71120000D03*
X70215000Y-66675000D03*
X68215000Y-66675000D03*
D17*
X129540000Y-51800000D03*
X129540000Y-49800000D03*
X142875000Y-49800000D03*
X142875000Y-51800000D03*
X156845000Y-49800000D03*
X156845000Y-51800000D03*
X169545000Y-49165000D03*
X169545000Y-51165000D03*
X182245000Y-49800000D03*
X182245000Y-51800000D03*
D18*
X200930000Y-66040000D03*
X202930000Y-66040000D03*
X183245000Y-59690000D03*
X181245000Y-59690000D03*
D19*
X63500000Y-87630000D03*
D20*
X55880000Y-87630000D03*
D19*
X63500000Y-92710000D03*
D20*
X55880000Y-92710000D03*
D21*
X55880000Y-105005000D03*
X55880000Y-102005000D03*
D22*
X118110000Y-93565980D03*
X118110000Y-95664020D03*
X87409020Y-73025000D03*
X85310980Y-73025000D03*
X82964020Y-73025000D03*
X80865980Y-73025000D03*
D23*
X122960000Y-52070000D03*
X125960000Y-52070000D03*
X136930000Y-52070000D03*
X139930000Y-52070000D03*
X151535000Y-52070000D03*
X154535000Y-52070000D03*
X164235000Y-52070000D03*
X167235000Y-52070000D03*
X176935000Y-52070000D03*
X179935000Y-52070000D03*
X200430000Y-61595000D03*
X203430000Y-61595000D03*
X183745000Y-55245000D03*
X180745000Y-55245000D03*
D24*
X45720000Y-34290000D03*
X48260000Y-34290000D03*
X50800000Y-34290000D03*
X53340000Y-34290000D03*
X55880000Y-34290000D03*
X58420000Y-34290000D03*
X60960000Y-34290000D03*
X63500000Y-34290000D03*
X66040000Y-34290000D03*
X68580000Y-34290000D03*
X71120000Y-34290000D03*
X73660000Y-34290000D03*
X76200000Y-34290000D03*
X78740000Y-34290000D03*
X81280000Y-34290000D03*
X83820000Y-34290000D03*
D25*
X40220900Y-34290000D03*
X40220900Y-65290700D03*
X115219480Y-65290700D03*
X115219480Y-34290000D03*
D26*
X61775000Y-78740000D03*
X58875000Y-78740000D03*
D27*
X94615000Y-131445000D03*
X97155000Y-131445000D03*
X99695000Y-131445000D03*
X102235000Y-131445000D03*
X104775000Y-131445000D03*
X107315000Y-131445000D03*
X109855000Y-131445000D03*
X112395000Y-131445000D03*
X112395000Y-123825000D03*
X109855000Y-123825000D03*
X107315000Y-123825000D03*
X104775000Y-123825000D03*
X102235000Y-123825000D03*
X99695000Y-123825000D03*
X97155000Y-123825000D03*
X94615000Y-123825000D03*
X123825000Y-131445000D03*
X126365000Y-131445000D03*
X128905000Y-131445000D03*
X131445000Y-131445000D03*
X133985000Y-131445000D03*
X136525000Y-131445000D03*
X139065000Y-131445000D03*
X141605000Y-131445000D03*
X141605000Y-123825000D03*
X139065000Y-123825000D03*
X136525000Y-123825000D03*
X133985000Y-123825000D03*
X131445000Y-123825000D03*
X128905000Y-123825000D03*
X126365000Y-123825000D03*
X123825000Y-123825000D03*
X153670000Y-131445000D03*
X156210000Y-131445000D03*
X158750000Y-131445000D03*
X161290000Y-131445000D03*
X163830000Y-131445000D03*
X166370000Y-131445000D03*
X168910000Y-131445000D03*
X171450000Y-131445000D03*
X171450000Y-123825000D03*
X168910000Y-123825000D03*
X166370000Y-123825000D03*
X163830000Y-123825000D03*
X161290000Y-123825000D03*
X158750000Y-123825000D03*
X156210000Y-123825000D03*
X153670000Y-123825000D03*
X184785000Y-131445000D03*
X187325000Y-131445000D03*
X189865000Y-131445000D03*
X192405000Y-131445000D03*
X194945000Y-131445000D03*
X197485000Y-131445000D03*
X200025000Y-131445000D03*
X202565000Y-131445000D03*
X202565000Y-123825000D03*
X200025000Y-123825000D03*
X197485000Y-123825000D03*
X194945000Y-123825000D03*
X192405000Y-123825000D03*
X189865000Y-123825000D03*
X187325000Y-123825000D03*
X184785000Y-123825000D03*
X205105000Y-114935000D03*
X205105000Y-112395000D03*
X205105000Y-109855000D03*
X205105000Y-107315000D03*
X205105000Y-104775000D03*
X205105000Y-102235000D03*
X205105000Y-99695000D03*
X205105000Y-97155000D03*
X197485000Y-97155000D03*
X197485000Y-99695000D03*
X197485000Y-102235000D03*
X197485000Y-104775000D03*
X197485000Y-107315000D03*
X197485000Y-109855000D03*
X197485000Y-112395000D03*
X197485000Y-114935000D03*
X205105000Y-89535000D03*
X205105000Y-86995000D03*
X205105000Y-84455000D03*
X205105000Y-81915000D03*
X205105000Y-79375000D03*
X205105000Y-76835000D03*
X205105000Y-74295000D03*
X205105000Y-71755000D03*
X197485000Y-71755000D03*
X197485000Y-74295000D03*
X197485000Y-76835000D03*
X197485000Y-79375000D03*
X197485000Y-81915000D03*
X197485000Y-84455000D03*
X197485000Y-86995000D03*
X197485000Y-89535000D03*
D28*
X51285140Y-89535000D03*
X45285660Y-89535000D03*
X48285400Y-94234000D03*
D29*
X100330000Y-81280000D03*
D30*
X100330000Y-83820000D03*
X102870000Y-81280000D03*
X102870000Y-83820000D03*
X105410000Y-81280000D03*
X105410000Y-83820000D03*
D31*
X170180000Y-80010000D03*
D32*
X170180000Y-82550000D03*
X170180000Y-85090000D03*
X170180000Y-87630000D03*
X170180000Y-90170000D03*
D33*
X110490000Y-109220000D03*
D34*
X107950000Y-109220000D03*
X105410000Y-109220000D03*
X102870000Y-109220000D03*
X100330000Y-109220000D03*
X97790000Y-109220000D03*
X95250000Y-109220000D03*
X92710000Y-109220000D03*
D35*
X113665000Y-104140000D03*
D36*
X116205000Y-104140000D03*
D31*
X113030000Y-78105000D03*
D32*
X113030000Y-80645000D03*
X113030000Y-83185000D03*
X113030000Y-85725000D03*
X113030000Y-88265000D03*
X113030000Y-90805000D03*
X113030000Y-93345000D03*
X113030000Y-95885000D03*
D37*
X52705000Y-74930000D03*
X52705000Y-77470000D03*
X50706020Y-77470000D03*
X50706020Y-74930000D03*
D38*
X48006000Y-70200520D03*
X48006000Y-82199480D03*
D35*
X153670000Y-87630000D03*
D36*
X153670000Y-85090000D03*
D11*
X97155000Y-140970000D03*
D12*
X94615000Y-140970000D03*
D11*
X104775000Y-140970000D03*
D12*
X102235000Y-140970000D03*
D11*
X112395000Y-140970000D03*
D12*
X109855000Y-140970000D03*
D11*
X120015000Y-140970000D03*
D12*
X117475000Y-140970000D03*
D11*
X127635000Y-140970000D03*
D12*
X125095000Y-140970000D03*
D11*
X135255000Y-140970000D03*
D12*
X132715000Y-140970000D03*
D11*
X142875000Y-140970000D03*
D12*
X140335000Y-140970000D03*
D11*
X151130000Y-140970000D03*
D12*
X148590000Y-140970000D03*
D11*
X158750000Y-140970000D03*
D12*
X156210000Y-140970000D03*
D11*
X167005000Y-140970000D03*
D12*
X164465000Y-140970000D03*
D11*
X175260000Y-140970000D03*
D12*
X172720000Y-140970000D03*
D11*
X183515000Y-140970000D03*
D12*
X180975000Y-140970000D03*
D11*
X192405000Y-140970000D03*
D12*
X189865000Y-140970000D03*
D11*
X200660000Y-140970000D03*
D12*
X198120000Y-140970000D03*
D11*
X208915000Y-140970000D03*
D12*
X206375000Y-140970000D03*
D11*
X216535000Y-139065000D03*
D12*
X216535000Y-141605000D03*
D11*
X216535000Y-130175000D03*
D12*
X216535000Y-132715000D03*
D11*
X216535000Y-121285000D03*
D12*
X216535000Y-123825000D03*
D11*
X216535000Y-112395000D03*
D12*
X216535000Y-114935000D03*
D11*
X216535000Y-103505000D03*
D12*
X216535000Y-106045000D03*
D11*
X216535000Y-94615000D03*
D12*
X216535000Y-97155000D03*
D11*
X216535000Y-85725000D03*
D12*
X216535000Y-88265000D03*
D11*
X216535000Y-77470000D03*
D12*
X216535000Y-80010000D03*
D11*
X216535000Y-69850000D03*
D12*
X216535000Y-72390000D03*
D28*
X128905000Y-43665140D03*
X128905000Y-37665660D03*
X124206000Y-40665400D03*
X142240000Y-43665140D03*
X142240000Y-37665660D03*
X137541000Y-40665400D03*
X155575000Y-43665140D03*
X155575000Y-37665660D03*
X150876000Y-40665400D03*
X168910000Y-43665140D03*
X168910000Y-37665660D03*
X164211000Y-40665400D03*
X182245000Y-43665140D03*
X182245000Y-37665660D03*
X177546000Y-40665400D03*
X208915000Y-43665140D03*
X208915000Y-37665660D03*
X204216000Y-40665400D03*
X195580000Y-43665140D03*
X195580000Y-37665660D03*
X190881000Y-40665400D03*
D29*
X151765000Y-69215000D03*
D30*
X151765000Y-66675000D03*
X154305000Y-69215000D03*
X154305000Y-66675000D03*
X156845000Y-69215000D03*
X156845000Y-66675000D03*
X159385000Y-69215000D03*
X159385000Y-66675000D03*
X161925000Y-69215000D03*
X161925000Y-66675000D03*
X164465000Y-69215000D03*
X164465000Y-66675000D03*
X167005000Y-69215000D03*
X167005000Y-66675000D03*
X169545000Y-69215000D03*
X169545000Y-66675000D03*
X172085000Y-69215000D03*
X172085000Y-66675000D03*
D29*
X189230000Y-71120000D03*
D30*
X189230000Y-73660000D03*
X186690000Y-71120000D03*
X186690000Y-73660000D03*
X184150000Y-71120000D03*
X184150000Y-73660000D03*
X181610000Y-71120000D03*
X181610000Y-73660000D03*
D29*
X188595000Y-97155000D03*
D30*
X188595000Y-99695000D03*
X186055000Y-97155000D03*
X186055000Y-99695000D03*
X183515000Y-97155000D03*
X183515000Y-99695000D03*
X180975000Y-97155000D03*
X180975000Y-99695000D03*
D11*
X60960000Y-140970000D03*
D12*
X55880000Y-140970000D03*
D11*
X58420000Y-140970000D03*
X70485000Y-140970000D03*
D12*
X65405000Y-140970000D03*
D11*
X67945000Y-140970000D03*
X89535000Y-140970000D03*
D12*
X84455000Y-140970000D03*
D11*
X86995000Y-140970000D03*
X80010000Y-140970000D03*
D12*
X74930000Y-140970000D03*
D11*
X77470000Y-140970000D03*
D39*
X62230000Y-100120000D03*
X62230000Y-105620000D03*
D11*
X41275000Y-102235000D03*
D12*
X41275000Y-99695000D03*
D11*
X40640000Y-142875000D03*
D12*
X40640000Y-140335000D03*
D11*
X50800000Y-140970000D03*
D12*
X48260000Y-140970000D03*
D11*
X41275000Y-109855000D03*
D12*
X41275000Y-107315000D03*
D40*
X86360000Y-40640000D03*
X87630000Y-40640000D03*
X85090000Y-40640000D03*
X86995000Y-126365000D03*
X88265000Y-126365000D03*
X85725000Y-126365000D03*
D41*
X51115000Y-40005000D03*
X49215000Y-40005000D03*
X77785000Y-40005000D03*
X75885000Y-40005000D03*
X86680000Y-46355000D03*
X88580000Y-46355000D03*
X122240000Y-62230000D03*
X124140000Y-62230000D03*
X123505000Y-93980000D03*
X121605000Y-93980000D03*
X87310000Y-130810000D03*
X85410000Y-130810000D03*
D42*
X82550000Y-65090000D03*
X82550000Y-66990000D03*
X65405000Y-73345000D03*
X65405000Y-75245000D03*
X78105000Y-65090000D03*
X78105000Y-66990000D03*
X65405000Y-68900000D03*
X65405000Y-70800000D03*
D41*
X125410000Y-46355000D03*
X123510000Y-46355000D03*
X120965000Y-46355000D03*
X119065000Y-46355000D03*
X138110000Y-46355000D03*
X136210000Y-46355000D03*
X134300000Y-46355000D03*
X132400000Y-46355000D03*
X152080000Y-46355000D03*
X150180000Y-46355000D03*
X147635000Y-46355000D03*
X145735000Y-46355000D03*
X164780000Y-46355000D03*
X162880000Y-46355000D03*
X160970000Y-46355000D03*
X159070000Y-46355000D03*
X178115000Y-46355000D03*
X176215000Y-46355000D03*
X174305000Y-46355000D03*
X172405000Y-46355000D03*
X119065000Y-52070000D03*
X120965000Y-52070000D03*
X132400000Y-52070000D03*
X134300000Y-52070000D03*
X147005000Y-52070000D03*
X148905000Y-52070000D03*
X160340000Y-52070000D03*
X162240000Y-52070000D03*
X173040000Y-52070000D03*
X174940000Y-52070000D03*
X205420000Y-46990000D03*
X203520000Y-46990000D03*
X200975000Y-46990000D03*
X199075000Y-46990000D03*
X191450000Y-46355000D03*
X189550000Y-46355000D03*
X187640000Y-46355000D03*
X185740000Y-46355000D03*
X213675000Y-47625000D03*
X211775000Y-47625000D03*
X187640000Y-50800000D03*
X185740000Y-50800000D03*
X200980000Y-56515000D03*
X202880000Y-56515000D03*
D42*
X187325000Y-58735000D03*
X187325000Y-56835000D03*
D43*
X127470000Y-57440000D03*
X135420000Y-57440000D03*
X127470000Y-61940000D03*
X135420000Y-61940000D03*
D44*
X75790000Y-98425000D03*
X74090000Y-98425000D03*
X70690000Y-98425000D03*
D45*
X72390000Y-89275000D03*
D44*
X72390000Y-98425000D03*
X68990000Y-98425000D03*
D46*
X83185000Y-85750000D03*
D47*
X83185000Y-92050000D03*
X85485000Y-92050000D03*
X80885000Y-92050000D03*
D48*
X69425000Y-71975000D03*
X69425000Y-72625000D03*
X69425000Y-73275000D03*
X69425000Y-73925000D03*
X69425000Y-74575000D03*
X69425000Y-75225000D03*
X69425000Y-75875000D03*
X69425000Y-76525000D03*
X69425000Y-77175000D03*
X69425000Y-77825000D03*
X69425000Y-78475000D03*
X69425000Y-79125000D03*
X69425000Y-79775000D03*
X69425000Y-80425000D03*
X76625000Y-80425000D03*
X76625000Y-79775000D03*
X76625000Y-79125000D03*
X76625000Y-78475000D03*
X76625000Y-77825000D03*
X76625000Y-77175000D03*
X76625000Y-76525000D03*
X76625000Y-75875000D03*
X76625000Y-75225000D03*
X76625000Y-74575000D03*
X76625000Y-73925000D03*
X76625000Y-73275000D03*
X76625000Y-72625000D03*
X76625000Y-71975000D03*
D27*
X211455000Y-51435000D03*
X208915000Y-51435000D03*
X206375000Y-51435000D03*
X206375000Y-59055000D03*
X208915000Y-59055000D03*
X211455000Y-59055000D03*
X196850000Y-51435000D03*
X194310000Y-51435000D03*
X191770000Y-51435000D03*
X191770000Y-59055000D03*
X194310000Y-59055000D03*
X196850000Y-59055000D03*
D49*
X121660351Y-99349999D03*
X131358071Y-99349999D03*
D50*
X43180000Y-127000000D03*
X43180000Y-44450000D03*
X218440000Y-43180000D03*
X186690000Y-107950000D03*
M02*
