G04 #@! TF.FileFunction,Soldermask,Bot*
%FSLAX46Y46*%
G04 Gerber Fmt 4.6, Leading zero omitted, Abs format (unit mm)*
G04 Created by KiCad (PCBNEW 4.0.6) date 2017 August 14, Monday 10:36:18*
%MOMM*%
%LPD*%
G01*
G04 APERTURE LIST*
%ADD10C,0.100000*%
%ADD11O,1.998980X1.998980*%
%ADD12R,1.998980X1.998980*%
%ADD13R,1.600000X1.600000*%
%ADD14C,1.600000*%
%ADD15R,2.200000X2.200000*%
%ADD16O,2.200000X2.200000*%
%ADD17O,1.800000X2.600000*%
%ADD18C,3.000000*%
%ADD19O,1.600000X1.600000*%
%ADD20R,3.500120X3.500120*%
%ADD21R,1.727200X1.727200*%
%ADD22O,1.727200X1.727200*%
%ADD23R,2.032000X1.727200*%
%ADD24O,2.032000X1.727200*%
%ADD25R,1.727200X2.032000*%
%ADD26O,1.727200X2.032000*%
%ADD27R,2.032000X2.032000*%
%ADD28O,2.032000X2.032000*%
%ADD29C,1.524000*%
%ADD30C,2.700020*%
%ADD31O,0.899160X1.501140*%
%ADD32C,4.000000*%
G04 APERTURE END LIST*
D10*
D11*
X41275000Y-118745000D03*
D12*
X41275000Y-116205000D03*
D13*
X50165000Y-99695000D03*
D14*
X50165000Y-102195000D03*
D13*
X83820000Y-97155000D03*
D14*
X83820000Y-99655000D03*
D13*
X82550000Y-109855000D03*
D14*
X82550000Y-113655000D03*
D13*
X71755000Y-109855000D03*
D14*
X71755000Y-113655000D03*
D15*
X63500000Y-87630000D03*
D16*
X55880000Y-87630000D03*
D15*
X63500000Y-92710000D03*
D16*
X55880000Y-92710000D03*
D17*
X45720000Y-34290000D03*
X48260000Y-34290000D03*
X50800000Y-34290000D03*
X53340000Y-34290000D03*
X55880000Y-34290000D03*
X58420000Y-34290000D03*
X60960000Y-34290000D03*
X63500000Y-34290000D03*
X66040000Y-34290000D03*
X68580000Y-34290000D03*
X71120000Y-34290000D03*
X73660000Y-34290000D03*
X76200000Y-34290000D03*
X78740000Y-34290000D03*
X81280000Y-34290000D03*
X83820000Y-34290000D03*
D18*
X40220900Y-34290000D03*
X40220900Y-65290700D03*
X115219480Y-65290700D03*
X115219480Y-34290000D03*
D19*
X94615000Y-131445000D03*
X97155000Y-131445000D03*
X99695000Y-131445000D03*
X102235000Y-131445000D03*
X104775000Y-131445000D03*
X107315000Y-131445000D03*
X109855000Y-131445000D03*
X112395000Y-131445000D03*
X112395000Y-123825000D03*
X109855000Y-123825000D03*
X107315000Y-123825000D03*
X104775000Y-123825000D03*
X102235000Y-123825000D03*
X99695000Y-123825000D03*
X97155000Y-123825000D03*
X94615000Y-123825000D03*
X123825000Y-131445000D03*
X126365000Y-131445000D03*
X128905000Y-131445000D03*
X131445000Y-131445000D03*
X133985000Y-131445000D03*
X136525000Y-131445000D03*
X139065000Y-131445000D03*
X141605000Y-131445000D03*
X141605000Y-123825000D03*
X139065000Y-123825000D03*
X136525000Y-123825000D03*
X133985000Y-123825000D03*
X131445000Y-123825000D03*
X128905000Y-123825000D03*
X126365000Y-123825000D03*
X123825000Y-123825000D03*
X153670000Y-131445000D03*
X156210000Y-131445000D03*
X158750000Y-131445000D03*
X161290000Y-131445000D03*
X163830000Y-131445000D03*
X166370000Y-131445000D03*
X168910000Y-131445000D03*
X171450000Y-131445000D03*
X171450000Y-123825000D03*
X168910000Y-123825000D03*
X166370000Y-123825000D03*
X163830000Y-123825000D03*
X161290000Y-123825000D03*
X158750000Y-123825000D03*
X156210000Y-123825000D03*
X153670000Y-123825000D03*
X184785000Y-131445000D03*
X187325000Y-131445000D03*
X189865000Y-131445000D03*
X192405000Y-131445000D03*
X194945000Y-131445000D03*
X197485000Y-131445000D03*
X200025000Y-131445000D03*
X202565000Y-131445000D03*
X202565000Y-123825000D03*
X200025000Y-123825000D03*
X197485000Y-123825000D03*
X194945000Y-123825000D03*
X192405000Y-123825000D03*
X189865000Y-123825000D03*
X187325000Y-123825000D03*
X184785000Y-123825000D03*
X205105000Y-114935000D03*
X205105000Y-112395000D03*
X205105000Y-109855000D03*
X205105000Y-107315000D03*
X205105000Y-104775000D03*
X205105000Y-102235000D03*
X205105000Y-99695000D03*
X205105000Y-97155000D03*
X197485000Y-97155000D03*
X197485000Y-99695000D03*
X197485000Y-102235000D03*
X197485000Y-104775000D03*
X197485000Y-107315000D03*
X197485000Y-109855000D03*
X197485000Y-112395000D03*
X197485000Y-114935000D03*
X205105000Y-89535000D03*
X205105000Y-86995000D03*
X205105000Y-84455000D03*
X205105000Y-81915000D03*
X205105000Y-79375000D03*
X205105000Y-76835000D03*
X205105000Y-74295000D03*
X205105000Y-71755000D03*
X197485000Y-71755000D03*
X197485000Y-74295000D03*
X197485000Y-76835000D03*
X197485000Y-79375000D03*
X197485000Y-81915000D03*
X197485000Y-84455000D03*
X197485000Y-86995000D03*
X197485000Y-89535000D03*
D20*
X51285140Y-89535000D03*
X45285660Y-89535000D03*
X48285400Y-94234000D03*
D21*
X100330000Y-81280000D03*
D22*
X100330000Y-83820000D03*
X102870000Y-81280000D03*
X102870000Y-83820000D03*
X105410000Y-81280000D03*
X105410000Y-83820000D03*
D23*
X170180000Y-80010000D03*
D24*
X170180000Y-82550000D03*
X170180000Y-85090000D03*
X170180000Y-87630000D03*
X170180000Y-90170000D03*
D25*
X110490000Y-109220000D03*
D26*
X107950000Y-109220000D03*
X105410000Y-109220000D03*
X102870000Y-109220000D03*
X100330000Y-109220000D03*
X97790000Y-109220000D03*
X95250000Y-109220000D03*
X92710000Y-109220000D03*
D27*
X113665000Y-104140000D03*
D28*
X116205000Y-104140000D03*
D23*
X113030000Y-78105000D03*
D24*
X113030000Y-80645000D03*
X113030000Y-83185000D03*
X113030000Y-85725000D03*
X113030000Y-88265000D03*
X113030000Y-90805000D03*
X113030000Y-93345000D03*
X113030000Y-95885000D03*
D29*
X52705000Y-74930000D03*
X52705000Y-77470000D03*
X50706020Y-77470000D03*
X50706020Y-74930000D03*
D30*
X48006000Y-70200520D03*
X48006000Y-82199480D03*
D27*
X153670000Y-87630000D03*
D28*
X153670000Y-85090000D03*
D11*
X97155000Y-140970000D03*
D12*
X94615000Y-140970000D03*
D11*
X104775000Y-140970000D03*
D12*
X102235000Y-140970000D03*
D11*
X112395000Y-140970000D03*
D12*
X109855000Y-140970000D03*
D11*
X120015000Y-140970000D03*
D12*
X117475000Y-140970000D03*
D11*
X127635000Y-140970000D03*
D12*
X125095000Y-140970000D03*
D11*
X135255000Y-140970000D03*
D12*
X132715000Y-140970000D03*
D11*
X142875000Y-140970000D03*
D12*
X140335000Y-140970000D03*
D11*
X151130000Y-140970000D03*
D12*
X148590000Y-140970000D03*
D11*
X158750000Y-140970000D03*
D12*
X156210000Y-140970000D03*
D11*
X167005000Y-140970000D03*
D12*
X164465000Y-140970000D03*
D11*
X175260000Y-140970000D03*
D12*
X172720000Y-140970000D03*
D11*
X183515000Y-140970000D03*
D12*
X180975000Y-140970000D03*
D11*
X192405000Y-140970000D03*
D12*
X189865000Y-140970000D03*
D11*
X200660000Y-140970000D03*
D12*
X198120000Y-140970000D03*
D11*
X208915000Y-140970000D03*
D12*
X206375000Y-140970000D03*
D11*
X216535000Y-139065000D03*
D12*
X216535000Y-141605000D03*
D11*
X216535000Y-130175000D03*
D12*
X216535000Y-132715000D03*
D11*
X216535000Y-121285000D03*
D12*
X216535000Y-123825000D03*
D11*
X216535000Y-112395000D03*
D12*
X216535000Y-114935000D03*
D11*
X216535000Y-103505000D03*
D12*
X216535000Y-106045000D03*
D11*
X216535000Y-94615000D03*
D12*
X216535000Y-97155000D03*
D11*
X216535000Y-85725000D03*
D12*
X216535000Y-88265000D03*
D11*
X216535000Y-77470000D03*
D12*
X216535000Y-80010000D03*
D11*
X216535000Y-69850000D03*
D12*
X216535000Y-72390000D03*
D20*
X128905000Y-43665140D03*
X128905000Y-37665660D03*
X124206000Y-40665400D03*
X142240000Y-43665140D03*
X142240000Y-37665660D03*
X137541000Y-40665400D03*
X155575000Y-43665140D03*
X155575000Y-37665660D03*
X150876000Y-40665400D03*
X168910000Y-43665140D03*
X168910000Y-37665660D03*
X164211000Y-40665400D03*
X182245000Y-43665140D03*
X182245000Y-37665660D03*
X177546000Y-40665400D03*
X208915000Y-43665140D03*
X208915000Y-37665660D03*
X204216000Y-40665400D03*
X195580000Y-43665140D03*
X195580000Y-37665660D03*
X190881000Y-40665400D03*
D21*
X151765000Y-69215000D03*
D22*
X151765000Y-66675000D03*
X154305000Y-69215000D03*
X154305000Y-66675000D03*
X156845000Y-69215000D03*
X156845000Y-66675000D03*
X159385000Y-69215000D03*
X159385000Y-66675000D03*
X161925000Y-69215000D03*
X161925000Y-66675000D03*
X164465000Y-69215000D03*
X164465000Y-66675000D03*
X167005000Y-69215000D03*
X167005000Y-66675000D03*
X169545000Y-69215000D03*
X169545000Y-66675000D03*
X172085000Y-69215000D03*
X172085000Y-66675000D03*
D21*
X189230000Y-71120000D03*
D22*
X189230000Y-73660000D03*
X186690000Y-71120000D03*
X186690000Y-73660000D03*
X184150000Y-71120000D03*
X184150000Y-73660000D03*
X181610000Y-71120000D03*
X181610000Y-73660000D03*
D21*
X188595000Y-97155000D03*
D22*
X188595000Y-99695000D03*
X186055000Y-97155000D03*
X186055000Y-99695000D03*
X183515000Y-97155000D03*
X183515000Y-99695000D03*
X180975000Y-97155000D03*
X180975000Y-99695000D03*
D11*
X60960000Y-140970000D03*
D12*
X55880000Y-140970000D03*
D11*
X58420000Y-140970000D03*
X70485000Y-140970000D03*
D12*
X65405000Y-140970000D03*
D11*
X67945000Y-140970000D03*
X89535000Y-140970000D03*
D12*
X84455000Y-140970000D03*
D11*
X86995000Y-140970000D03*
X80010000Y-140970000D03*
D12*
X74930000Y-140970000D03*
D11*
X77470000Y-140970000D03*
X41275000Y-102235000D03*
D12*
X41275000Y-99695000D03*
D11*
X40640000Y-142875000D03*
D12*
X40640000Y-140335000D03*
D11*
X50800000Y-140970000D03*
D12*
X48260000Y-140970000D03*
D11*
X41275000Y-109855000D03*
D12*
X41275000Y-107315000D03*
D31*
X86360000Y-40640000D03*
X87630000Y-40640000D03*
X85090000Y-40640000D03*
X86995000Y-126365000D03*
X88265000Y-126365000D03*
X85725000Y-126365000D03*
D19*
X211455000Y-51435000D03*
X208915000Y-51435000D03*
X206375000Y-51435000D03*
X206375000Y-59055000D03*
X208915000Y-59055000D03*
X211455000Y-59055000D03*
X196850000Y-51435000D03*
X194310000Y-51435000D03*
X191770000Y-51435000D03*
X191770000Y-59055000D03*
X194310000Y-59055000D03*
X196850000Y-59055000D03*
D32*
X43180000Y-127000000D03*
X43180000Y-44450000D03*
X218440000Y-43180000D03*
X186690000Y-107950000D03*
M02*
