M48
;DRILL file {KiCad 4.0.6} date 2017 August 16, Wednesday 11:00:45
;FORMAT={-:-/ absolute / metric / decimal}
FMAT,2
METRIC,TZ
T1C0.400
T2C0.600
T3C0.800
T4C0.813
T5C1.001
T6C1.016
T7C1.097
T8C1.100
T9C1.200
T10C2.301
T11C2.500
%
G90
G05
M71
T1
X49.53Y-43.18
X58.42Y-121.92
X63.5Y-80.01
X64.77Y-78.74
X66.04Y-72.39
X68.58Y-121.92
X72.39Y-80.01
X73.66Y-66.04
X73.66Y-73.66
X73.66Y-77.47
X74.93Y-102.87
X76.23Y-82.55
X78.74Y-75.82
X78.74Y-121.92
X80.01Y-43.18
X80.01Y-73.66
X81.28Y-88.9
X81.28Y-121.92
X82.55Y-83.82
X83.82Y-120.65
X85.09Y-43.18
X87.63Y-77.47
X87.63Y-119.38
X87.63Y-121.92
X88.9Y-64.77
X91.44Y-46.99
X91.44Y-62.23
X91.44Y-64.77
X97.79Y-57.15
X99.06Y-57.15
X99.06Y-97.79
X99.06Y-120.65
X100.33Y-74.93
X100.33Y-77.47
X100.33Y-97.79
X101.6Y-58.42
X101.6Y-78.74
X101.6Y-97.79
X105.41Y-78.74
X105.41Y-95.25
X106.68Y-88.9
X106.68Y-90.17
X106.68Y-91.44
X106.68Y-92.71
X107.3Y-87.064
X107.95Y-74.93
X107.95Y-80.01
X107.95Y-86.36
X109.22Y-59.69
X109.22Y-87.63
X109.22Y-100.33
X110.49Y-59.69
X110.49Y-60.96
X110.49Y-80.01
X110.49Y-90.17
X110.49Y-92.71
X115.57Y-90.17
X115.57Y-99.06
X116.38Y-84.63
X116.84Y-69.85
X116.84Y-80.01
X116.84Y-81.25
X116.84Y-82.55
X116.84Y-83.79
X116.84Y-91.41
X117.161Y-99.302
X118.11Y-71.12
X118.11Y-76.2
X118.11Y-82.55
X118.11Y-90.2
X118.11Y-102.87
X118.11Y-125.73
X119.38Y-77.47
X119.38Y-84.765
X119.38Y-91.44
X119.38Y-97.79
X120.65Y-88.9
X120.65Y-96.52
X120.65Y-102.87
X120.65Y-116.84
X120.65Y-121.92
X120.867Y-79.726
X121.92Y-73.66
X121.92Y-111.76
X121.92Y-123.15
X121.92Y-124.5
X123.19Y-63.5
X123.19Y-96.52
X124.099Y-79.303
X124.46Y-54.61
X124.46Y-64.77
X124.46Y-77.47
X124.46Y-95.321
X124.46Y-118.11
X125.109Y-79.983
X125.675Y-92.655
X125.73Y-82.55
X125.909Y-80.018
X127.Y-52.07
X127.Y-87.63
X127.Y-91.44
X127.325Y-83.82
X127.325Y-85.09
X127.47Y-61.94
X128.27Y-54.61
X128.27Y-76.2
X128.27Y-78.74
X128.27Y-85.09
X128.27Y-86.36
X129.54Y-64.77
X129.54Y-76.2
X129.54Y-77.47
X129.54Y-87.63
X129.54Y-93.98
X129.631Y-92.831
X130.81Y-77.47
X130.81Y-80.01
X130.81Y-92.71
X130.81Y-93.98
X130.81Y-96.52
X131.55Y-72.486
X132.025Y-76.255
X132.08Y-63.5
X132.08Y-77.47
X132.08Y-78.71
X132.08Y-80.01
X132.08Y-81.28
X132.08Y-91.44
X132.08Y-96.52
X132.08Y-113.03
X132.27Y-83.82
X133.35Y-55.88
X133.35Y-64.77
X133.35Y-77.47
X133.35Y-83.82
X133.35Y-95.25
X133.94Y-76.439
X134.06Y-96.39
X134.62Y-54.61
X134.62Y-72.39
X134.62Y-80.01
X134.62Y-83.82
X134.62Y-93.98
X134.62Y-137.16
X135.223Y-75.958
X135.793Y-72.284
X135.86Y-96.52
X135.89Y-85.09
X135.89Y-118.11
X136.511Y-76.393
X136.545Y-63.5
X137.16Y-96.52
X137.16Y-97.79
X137.16Y-105.41
X138.43Y-105.41
X139.098Y-82.602
X139.32Y-72.8
X139.7Y-71.
X139.7Y-74.93
X139.7Y-87.63
X139.7Y-91.44
X140.185Y-89.035
X140.97Y-71.12
X140.97Y-73.66
X140.97Y-74.93
X140.97Y-75.79
X140.97Y-78.09
X141.47Y-69.85
X142.24Y-68.73
X142.24Y-71.12
X142.24Y-76.2
X142.24Y-90.17
X143.51Y-68.58
X143.51Y-76.2
X143.51Y-128.27
X144.217Y-67.31
X144.78Y-66.04
X144.78Y-68.58
X144.78Y-76.2
X146.05Y-66.04
X146.05Y-76.2
X146.05Y-82.55
X146.05Y-114.3
X146.05Y-115.57
X146.05Y-128.27
X146.94Y-104.14
X147.32Y-53.34
X147.32Y-82.55
X147.32Y-101.6
X147.32Y-102.87
X148.435Y-96.035
X148.566Y-96.852
X148.587Y-97.793
X148.59Y-77.47
X148.59Y-85.09
X148.59Y-86.36
X148.59Y-88.9
X148.59Y-90.17
X148.59Y-91.44
X148.59Y-92.71
X148.59Y-93.98
X148.59Y-95.25
X148.59Y-99.06
X148.59Y-100.33
X148.59Y-132.08
X149.86Y-87.63
X151.13Y-74.93
X165.1Y-102.87
X171.45Y-54.61
X172.72Y-55.88
X177.8Y-99.045
X177.8Y-123.19
X180.34Y-123.19
X181.61Y-132.08
X182.88Y-54.61
X186.69Y-76.2
X190.5Y-90.17
X193.04Y-73.66
X194.31Y-76.2
X199.39Y-97.79
X199.39Y-111.76
X201.93Y-96.52
X201.93Y-101.6
X207.01Y-124.46
T2
X85.09Y-40.64
X85.725Y-126.365
X86.36Y-40.64
X86.995Y-126.365
X87.63Y-40.64
X88.265Y-126.365
T3
X50.165Y-99.695
X50.165Y-102.195
X71.755Y-109.855
X71.755Y-113.655
X82.55Y-109.855
X82.55Y-113.655
X83.82Y-97.155
X83.82Y-99.655
X94.615Y-123.825
X94.615Y-131.445
X97.155Y-123.825
X97.155Y-131.445
X99.695Y-123.825
X99.695Y-131.445
X102.235Y-123.825
X102.235Y-131.445
X104.775Y-123.825
X104.775Y-131.445
X107.315Y-123.825
X107.315Y-131.445
X109.855Y-123.825
X109.855Y-131.445
X112.395Y-123.825
X112.395Y-131.445
X123.825Y-123.825
X123.825Y-131.445
X126.365Y-123.825
X126.365Y-131.445
X128.905Y-123.825
X128.905Y-131.445
X131.445Y-123.825
X131.445Y-131.445
X133.985Y-123.825
X133.985Y-131.445
X136.525Y-123.825
X136.525Y-131.445
X139.065Y-123.825
X139.065Y-131.445
X141.605Y-123.825
X141.605Y-131.445
X153.67Y-123.825
X153.67Y-131.445
X156.21Y-123.825
X156.21Y-131.445
X158.75Y-123.825
X158.75Y-131.445
X161.29Y-123.825
X161.29Y-131.445
X163.83Y-123.825
X163.83Y-131.445
X166.37Y-123.825
X166.37Y-131.445
X168.91Y-123.825
X168.91Y-131.445
X171.45Y-123.825
X171.45Y-131.445
X184.785Y-123.825
X184.785Y-131.445
X187.325Y-123.825
X187.325Y-131.445
X189.865Y-123.825
X189.865Y-131.445
X191.77Y-51.435
X191.77Y-59.055
X192.405Y-123.825
X192.405Y-131.445
X194.31Y-51.435
X194.31Y-59.055
X194.945Y-123.825
X194.945Y-131.445
X196.85Y-51.435
X196.85Y-59.055
X197.485Y-71.755
X197.485Y-74.295
X197.485Y-76.835
X197.485Y-79.375
X197.485Y-81.915
X197.485Y-84.455
X197.485Y-86.995
X197.485Y-89.535
X197.485Y-97.155
X197.485Y-99.695
X197.485Y-102.235
X197.485Y-104.775
X197.485Y-107.315
X197.485Y-109.855
X197.485Y-112.395
X197.485Y-114.935
X197.485Y-123.825
X197.485Y-131.445
X200.025Y-123.825
X200.025Y-131.445
X202.565Y-123.825
X202.565Y-131.445
X205.105Y-71.755
X205.105Y-74.295
X205.105Y-76.835
X205.105Y-79.375
X205.105Y-81.915
X205.105Y-84.455
X205.105Y-86.995
X205.105Y-89.535
X205.105Y-97.155
X205.105Y-99.695
X205.105Y-102.235
X205.105Y-104.775
X205.105Y-107.315
X205.105Y-109.855
X205.105Y-112.395
X205.105Y-114.935
X206.375Y-51.435
X206.375Y-59.055
X208.915Y-51.435
X208.915Y-59.055
X211.455Y-51.435
X211.455Y-59.055
T4
X50.706Y-74.93
X50.706Y-77.47
X52.705Y-74.93
X52.705Y-77.47
T6
X92.71Y-109.22
X95.25Y-109.22
X97.79Y-109.22
X100.33Y-81.28
X100.33Y-83.82
X100.33Y-109.22
X102.87Y-81.28
X102.87Y-83.82
X102.87Y-109.22
X105.41Y-81.28
X105.41Y-83.82
X105.41Y-109.22
X107.95Y-109.22
X110.49Y-109.22
X113.03Y-78.105
X113.03Y-80.645
X113.03Y-83.185
X113.03Y-85.725
X113.03Y-88.265
X113.03Y-90.805
X113.03Y-93.345
X113.03Y-95.885
X113.665Y-104.14
X116.205Y-104.14
X151.765Y-66.675
X151.765Y-69.215
X153.67Y-85.09
X153.67Y-87.63
X154.305Y-66.675
X154.305Y-69.215
X156.845Y-66.675
X156.845Y-69.215
X159.385Y-66.675
X159.385Y-69.215
X161.925Y-66.675
X161.925Y-69.215
X164.465Y-66.675
X164.465Y-69.215
X167.005Y-66.675
X167.005Y-69.215
X169.545Y-66.675
X169.545Y-69.215
X170.18Y-80.01
X170.18Y-82.55
X170.18Y-85.09
X170.18Y-87.63
X170.18Y-90.17
X172.085Y-66.675
X172.085Y-69.215
X180.975Y-97.155
X180.975Y-99.695
X181.61Y-71.12
X181.61Y-73.66
X183.515Y-97.155
X183.515Y-99.695
X184.15Y-71.12
X184.15Y-73.66
X186.055Y-97.155
X186.055Y-99.695
X186.69Y-71.12
X186.69Y-73.66
X188.595Y-97.155
X188.595Y-99.695
X189.23Y-71.12
X189.23Y-73.66
T7
X40.64Y-140.335
X40.64Y-142.875
X41.275Y-99.695
X41.275Y-102.235
X41.275Y-107.315
X41.275Y-109.855
X41.275Y-116.205
X41.275Y-118.745
X48.26Y-140.97
X50.8Y-140.97
X55.88Y-140.97
X58.42Y-140.97
X60.96Y-140.97
X65.405Y-140.97
X67.945Y-140.97
X70.485Y-140.97
X74.93Y-140.97
X77.47Y-140.97
X80.01Y-140.97
X84.455Y-140.97
X86.995Y-140.97
X89.535Y-140.97
X94.615Y-140.97
X97.155Y-140.97
X102.235Y-140.97
X104.775Y-140.97
X109.855Y-140.97
X112.395Y-140.97
X117.475Y-140.97
X120.015Y-140.97
X125.095Y-140.97
X127.635Y-140.97
X132.715Y-140.97
X135.255Y-140.97
X140.335Y-140.97
X142.875Y-140.97
X148.59Y-140.97
X151.13Y-140.97
X156.21Y-140.97
X158.75Y-140.97
X164.465Y-140.97
X167.005Y-140.97
X172.72Y-140.97
X175.26Y-140.97
X180.975Y-140.97
X183.515Y-140.97
X189.865Y-140.97
X192.405Y-140.97
X198.12Y-140.97
X200.66Y-140.97
X206.375Y-140.97
X208.915Y-140.97
X216.535Y-69.85
X216.535Y-72.39
X216.535Y-77.47
X216.535Y-80.01
X216.535Y-85.725
X216.535Y-88.265
X216.535Y-94.615
X216.535Y-97.155
X216.535Y-103.505
X216.535Y-106.045
X216.535Y-112.395
X216.535Y-114.935
X216.535Y-121.285
X216.535Y-123.825
X216.535Y-130.175
X216.535Y-132.715
X216.535Y-139.065
X216.535Y-141.605
T8
X55.88Y-87.63
X55.88Y-92.71
X63.5Y-87.63
X63.5Y-92.71
T9
X45.72Y-34.29
X48.26Y-34.29
X50.8Y-34.29
X53.34Y-34.29
X55.88Y-34.29
X58.42Y-34.29
X60.96Y-34.29
X63.5Y-34.29
X66.04Y-34.29
X68.58Y-34.29
X71.12Y-34.29
X73.66Y-34.29
X76.2Y-34.29
X78.74Y-34.29
X81.28Y-34.29
X83.82Y-34.29
T10
X48.006Y-70.201
X48.006Y-82.199
T11
X40.221Y-34.29
X40.221Y-65.291
X115.219Y-34.29
X115.219Y-65.291
T5
X45.286Y-88.536G85X45.286Y-90.534
G05
X47.286Y-94.234G85X49.285Y-94.234
G05
X51.285Y-88.536G85X51.285Y-90.534
G05
X124.206Y-39.666G85X124.206Y-41.665
G05
X129.904Y-37.666G85X127.906Y-37.666
G05
X129.904Y-43.665G85X127.906Y-43.665
G05
X137.541Y-39.666G85X137.541Y-41.665
G05
X143.239Y-37.666G85X141.241Y-37.666
G05
X143.239Y-43.665G85X141.241Y-43.665
G05
X150.876Y-39.666G85X150.876Y-41.665
G05
X156.574Y-37.666G85X154.576Y-37.666
G05
X156.574Y-43.665G85X154.576Y-43.665
G05
X164.211Y-39.666G85X164.211Y-41.665
G05
X169.909Y-37.666G85X167.911Y-37.666
G05
X169.909Y-43.665G85X167.911Y-43.665
G05
X177.546Y-39.666G85X177.546Y-41.665
G05
X183.244Y-37.666G85X181.246Y-37.666
G05
X183.244Y-43.665G85X181.246Y-43.665
G05
X190.881Y-39.666G85X190.881Y-41.665
G05
X196.579Y-37.666G85X194.581Y-37.666
G05
X196.579Y-43.665G85X194.581Y-43.665
G05
X204.216Y-39.666G85X204.216Y-41.665
G05
X209.914Y-37.666G85X207.916Y-37.666
G05
X209.914Y-43.665G85X207.916Y-43.665
G05
T0
M30
