G04 #@! TF.FileFunction,Legend,Top*
%FSLAX46Y46*%
G04 Gerber Fmt 4.6, Leading zero omitted, Abs format (unit mm)*
G04 Created by KiCad (PCBNEW 4.0.6) date 2017 August 16, Wednesday 11:00:37*
%MOMM*%
%LPD*%
G01*
G04 APERTURE LIST*
%ADD10C,0.100000*%
%ADD11C,0.150000*%
%ADD12C,0.120000*%
G04 APERTURE END LIST*
D10*
D11*
X38674040Y-120274080D02*
X38674040Y-114675920D01*
X38176200Y-114874040D02*
X38674040Y-114874040D01*
X38674040Y-120075960D02*
X38176200Y-120075960D01*
X38176200Y-117475000D02*
X38674040Y-117475000D01*
X43975020Y-114675920D02*
X43975020Y-120274080D01*
X38176200Y-114675920D02*
X38176200Y-120274080D01*
X38176200Y-120274080D02*
X44373800Y-120274080D01*
X44373800Y-120274080D02*
X44373800Y-114675920D01*
X44373800Y-114675920D02*
X38176200Y-114675920D01*
X123000000Y-74740000D02*
X123000000Y-75465000D01*
X137350000Y-74740000D02*
X137350000Y-75540000D01*
X137350000Y-89090000D02*
X137350000Y-88290000D01*
X123000000Y-89090000D02*
X123000000Y-88290000D01*
X123000000Y-74740000D02*
X123800000Y-74740000D01*
X123000000Y-89090000D02*
X123800000Y-89090000D01*
X137350000Y-89090000D02*
X136550000Y-89090000D01*
X137350000Y-74740000D02*
X136550000Y-74740000D01*
X123000000Y-75465000D02*
X121725000Y-75465000D01*
D12*
X51146400Y-103341863D02*
G75*
G03X51145000Y-98547564I-981400J2396863D01*
G01*
X49183600Y-103341863D02*
G75*
G02X49185000Y-98547564I981400J2396863D01*
G01*
X49183600Y-103341863D02*
G75*
G03X51145000Y-103342436I981400J2396863D01*
G01*
X52715000Y-100945000D02*
X47615000Y-100945000D01*
X52715000Y-100985000D02*
X47615000Y-100985000D01*
X52714000Y-101025000D02*
X47616000Y-101025000D01*
X52713000Y-101065000D02*
X47617000Y-101065000D01*
X52711000Y-101105000D02*
X47619000Y-101105000D01*
X52708000Y-101145000D02*
X47622000Y-101145000D01*
X52704000Y-101185000D02*
X47626000Y-101185000D01*
X52700000Y-101225000D02*
X51145000Y-101225000D01*
X49185000Y-101225000D02*
X47630000Y-101225000D01*
X52696000Y-101265000D02*
X51145000Y-101265000D01*
X49185000Y-101265000D02*
X47634000Y-101265000D01*
X52690000Y-101305000D02*
X51145000Y-101305000D01*
X49185000Y-101305000D02*
X47640000Y-101305000D01*
X52684000Y-101345000D02*
X51145000Y-101345000D01*
X49185000Y-101345000D02*
X47646000Y-101345000D01*
X52678000Y-101385000D02*
X51145000Y-101385000D01*
X49185000Y-101385000D02*
X47652000Y-101385000D01*
X52671000Y-101425000D02*
X51145000Y-101425000D01*
X49185000Y-101425000D02*
X47659000Y-101425000D01*
X52663000Y-101465000D02*
X51145000Y-101465000D01*
X49185000Y-101465000D02*
X47667000Y-101465000D01*
X52654000Y-101505000D02*
X51145000Y-101505000D01*
X49185000Y-101505000D02*
X47676000Y-101505000D01*
X52645000Y-101545000D02*
X51145000Y-101545000D01*
X49185000Y-101545000D02*
X47685000Y-101545000D01*
X52635000Y-101585000D02*
X51145000Y-101585000D01*
X49185000Y-101585000D02*
X47695000Y-101585000D01*
X52625000Y-101625000D02*
X51145000Y-101625000D01*
X49185000Y-101625000D02*
X47705000Y-101625000D01*
X52613000Y-101666000D02*
X51145000Y-101666000D01*
X49185000Y-101666000D02*
X47717000Y-101666000D01*
X52601000Y-101706000D02*
X51145000Y-101706000D01*
X49185000Y-101706000D02*
X47729000Y-101706000D01*
X52589000Y-101746000D02*
X51145000Y-101746000D01*
X49185000Y-101746000D02*
X47741000Y-101746000D01*
X52575000Y-101786000D02*
X51145000Y-101786000D01*
X49185000Y-101786000D02*
X47755000Y-101786000D01*
X52561000Y-101826000D02*
X51145000Y-101826000D01*
X49185000Y-101826000D02*
X47769000Y-101826000D01*
X52547000Y-101866000D02*
X51145000Y-101866000D01*
X49185000Y-101866000D02*
X47783000Y-101866000D01*
X52531000Y-101906000D02*
X51145000Y-101906000D01*
X49185000Y-101906000D02*
X47799000Y-101906000D01*
X52515000Y-101946000D02*
X51145000Y-101946000D01*
X49185000Y-101946000D02*
X47815000Y-101946000D01*
X52498000Y-101986000D02*
X51145000Y-101986000D01*
X49185000Y-101986000D02*
X47832000Y-101986000D01*
X52480000Y-102026000D02*
X51145000Y-102026000D01*
X49185000Y-102026000D02*
X47850000Y-102026000D01*
X52461000Y-102066000D02*
X51145000Y-102066000D01*
X49185000Y-102066000D02*
X47869000Y-102066000D01*
X52441000Y-102106000D02*
X51145000Y-102106000D01*
X49185000Y-102106000D02*
X47889000Y-102106000D01*
X52421000Y-102146000D02*
X51145000Y-102146000D01*
X49185000Y-102146000D02*
X47909000Y-102146000D01*
X52399000Y-102186000D02*
X51145000Y-102186000D01*
X49185000Y-102186000D02*
X47931000Y-102186000D01*
X52377000Y-102226000D02*
X51145000Y-102226000D01*
X49185000Y-102226000D02*
X47953000Y-102226000D01*
X52354000Y-102266000D02*
X51145000Y-102266000D01*
X49185000Y-102266000D02*
X47976000Y-102266000D01*
X52330000Y-102306000D02*
X51145000Y-102306000D01*
X49185000Y-102306000D02*
X48000000Y-102306000D01*
X52305000Y-102346000D02*
X51145000Y-102346000D01*
X49185000Y-102346000D02*
X48025000Y-102346000D01*
X52278000Y-102386000D02*
X51145000Y-102386000D01*
X49185000Y-102386000D02*
X48052000Y-102386000D01*
X52251000Y-102426000D02*
X51145000Y-102426000D01*
X49185000Y-102426000D02*
X48079000Y-102426000D01*
X52223000Y-102466000D02*
X51145000Y-102466000D01*
X49185000Y-102466000D02*
X48107000Y-102466000D01*
X52193000Y-102506000D02*
X51145000Y-102506000D01*
X49185000Y-102506000D02*
X48137000Y-102506000D01*
X52162000Y-102546000D02*
X51145000Y-102546000D01*
X49185000Y-102546000D02*
X48168000Y-102546000D01*
X52130000Y-102586000D02*
X51145000Y-102586000D01*
X49185000Y-102586000D02*
X48200000Y-102586000D01*
X52097000Y-102626000D02*
X51145000Y-102626000D01*
X49185000Y-102626000D02*
X48233000Y-102626000D01*
X52062000Y-102666000D02*
X51145000Y-102666000D01*
X49185000Y-102666000D02*
X48268000Y-102666000D01*
X52026000Y-102706000D02*
X51145000Y-102706000D01*
X49185000Y-102706000D02*
X48304000Y-102706000D01*
X51988000Y-102746000D02*
X51145000Y-102746000D01*
X49185000Y-102746000D02*
X48342000Y-102746000D01*
X51948000Y-102786000D02*
X51145000Y-102786000D01*
X49185000Y-102786000D02*
X48382000Y-102786000D01*
X51907000Y-102826000D02*
X51145000Y-102826000D01*
X49185000Y-102826000D02*
X48423000Y-102826000D01*
X51864000Y-102866000D02*
X51145000Y-102866000D01*
X49185000Y-102866000D02*
X48466000Y-102866000D01*
X51819000Y-102906000D02*
X51145000Y-102906000D01*
X49185000Y-102906000D02*
X48511000Y-102906000D01*
X51771000Y-102946000D02*
X51145000Y-102946000D01*
X49185000Y-102946000D02*
X48559000Y-102946000D01*
X51721000Y-102986000D02*
X51145000Y-102986000D01*
X49185000Y-102986000D02*
X48609000Y-102986000D01*
X51669000Y-103026000D02*
X51145000Y-103026000D01*
X49185000Y-103026000D02*
X48661000Y-103026000D01*
X51613000Y-103066000D02*
X51145000Y-103066000D01*
X49185000Y-103066000D02*
X48717000Y-103066000D01*
X51555000Y-103106000D02*
X51145000Y-103106000D01*
X49185000Y-103106000D02*
X48775000Y-103106000D01*
X51492000Y-103146000D02*
X51145000Y-103146000D01*
X49185000Y-103146000D02*
X48838000Y-103146000D01*
X51426000Y-103186000D02*
X48904000Y-103186000D01*
X51354000Y-103226000D02*
X48976000Y-103226000D01*
X51277000Y-103266000D02*
X49053000Y-103266000D01*
X51193000Y-103306000D02*
X49137000Y-103306000D01*
X51099000Y-103346000D02*
X49231000Y-103346000D01*
X50994000Y-103386000D02*
X49336000Y-103386000D01*
X50872000Y-103426000D02*
X49458000Y-103426000D01*
X50724000Y-103466000D02*
X49606000Y-103466000D01*
X50519000Y-103506000D02*
X49811000Y-103506000D01*
X50165000Y-97495000D02*
X50165000Y-98695000D01*
X50815000Y-98095000D02*
X49515000Y-98095000D01*
X84801400Y-100801863D02*
G75*
G03X84800000Y-96007564I-981400J2396863D01*
G01*
X82838600Y-100801863D02*
G75*
G02X82840000Y-96007564I981400J2396863D01*
G01*
X82838600Y-100801863D02*
G75*
G03X84800000Y-100802436I981400J2396863D01*
G01*
X86370000Y-98405000D02*
X81270000Y-98405000D01*
X86370000Y-98445000D02*
X81270000Y-98445000D01*
X86369000Y-98485000D02*
X81271000Y-98485000D01*
X86368000Y-98525000D02*
X81272000Y-98525000D01*
X86366000Y-98565000D02*
X81274000Y-98565000D01*
X86363000Y-98605000D02*
X81277000Y-98605000D01*
X86359000Y-98645000D02*
X81281000Y-98645000D01*
X86355000Y-98685000D02*
X84800000Y-98685000D01*
X82840000Y-98685000D02*
X81285000Y-98685000D01*
X86351000Y-98725000D02*
X84800000Y-98725000D01*
X82840000Y-98725000D02*
X81289000Y-98725000D01*
X86345000Y-98765000D02*
X84800000Y-98765000D01*
X82840000Y-98765000D02*
X81295000Y-98765000D01*
X86339000Y-98805000D02*
X84800000Y-98805000D01*
X82840000Y-98805000D02*
X81301000Y-98805000D01*
X86333000Y-98845000D02*
X84800000Y-98845000D01*
X82840000Y-98845000D02*
X81307000Y-98845000D01*
X86326000Y-98885000D02*
X84800000Y-98885000D01*
X82840000Y-98885000D02*
X81314000Y-98885000D01*
X86318000Y-98925000D02*
X84800000Y-98925000D01*
X82840000Y-98925000D02*
X81322000Y-98925000D01*
X86309000Y-98965000D02*
X84800000Y-98965000D01*
X82840000Y-98965000D02*
X81331000Y-98965000D01*
X86300000Y-99005000D02*
X84800000Y-99005000D01*
X82840000Y-99005000D02*
X81340000Y-99005000D01*
X86290000Y-99045000D02*
X84800000Y-99045000D01*
X82840000Y-99045000D02*
X81350000Y-99045000D01*
X86280000Y-99085000D02*
X84800000Y-99085000D01*
X82840000Y-99085000D02*
X81360000Y-99085000D01*
X86268000Y-99126000D02*
X84800000Y-99126000D01*
X82840000Y-99126000D02*
X81372000Y-99126000D01*
X86256000Y-99166000D02*
X84800000Y-99166000D01*
X82840000Y-99166000D02*
X81384000Y-99166000D01*
X86244000Y-99206000D02*
X84800000Y-99206000D01*
X82840000Y-99206000D02*
X81396000Y-99206000D01*
X86230000Y-99246000D02*
X84800000Y-99246000D01*
X82840000Y-99246000D02*
X81410000Y-99246000D01*
X86216000Y-99286000D02*
X84800000Y-99286000D01*
X82840000Y-99286000D02*
X81424000Y-99286000D01*
X86202000Y-99326000D02*
X84800000Y-99326000D01*
X82840000Y-99326000D02*
X81438000Y-99326000D01*
X86186000Y-99366000D02*
X84800000Y-99366000D01*
X82840000Y-99366000D02*
X81454000Y-99366000D01*
X86170000Y-99406000D02*
X84800000Y-99406000D01*
X82840000Y-99406000D02*
X81470000Y-99406000D01*
X86153000Y-99446000D02*
X84800000Y-99446000D01*
X82840000Y-99446000D02*
X81487000Y-99446000D01*
X86135000Y-99486000D02*
X84800000Y-99486000D01*
X82840000Y-99486000D02*
X81505000Y-99486000D01*
X86116000Y-99526000D02*
X84800000Y-99526000D01*
X82840000Y-99526000D02*
X81524000Y-99526000D01*
X86096000Y-99566000D02*
X84800000Y-99566000D01*
X82840000Y-99566000D02*
X81544000Y-99566000D01*
X86076000Y-99606000D02*
X84800000Y-99606000D01*
X82840000Y-99606000D02*
X81564000Y-99606000D01*
X86054000Y-99646000D02*
X84800000Y-99646000D01*
X82840000Y-99646000D02*
X81586000Y-99646000D01*
X86032000Y-99686000D02*
X84800000Y-99686000D01*
X82840000Y-99686000D02*
X81608000Y-99686000D01*
X86009000Y-99726000D02*
X84800000Y-99726000D01*
X82840000Y-99726000D02*
X81631000Y-99726000D01*
X85985000Y-99766000D02*
X84800000Y-99766000D01*
X82840000Y-99766000D02*
X81655000Y-99766000D01*
X85960000Y-99806000D02*
X84800000Y-99806000D01*
X82840000Y-99806000D02*
X81680000Y-99806000D01*
X85933000Y-99846000D02*
X84800000Y-99846000D01*
X82840000Y-99846000D02*
X81707000Y-99846000D01*
X85906000Y-99886000D02*
X84800000Y-99886000D01*
X82840000Y-99886000D02*
X81734000Y-99886000D01*
X85878000Y-99926000D02*
X84800000Y-99926000D01*
X82840000Y-99926000D02*
X81762000Y-99926000D01*
X85848000Y-99966000D02*
X84800000Y-99966000D01*
X82840000Y-99966000D02*
X81792000Y-99966000D01*
X85817000Y-100006000D02*
X84800000Y-100006000D01*
X82840000Y-100006000D02*
X81823000Y-100006000D01*
X85785000Y-100046000D02*
X84800000Y-100046000D01*
X82840000Y-100046000D02*
X81855000Y-100046000D01*
X85752000Y-100086000D02*
X84800000Y-100086000D01*
X82840000Y-100086000D02*
X81888000Y-100086000D01*
X85717000Y-100126000D02*
X84800000Y-100126000D01*
X82840000Y-100126000D02*
X81923000Y-100126000D01*
X85681000Y-100166000D02*
X84800000Y-100166000D01*
X82840000Y-100166000D02*
X81959000Y-100166000D01*
X85643000Y-100206000D02*
X84800000Y-100206000D01*
X82840000Y-100206000D02*
X81997000Y-100206000D01*
X85603000Y-100246000D02*
X84800000Y-100246000D01*
X82840000Y-100246000D02*
X82037000Y-100246000D01*
X85562000Y-100286000D02*
X84800000Y-100286000D01*
X82840000Y-100286000D02*
X82078000Y-100286000D01*
X85519000Y-100326000D02*
X84800000Y-100326000D01*
X82840000Y-100326000D02*
X82121000Y-100326000D01*
X85474000Y-100366000D02*
X84800000Y-100366000D01*
X82840000Y-100366000D02*
X82166000Y-100366000D01*
X85426000Y-100406000D02*
X84800000Y-100406000D01*
X82840000Y-100406000D02*
X82214000Y-100406000D01*
X85376000Y-100446000D02*
X84800000Y-100446000D01*
X82840000Y-100446000D02*
X82264000Y-100446000D01*
X85324000Y-100486000D02*
X84800000Y-100486000D01*
X82840000Y-100486000D02*
X82316000Y-100486000D01*
X85268000Y-100526000D02*
X84800000Y-100526000D01*
X82840000Y-100526000D02*
X82372000Y-100526000D01*
X85210000Y-100566000D02*
X84800000Y-100566000D01*
X82840000Y-100566000D02*
X82430000Y-100566000D01*
X85147000Y-100606000D02*
X84800000Y-100606000D01*
X82840000Y-100606000D02*
X82493000Y-100606000D01*
X85081000Y-100646000D02*
X82559000Y-100646000D01*
X85009000Y-100686000D02*
X82631000Y-100686000D01*
X84932000Y-100726000D02*
X82708000Y-100726000D01*
X84848000Y-100766000D02*
X82792000Y-100766000D01*
X84754000Y-100806000D02*
X82886000Y-100806000D01*
X84649000Y-100846000D02*
X82991000Y-100846000D01*
X84527000Y-100886000D02*
X83113000Y-100886000D01*
X84379000Y-100926000D02*
X83261000Y-100926000D01*
X84174000Y-100966000D02*
X83466000Y-100966000D01*
X83820000Y-94955000D02*
X83820000Y-96155000D01*
X84470000Y-95555000D02*
X83170000Y-95555000D01*
X86640000Y-111755000D02*
G75*
G03X86640000Y-111755000I-4090000J0D01*
G01*
X86600000Y-111755000D02*
X78500000Y-111755000D01*
X86600000Y-111795000D02*
X78500000Y-111795000D01*
X86600000Y-111835000D02*
X78500000Y-111835000D01*
X86599000Y-111875000D02*
X78501000Y-111875000D01*
X86597000Y-111915000D02*
X78503000Y-111915000D01*
X86596000Y-111955000D02*
X78504000Y-111955000D01*
X86593000Y-111995000D02*
X78507000Y-111995000D01*
X86591000Y-112035000D02*
X78509000Y-112035000D01*
X86588000Y-112075000D02*
X78512000Y-112075000D01*
X86585000Y-112115000D02*
X78515000Y-112115000D01*
X86581000Y-112155000D02*
X78519000Y-112155000D01*
X86577000Y-112195000D02*
X78523000Y-112195000D01*
X86572000Y-112235000D02*
X78528000Y-112235000D01*
X86567000Y-112275000D02*
X78533000Y-112275000D01*
X86562000Y-112315000D02*
X78538000Y-112315000D01*
X86556000Y-112355000D02*
X78544000Y-112355000D01*
X86550000Y-112395000D02*
X78550000Y-112395000D01*
X86544000Y-112435000D02*
X78556000Y-112435000D01*
X86537000Y-112476000D02*
X78563000Y-112476000D01*
X86529000Y-112516000D02*
X78571000Y-112516000D01*
X86521000Y-112556000D02*
X78579000Y-112556000D01*
X86513000Y-112596000D02*
X78587000Y-112596000D01*
X86505000Y-112636000D02*
X78595000Y-112636000D01*
X86496000Y-112676000D02*
X83530000Y-112676000D01*
X81570000Y-112676000D02*
X78604000Y-112676000D01*
X86486000Y-112716000D02*
X83530000Y-112716000D01*
X81570000Y-112716000D02*
X78614000Y-112716000D01*
X86476000Y-112756000D02*
X83530000Y-112756000D01*
X81570000Y-112756000D02*
X78624000Y-112756000D01*
X86466000Y-112796000D02*
X83530000Y-112796000D01*
X81570000Y-112796000D02*
X78634000Y-112796000D01*
X86455000Y-112836000D02*
X83530000Y-112836000D01*
X81570000Y-112836000D02*
X78645000Y-112836000D01*
X86444000Y-112876000D02*
X83530000Y-112876000D01*
X81570000Y-112876000D02*
X78656000Y-112876000D01*
X86433000Y-112916000D02*
X83530000Y-112916000D01*
X81570000Y-112916000D02*
X78667000Y-112916000D01*
X86420000Y-112956000D02*
X83530000Y-112956000D01*
X81570000Y-112956000D02*
X78680000Y-112956000D01*
X86408000Y-112996000D02*
X83530000Y-112996000D01*
X81570000Y-112996000D02*
X78692000Y-112996000D01*
X86395000Y-113036000D02*
X83530000Y-113036000D01*
X81570000Y-113036000D02*
X78705000Y-113036000D01*
X86382000Y-113076000D02*
X83530000Y-113076000D01*
X81570000Y-113076000D02*
X78718000Y-113076000D01*
X86368000Y-113116000D02*
X83530000Y-113116000D01*
X81570000Y-113116000D02*
X78732000Y-113116000D01*
X86353000Y-113156000D02*
X83530000Y-113156000D01*
X81570000Y-113156000D02*
X78747000Y-113156000D01*
X86339000Y-113196000D02*
X83530000Y-113196000D01*
X81570000Y-113196000D02*
X78761000Y-113196000D01*
X86323000Y-113236000D02*
X83530000Y-113236000D01*
X81570000Y-113236000D02*
X78777000Y-113236000D01*
X86308000Y-113276000D02*
X83530000Y-113276000D01*
X81570000Y-113276000D02*
X78792000Y-113276000D01*
X86291000Y-113316000D02*
X83530000Y-113316000D01*
X81570000Y-113316000D02*
X78809000Y-113316000D01*
X86275000Y-113356000D02*
X83530000Y-113356000D01*
X81570000Y-113356000D02*
X78825000Y-113356000D01*
X86257000Y-113396000D02*
X83530000Y-113396000D01*
X81570000Y-113396000D02*
X78843000Y-113396000D01*
X86240000Y-113436000D02*
X83530000Y-113436000D01*
X81570000Y-113436000D02*
X78860000Y-113436000D01*
X86221000Y-113476000D02*
X83530000Y-113476000D01*
X81570000Y-113476000D02*
X78879000Y-113476000D01*
X86202000Y-113516000D02*
X83530000Y-113516000D01*
X81570000Y-113516000D02*
X78898000Y-113516000D01*
X86183000Y-113556000D02*
X83530000Y-113556000D01*
X81570000Y-113556000D02*
X78917000Y-113556000D01*
X86163000Y-113596000D02*
X83530000Y-113596000D01*
X81570000Y-113596000D02*
X78937000Y-113596000D01*
X86143000Y-113636000D02*
X83530000Y-113636000D01*
X81570000Y-113636000D02*
X78957000Y-113636000D01*
X86122000Y-113676000D02*
X83530000Y-113676000D01*
X81570000Y-113676000D02*
X78978000Y-113676000D01*
X86100000Y-113716000D02*
X83530000Y-113716000D01*
X81570000Y-113716000D02*
X79000000Y-113716000D01*
X86078000Y-113756000D02*
X83530000Y-113756000D01*
X81570000Y-113756000D02*
X79022000Y-113756000D01*
X86055000Y-113796000D02*
X83530000Y-113796000D01*
X81570000Y-113796000D02*
X79045000Y-113796000D01*
X86032000Y-113836000D02*
X83530000Y-113836000D01*
X81570000Y-113836000D02*
X79068000Y-113836000D01*
X86008000Y-113876000D02*
X83530000Y-113876000D01*
X81570000Y-113876000D02*
X79092000Y-113876000D01*
X85984000Y-113916000D02*
X83530000Y-113916000D01*
X81570000Y-113916000D02*
X79116000Y-113916000D01*
X85958000Y-113956000D02*
X83530000Y-113956000D01*
X81570000Y-113956000D02*
X79142000Y-113956000D01*
X85933000Y-113996000D02*
X83530000Y-113996000D01*
X81570000Y-113996000D02*
X79167000Y-113996000D01*
X85906000Y-114036000D02*
X83530000Y-114036000D01*
X81570000Y-114036000D02*
X79194000Y-114036000D01*
X85879000Y-114076000D02*
X83530000Y-114076000D01*
X81570000Y-114076000D02*
X79221000Y-114076000D01*
X85851000Y-114116000D02*
X83530000Y-114116000D01*
X81570000Y-114116000D02*
X79249000Y-114116000D01*
X85822000Y-114156000D02*
X83530000Y-114156000D01*
X81570000Y-114156000D02*
X79278000Y-114156000D01*
X85793000Y-114196000D02*
X83530000Y-114196000D01*
X81570000Y-114196000D02*
X79307000Y-114196000D01*
X85763000Y-114236000D02*
X83530000Y-114236000D01*
X81570000Y-114236000D02*
X79337000Y-114236000D01*
X85732000Y-114276000D02*
X83530000Y-114276000D01*
X81570000Y-114276000D02*
X79368000Y-114276000D01*
X85700000Y-114316000D02*
X83530000Y-114316000D01*
X81570000Y-114316000D02*
X79400000Y-114316000D01*
X85668000Y-114356000D02*
X83530000Y-114356000D01*
X81570000Y-114356000D02*
X79432000Y-114356000D01*
X85634000Y-114396000D02*
X83530000Y-114396000D01*
X81570000Y-114396000D02*
X79466000Y-114396000D01*
X85600000Y-114436000D02*
X83530000Y-114436000D01*
X81570000Y-114436000D02*
X79500000Y-114436000D01*
X85565000Y-114476000D02*
X83530000Y-114476000D01*
X81570000Y-114476000D02*
X79535000Y-114476000D01*
X85529000Y-114516000D02*
X83530000Y-114516000D01*
X81570000Y-114516000D02*
X79571000Y-114516000D01*
X85492000Y-114556000D02*
X83530000Y-114556000D01*
X81570000Y-114556000D02*
X79608000Y-114556000D01*
X85454000Y-114596000D02*
X83530000Y-114596000D01*
X81570000Y-114596000D02*
X79646000Y-114596000D01*
X85415000Y-114636000D02*
X79685000Y-114636000D01*
X85374000Y-114676000D02*
X79726000Y-114676000D01*
X85333000Y-114716000D02*
X79767000Y-114716000D01*
X85290000Y-114756000D02*
X79810000Y-114756000D01*
X85247000Y-114796000D02*
X79853000Y-114796000D01*
X85202000Y-114836000D02*
X79898000Y-114836000D01*
X85155000Y-114876000D02*
X79945000Y-114876000D01*
X85107000Y-114916000D02*
X79993000Y-114916000D01*
X85058000Y-114956000D02*
X80042000Y-114956000D01*
X85007000Y-114996000D02*
X80093000Y-114996000D01*
X84954000Y-115036000D02*
X80146000Y-115036000D01*
X84899000Y-115076000D02*
X80201000Y-115076000D01*
X84843000Y-115116000D02*
X80257000Y-115116000D01*
X84784000Y-115156000D02*
X80316000Y-115156000D01*
X84723000Y-115196000D02*
X80377000Y-115196000D01*
X84659000Y-115236000D02*
X80441000Y-115236000D01*
X84593000Y-115276000D02*
X80507000Y-115276000D01*
X84524000Y-115316000D02*
X80576000Y-115316000D01*
X84452000Y-115356000D02*
X80648000Y-115356000D01*
X84376000Y-115396000D02*
X80724000Y-115396000D01*
X84295000Y-115436000D02*
X80805000Y-115436000D01*
X84210000Y-115476000D02*
X80890000Y-115476000D01*
X84120000Y-115516000D02*
X80980000Y-115516000D01*
X84023000Y-115556000D02*
X81077000Y-115556000D01*
X83919000Y-115596000D02*
X81181000Y-115596000D01*
X83804000Y-115636000D02*
X81296000Y-115636000D01*
X83677000Y-115676000D02*
X81423000Y-115676000D01*
X83533000Y-115716000D02*
X81567000Y-115716000D01*
X83364000Y-115756000D02*
X81736000Y-115756000D01*
X83148000Y-115796000D02*
X81952000Y-115796000D01*
X82796000Y-115836000D02*
X82304000Y-115836000D01*
X82550000Y-107655000D02*
X82550000Y-108855000D01*
X83200000Y-108255000D02*
X81900000Y-108255000D01*
D11*
X90385000Y-94480000D02*
X90385000Y-93480000D01*
X88685000Y-93480000D02*
X88685000Y-94480000D01*
D12*
X75845000Y-111755000D02*
G75*
G03X75845000Y-111755000I-4090000J0D01*
G01*
X75805000Y-111755000D02*
X67705000Y-111755000D01*
X75805000Y-111795000D02*
X67705000Y-111795000D01*
X75805000Y-111835000D02*
X67705000Y-111835000D01*
X75804000Y-111875000D02*
X67706000Y-111875000D01*
X75802000Y-111915000D02*
X67708000Y-111915000D01*
X75801000Y-111955000D02*
X67709000Y-111955000D01*
X75798000Y-111995000D02*
X67712000Y-111995000D01*
X75796000Y-112035000D02*
X67714000Y-112035000D01*
X75793000Y-112075000D02*
X67717000Y-112075000D01*
X75790000Y-112115000D02*
X67720000Y-112115000D01*
X75786000Y-112155000D02*
X67724000Y-112155000D01*
X75782000Y-112195000D02*
X67728000Y-112195000D01*
X75777000Y-112235000D02*
X67733000Y-112235000D01*
X75772000Y-112275000D02*
X67738000Y-112275000D01*
X75767000Y-112315000D02*
X67743000Y-112315000D01*
X75761000Y-112355000D02*
X67749000Y-112355000D01*
X75755000Y-112395000D02*
X67755000Y-112395000D01*
X75749000Y-112435000D02*
X67761000Y-112435000D01*
X75742000Y-112476000D02*
X67768000Y-112476000D01*
X75734000Y-112516000D02*
X67776000Y-112516000D01*
X75726000Y-112556000D02*
X67784000Y-112556000D01*
X75718000Y-112596000D02*
X67792000Y-112596000D01*
X75710000Y-112636000D02*
X67800000Y-112636000D01*
X75701000Y-112676000D02*
X72735000Y-112676000D01*
X70775000Y-112676000D02*
X67809000Y-112676000D01*
X75691000Y-112716000D02*
X72735000Y-112716000D01*
X70775000Y-112716000D02*
X67819000Y-112716000D01*
X75681000Y-112756000D02*
X72735000Y-112756000D01*
X70775000Y-112756000D02*
X67829000Y-112756000D01*
X75671000Y-112796000D02*
X72735000Y-112796000D01*
X70775000Y-112796000D02*
X67839000Y-112796000D01*
X75660000Y-112836000D02*
X72735000Y-112836000D01*
X70775000Y-112836000D02*
X67850000Y-112836000D01*
X75649000Y-112876000D02*
X72735000Y-112876000D01*
X70775000Y-112876000D02*
X67861000Y-112876000D01*
X75638000Y-112916000D02*
X72735000Y-112916000D01*
X70775000Y-112916000D02*
X67872000Y-112916000D01*
X75625000Y-112956000D02*
X72735000Y-112956000D01*
X70775000Y-112956000D02*
X67885000Y-112956000D01*
X75613000Y-112996000D02*
X72735000Y-112996000D01*
X70775000Y-112996000D02*
X67897000Y-112996000D01*
X75600000Y-113036000D02*
X72735000Y-113036000D01*
X70775000Y-113036000D02*
X67910000Y-113036000D01*
X75587000Y-113076000D02*
X72735000Y-113076000D01*
X70775000Y-113076000D02*
X67923000Y-113076000D01*
X75573000Y-113116000D02*
X72735000Y-113116000D01*
X70775000Y-113116000D02*
X67937000Y-113116000D01*
X75558000Y-113156000D02*
X72735000Y-113156000D01*
X70775000Y-113156000D02*
X67952000Y-113156000D01*
X75544000Y-113196000D02*
X72735000Y-113196000D01*
X70775000Y-113196000D02*
X67966000Y-113196000D01*
X75528000Y-113236000D02*
X72735000Y-113236000D01*
X70775000Y-113236000D02*
X67982000Y-113236000D01*
X75513000Y-113276000D02*
X72735000Y-113276000D01*
X70775000Y-113276000D02*
X67997000Y-113276000D01*
X75496000Y-113316000D02*
X72735000Y-113316000D01*
X70775000Y-113316000D02*
X68014000Y-113316000D01*
X75480000Y-113356000D02*
X72735000Y-113356000D01*
X70775000Y-113356000D02*
X68030000Y-113356000D01*
X75462000Y-113396000D02*
X72735000Y-113396000D01*
X70775000Y-113396000D02*
X68048000Y-113396000D01*
X75445000Y-113436000D02*
X72735000Y-113436000D01*
X70775000Y-113436000D02*
X68065000Y-113436000D01*
X75426000Y-113476000D02*
X72735000Y-113476000D01*
X70775000Y-113476000D02*
X68084000Y-113476000D01*
X75407000Y-113516000D02*
X72735000Y-113516000D01*
X70775000Y-113516000D02*
X68103000Y-113516000D01*
X75388000Y-113556000D02*
X72735000Y-113556000D01*
X70775000Y-113556000D02*
X68122000Y-113556000D01*
X75368000Y-113596000D02*
X72735000Y-113596000D01*
X70775000Y-113596000D02*
X68142000Y-113596000D01*
X75348000Y-113636000D02*
X72735000Y-113636000D01*
X70775000Y-113636000D02*
X68162000Y-113636000D01*
X75327000Y-113676000D02*
X72735000Y-113676000D01*
X70775000Y-113676000D02*
X68183000Y-113676000D01*
X75305000Y-113716000D02*
X72735000Y-113716000D01*
X70775000Y-113716000D02*
X68205000Y-113716000D01*
X75283000Y-113756000D02*
X72735000Y-113756000D01*
X70775000Y-113756000D02*
X68227000Y-113756000D01*
X75260000Y-113796000D02*
X72735000Y-113796000D01*
X70775000Y-113796000D02*
X68250000Y-113796000D01*
X75237000Y-113836000D02*
X72735000Y-113836000D01*
X70775000Y-113836000D02*
X68273000Y-113836000D01*
X75213000Y-113876000D02*
X72735000Y-113876000D01*
X70775000Y-113876000D02*
X68297000Y-113876000D01*
X75189000Y-113916000D02*
X72735000Y-113916000D01*
X70775000Y-113916000D02*
X68321000Y-113916000D01*
X75163000Y-113956000D02*
X72735000Y-113956000D01*
X70775000Y-113956000D02*
X68347000Y-113956000D01*
X75138000Y-113996000D02*
X72735000Y-113996000D01*
X70775000Y-113996000D02*
X68372000Y-113996000D01*
X75111000Y-114036000D02*
X72735000Y-114036000D01*
X70775000Y-114036000D02*
X68399000Y-114036000D01*
X75084000Y-114076000D02*
X72735000Y-114076000D01*
X70775000Y-114076000D02*
X68426000Y-114076000D01*
X75056000Y-114116000D02*
X72735000Y-114116000D01*
X70775000Y-114116000D02*
X68454000Y-114116000D01*
X75027000Y-114156000D02*
X72735000Y-114156000D01*
X70775000Y-114156000D02*
X68483000Y-114156000D01*
X74998000Y-114196000D02*
X72735000Y-114196000D01*
X70775000Y-114196000D02*
X68512000Y-114196000D01*
X74968000Y-114236000D02*
X72735000Y-114236000D01*
X70775000Y-114236000D02*
X68542000Y-114236000D01*
X74937000Y-114276000D02*
X72735000Y-114276000D01*
X70775000Y-114276000D02*
X68573000Y-114276000D01*
X74905000Y-114316000D02*
X72735000Y-114316000D01*
X70775000Y-114316000D02*
X68605000Y-114316000D01*
X74873000Y-114356000D02*
X72735000Y-114356000D01*
X70775000Y-114356000D02*
X68637000Y-114356000D01*
X74839000Y-114396000D02*
X72735000Y-114396000D01*
X70775000Y-114396000D02*
X68671000Y-114396000D01*
X74805000Y-114436000D02*
X72735000Y-114436000D01*
X70775000Y-114436000D02*
X68705000Y-114436000D01*
X74770000Y-114476000D02*
X72735000Y-114476000D01*
X70775000Y-114476000D02*
X68740000Y-114476000D01*
X74734000Y-114516000D02*
X72735000Y-114516000D01*
X70775000Y-114516000D02*
X68776000Y-114516000D01*
X74697000Y-114556000D02*
X72735000Y-114556000D01*
X70775000Y-114556000D02*
X68813000Y-114556000D01*
X74659000Y-114596000D02*
X72735000Y-114596000D01*
X70775000Y-114596000D02*
X68851000Y-114596000D01*
X74620000Y-114636000D02*
X68890000Y-114636000D01*
X74579000Y-114676000D02*
X68931000Y-114676000D01*
X74538000Y-114716000D02*
X68972000Y-114716000D01*
X74495000Y-114756000D02*
X69015000Y-114756000D01*
X74452000Y-114796000D02*
X69058000Y-114796000D01*
X74407000Y-114836000D02*
X69103000Y-114836000D01*
X74360000Y-114876000D02*
X69150000Y-114876000D01*
X74312000Y-114916000D02*
X69198000Y-114916000D01*
X74263000Y-114956000D02*
X69247000Y-114956000D01*
X74212000Y-114996000D02*
X69298000Y-114996000D01*
X74159000Y-115036000D02*
X69351000Y-115036000D01*
X74104000Y-115076000D02*
X69406000Y-115076000D01*
X74048000Y-115116000D02*
X69462000Y-115116000D01*
X73989000Y-115156000D02*
X69521000Y-115156000D01*
X73928000Y-115196000D02*
X69582000Y-115196000D01*
X73864000Y-115236000D02*
X69646000Y-115236000D01*
X73798000Y-115276000D02*
X69712000Y-115276000D01*
X73729000Y-115316000D02*
X69781000Y-115316000D01*
X73657000Y-115356000D02*
X69853000Y-115356000D01*
X73581000Y-115396000D02*
X69929000Y-115396000D01*
X73500000Y-115436000D02*
X70010000Y-115436000D01*
X73415000Y-115476000D02*
X70095000Y-115476000D01*
X73325000Y-115516000D02*
X70185000Y-115516000D01*
X73228000Y-115556000D02*
X70282000Y-115556000D01*
X73124000Y-115596000D02*
X70386000Y-115596000D01*
X73009000Y-115636000D02*
X70501000Y-115636000D01*
X72882000Y-115676000D02*
X70628000Y-115676000D01*
X72738000Y-115716000D02*
X70772000Y-115716000D01*
X72569000Y-115756000D02*
X70941000Y-115756000D01*
X72353000Y-115796000D02*
X71157000Y-115796000D01*
X72001000Y-115836000D02*
X71509000Y-115836000D01*
X71755000Y-107655000D02*
X71755000Y-108855000D01*
X72405000Y-108255000D02*
X71105000Y-108255000D01*
D11*
X123960000Y-104560000D02*
X122960000Y-104560000D01*
X122960000Y-106260000D02*
X123960000Y-106260000D01*
X129675000Y-104990000D02*
X130675000Y-104990000D01*
X130675000Y-103290000D02*
X129675000Y-103290000D01*
X122690000Y-58000000D02*
X123690000Y-58000000D01*
X123690000Y-56300000D02*
X122690000Y-56300000D01*
X124245000Y-66810000D02*
X124245000Y-67810000D01*
X125945000Y-67810000D02*
X125945000Y-66810000D01*
X135675000Y-66810000D02*
X135675000Y-67810000D01*
X137375000Y-67810000D02*
X137375000Y-66810000D01*
X131865000Y-66810000D02*
X131865000Y-67810000D01*
X133565000Y-67810000D02*
X133565000Y-66810000D01*
X128055000Y-66810000D02*
X128055000Y-67810000D01*
X129755000Y-67810000D02*
X129755000Y-66810000D01*
X80430000Y-76970000D02*
X80430000Y-77970000D01*
X82130000Y-77970000D02*
X82130000Y-76970000D01*
X60825000Y-74080000D02*
X59825000Y-74080000D01*
X59825000Y-75780000D02*
X60825000Y-75780000D01*
X60825000Y-70270000D02*
X59825000Y-70270000D01*
X59825000Y-71970000D02*
X60825000Y-71970000D01*
X68715000Y-67525000D02*
X69715000Y-67525000D01*
X69715000Y-65825000D02*
X68715000Y-65825000D01*
X128690000Y-50300000D02*
X128690000Y-51300000D01*
X130390000Y-51300000D02*
X130390000Y-50300000D01*
X143725000Y-51300000D02*
X143725000Y-50300000D01*
X142025000Y-50300000D02*
X142025000Y-51300000D01*
X157695000Y-51300000D02*
X157695000Y-50300000D01*
X155995000Y-50300000D02*
X155995000Y-51300000D01*
X170395000Y-50665000D02*
X170395000Y-49665000D01*
X168695000Y-49665000D02*
X168695000Y-50665000D01*
X183095000Y-51300000D02*
X183095000Y-50300000D01*
X181395000Y-50300000D02*
X181395000Y-51300000D01*
X202430000Y-65190000D02*
X201430000Y-65190000D01*
X201430000Y-66890000D02*
X202430000Y-66890000D01*
X181745000Y-60540000D02*
X182745000Y-60540000D01*
X182745000Y-58840000D02*
X181745000Y-58840000D01*
D12*
X62350000Y-88910000D02*
X62350000Y-89040000D01*
X62350000Y-89040000D02*
X57030000Y-89040000D01*
X57030000Y-89040000D02*
X57030000Y-88910000D01*
X62350000Y-86350000D02*
X62350000Y-86220000D01*
X62350000Y-86220000D02*
X57030000Y-86220000D01*
X57030000Y-86220000D02*
X57030000Y-86350000D01*
X61510000Y-89040000D02*
X61510000Y-86220000D01*
X62350000Y-93990000D02*
X62350000Y-94120000D01*
X62350000Y-94120000D02*
X57030000Y-94120000D01*
X57030000Y-94120000D02*
X57030000Y-93990000D01*
X62350000Y-91430000D02*
X62350000Y-91300000D01*
X62350000Y-91300000D02*
X57030000Y-91300000D01*
X57030000Y-91300000D02*
X57030000Y-91430000D01*
X61510000Y-94120000D02*
X61510000Y-91300000D01*
X54864000Y-105705000D02*
X56896000Y-105705000D01*
X54855000Y-102505000D02*
X54855000Y-105705000D01*
X56905000Y-105705000D02*
X56905000Y-102505000D01*
D11*
X118860000Y-96215000D02*
X118860000Y-93515000D01*
X117360000Y-96215000D02*
X117360000Y-93515000D01*
X118260000Y-94715000D02*
X118010000Y-94715000D01*
X118010000Y-94715000D02*
X118160000Y-94865000D01*
X117760000Y-94965000D02*
X118460000Y-94965000D01*
X118110000Y-94615000D02*
X118110000Y-94265000D01*
X118110000Y-94965000D02*
X117760000Y-94615000D01*
X117760000Y-94615000D02*
X118460000Y-94615000D01*
X118460000Y-94615000D02*
X118110000Y-94965000D01*
X84760000Y-73775000D02*
X87460000Y-73775000D01*
X84760000Y-72275000D02*
X87460000Y-72275000D01*
X86260000Y-73175000D02*
X86260000Y-72925000D01*
X86260000Y-72925000D02*
X86110000Y-73075000D01*
X86010000Y-72675000D02*
X86010000Y-73375000D01*
X86360000Y-73025000D02*
X86710000Y-73025000D01*
X86010000Y-73025000D02*
X86360000Y-72675000D01*
X86360000Y-72675000D02*
X86360000Y-73375000D01*
X86360000Y-73375000D02*
X86010000Y-73025000D01*
X80315000Y-73775000D02*
X83015000Y-73775000D01*
X80315000Y-72275000D02*
X83015000Y-72275000D01*
X81815000Y-73175000D02*
X81815000Y-72925000D01*
X81815000Y-72925000D02*
X81665000Y-73075000D01*
X81565000Y-72675000D02*
X81565000Y-73375000D01*
X81915000Y-73025000D02*
X82265000Y-73025000D01*
X81565000Y-73025000D02*
X81915000Y-72675000D01*
X81915000Y-72675000D02*
X81915000Y-73375000D01*
X81915000Y-73375000D02*
X81565000Y-73025000D01*
D12*
X122260000Y-51054000D02*
X122260000Y-53086000D01*
X125460000Y-51045000D02*
X122260000Y-51045000D01*
X122260000Y-53095000D02*
X125460000Y-53095000D01*
X136230000Y-51054000D02*
X136230000Y-53086000D01*
X139430000Y-51045000D02*
X136230000Y-51045000D01*
X136230000Y-53095000D02*
X139430000Y-53095000D01*
X150835000Y-51054000D02*
X150835000Y-53086000D01*
X154035000Y-51045000D02*
X150835000Y-51045000D01*
X150835000Y-53095000D02*
X154035000Y-53095000D01*
X163535000Y-51054000D02*
X163535000Y-53086000D01*
X166735000Y-51045000D02*
X163535000Y-51045000D01*
X163535000Y-53095000D02*
X166735000Y-53095000D01*
X176235000Y-51054000D02*
X176235000Y-53086000D01*
X179435000Y-51045000D02*
X176235000Y-51045000D01*
X176235000Y-53095000D02*
X179435000Y-53095000D01*
X199730000Y-60579000D02*
X199730000Y-62611000D01*
X202930000Y-60570000D02*
X199730000Y-60570000D01*
X199730000Y-62620000D02*
X202930000Y-62620000D01*
X184445000Y-56261000D02*
X184445000Y-54229000D01*
X181245000Y-56270000D02*
X184445000Y-56270000D01*
X184445000Y-54220000D02*
X181245000Y-54220000D01*
D11*
X45920660Y-42291000D02*
X109420660Y-42291000D01*
X45420280Y-56789320D02*
X45420280Y-42788840D01*
X109420660Y-57289700D02*
X45920660Y-57289700D01*
X109921040Y-42788840D02*
X109921040Y-56789320D01*
X109918500Y-42788840D02*
G75*
G03X109420660Y-42291000I-497840J0D01*
G01*
X109420660Y-57289700D02*
G75*
G03X109921040Y-56789320I0J500380D01*
G01*
X45420280Y-56789320D02*
G75*
G03X45920660Y-57289700I500380J0D01*
G01*
X45920660Y-42288460D02*
G75*
G03X45420280Y-42788840I0J-500380D01*
G01*
X41120060Y-37190680D02*
X114320320Y-37190680D01*
X114320320Y-37190680D02*
X114320320Y-62590680D01*
X114320320Y-62590680D02*
X41120060Y-62590680D01*
X41120060Y-62590680D02*
X41120060Y-37190680D01*
X117718840Y-34290000D02*
G75*
G03X117718840Y-34290000I-2499360J0D01*
G01*
X117718840Y-65290700D02*
G75*
G03X117718840Y-65290700I-2499360J0D01*
G01*
X42722800Y-65290700D02*
G75*
G03X42722800Y-65290700I-2501900J0D01*
G01*
X42720260Y-34290000D02*
G75*
G03X42720260Y-34290000I-2499360J0D01*
G01*
X37719000Y-31790640D02*
X117718840Y-31790640D01*
X117718840Y-31790640D02*
X117718840Y-67790060D01*
X117718840Y-67790060D02*
X37719000Y-67790060D01*
X37719000Y-67790060D02*
X37719000Y-31790640D01*
X59325000Y-77665000D02*
X61325000Y-77665000D01*
X61325000Y-79815000D02*
X59325000Y-79815000D01*
X92320000Y-131310000D02*
X93590000Y-131310000D01*
X92320000Y-123960000D02*
X93590000Y-123960000D01*
X114690000Y-123960000D02*
X113420000Y-123960000D01*
X114690000Y-131310000D02*
X113420000Y-131310000D01*
X92320000Y-131310000D02*
X92320000Y-123960000D01*
X114690000Y-131310000D02*
X114690000Y-123960000D01*
X93590000Y-131310000D02*
X93590000Y-132245000D01*
X121530000Y-131310000D02*
X122800000Y-131310000D01*
X121530000Y-123960000D02*
X122800000Y-123960000D01*
X143900000Y-123960000D02*
X142630000Y-123960000D01*
X143900000Y-131310000D02*
X142630000Y-131310000D01*
X121530000Y-131310000D02*
X121530000Y-123960000D01*
X143900000Y-131310000D02*
X143900000Y-123960000D01*
X122800000Y-131310000D02*
X122800000Y-132245000D01*
X151375000Y-131310000D02*
X152645000Y-131310000D01*
X151375000Y-123960000D02*
X152645000Y-123960000D01*
X173745000Y-123960000D02*
X172475000Y-123960000D01*
X173745000Y-131310000D02*
X172475000Y-131310000D01*
X151375000Y-131310000D02*
X151375000Y-123960000D01*
X173745000Y-131310000D02*
X173745000Y-123960000D01*
X152645000Y-131310000D02*
X152645000Y-132245000D01*
X182490000Y-131310000D02*
X183760000Y-131310000D01*
X182490000Y-123960000D02*
X183760000Y-123960000D01*
X204860000Y-123960000D02*
X203590000Y-123960000D01*
X204860000Y-131310000D02*
X203590000Y-131310000D01*
X182490000Y-131310000D02*
X182490000Y-123960000D01*
X204860000Y-131310000D02*
X204860000Y-123960000D01*
X183760000Y-131310000D02*
X183760000Y-132245000D01*
X204970000Y-117230000D02*
X204970000Y-115960000D01*
X197620000Y-117230000D02*
X197620000Y-115960000D01*
X197620000Y-94860000D02*
X197620000Y-96130000D01*
X204970000Y-94860000D02*
X204970000Y-96130000D01*
X204970000Y-117230000D02*
X197620000Y-117230000D01*
X204970000Y-94860000D02*
X197620000Y-94860000D01*
X204970000Y-115960000D02*
X205905000Y-115960000D01*
X204970000Y-91830000D02*
X204970000Y-90560000D01*
X197620000Y-91830000D02*
X197620000Y-90560000D01*
X197620000Y-69460000D02*
X197620000Y-70730000D01*
X204970000Y-69460000D02*
X204970000Y-70730000D01*
X204970000Y-91830000D02*
X197620000Y-91830000D01*
X204970000Y-69460000D02*
X197620000Y-69460000D01*
X204970000Y-90560000D02*
X205905000Y-90560000D01*
X41084500Y-85034120D02*
X41084500Y-94035880D01*
X37584380Y-85034120D02*
X37584380Y-94035880D01*
X37584380Y-94035880D02*
X52085240Y-94035880D01*
X52085240Y-94035880D02*
X52085240Y-85034120D01*
X52085240Y-85034120D02*
X37584380Y-85034120D01*
X106680000Y-80010000D02*
X101600000Y-80010000D01*
X98780000Y-79730000D02*
X100330000Y-79730000D01*
X99060000Y-82550000D02*
X101600000Y-82550000D01*
X101600000Y-82550000D02*
X101600000Y-80010000D01*
X106680000Y-80010000D02*
X106680000Y-85090000D01*
X106680000Y-85090000D02*
X101600000Y-85090000D01*
X98780000Y-79730000D02*
X98780000Y-81280000D01*
X99060000Y-85090000D02*
X99060000Y-82550000D01*
X101600000Y-85090000D02*
X99060000Y-85090000D01*
X168630000Y-80010000D02*
X168630000Y-78460000D01*
X168630000Y-78460000D02*
X171730000Y-78460000D01*
X171730000Y-78460000D02*
X171730000Y-80010000D01*
X171450000Y-81280000D02*
X171450000Y-91440000D01*
X171450000Y-91440000D02*
X168910000Y-91440000D01*
X168910000Y-91440000D02*
X168910000Y-81280000D01*
X171450000Y-81280000D02*
X168910000Y-81280000D01*
X109220000Y-110490000D02*
X91440000Y-110490000D01*
X91440000Y-110490000D02*
X91440000Y-107950000D01*
X91440000Y-107950000D02*
X109220000Y-107950000D01*
X112040000Y-110770000D02*
X110490000Y-110770000D01*
X109220000Y-110490000D02*
X109220000Y-107950000D01*
X110490000Y-107670000D02*
X112040000Y-107670000D01*
X112040000Y-107670000D02*
X112040000Y-110770000D01*
X114935000Y-102870000D02*
X117475000Y-102870000D01*
X112115000Y-102590000D02*
X113665000Y-102590000D01*
X114935000Y-102870000D02*
X114935000Y-105410000D01*
X113665000Y-105690000D02*
X112115000Y-105690000D01*
X112115000Y-105690000D02*
X112115000Y-102590000D01*
X114935000Y-105410000D02*
X117475000Y-105410000D01*
X117475000Y-105410000D02*
X117475000Y-102870000D01*
X114300000Y-79375000D02*
X114300000Y-97155000D01*
X114300000Y-97155000D02*
X111760000Y-97155000D01*
X111760000Y-97155000D02*
X111760000Y-79375000D01*
X114580000Y-76555000D02*
X114580000Y-78105000D01*
X114300000Y-79375000D02*
X111760000Y-79375000D01*
X111480000Y-78105000D02*
X111480000Y-76555000D01*
X111480000Y-76555000D02*
X114580000Y-76555000D01*
X46355000Y-70104000D02*
X37719000Y-70104000D01*
X54737000Y-70104000D02*
X49657000Y-70104000D01*
X46355000Y-82296000D02*
X37719000Y-82296000D01*
X54737000Y-82296000D02*
X49657000Y-82296000D01*
X37719000Y-82296000D02*
X37719000Y-70104000D01*
X54737000Y-70104000D02*
X54737000Y-82296000D01*
X152400000Y-86360000D02*
X152400000Y-83820000D01*
X152120000Y-89180000D02*
X152120000Y-87630000D01*
X152400000Y-86360000D02*
X154940000Y-86360000D01*
X155220000Y-87630000D02*
X155220000Y-89180000D01*
X155220000Y-89180000D02*
X152120000Y-89180000D01*
X154940000Y-86360000D02*
X154940000Y-83820000D01*
X154940000Y-83820000D02*
X152400000Y-83820000D01*
X98684080Y-143570960D02*
X93085920Y-143570960D01*
X93284040Y-144068800D02*
X93284040Y-143570960D01*
X98485960Y-143570960D02*
X98485960Y-144068800D01*
X95885000Y-144068800D02*
X95885000Y-143570960D01*
X93085920Y-138269980D02*
X98684080Y-138269980D01*
X93085920Y-144068800D02*
X98684080Y-144068800D01*
X98684080Y-144068800D02*
X98684080Y-137871200D01*
X98684080Y-137871200D02*
X93085920Y-137871200D01*
X93085920Y-137871200D02*
X93085920Y-144068800D01*
X106304080Y-143570960D02*
X100705920Y-143570960D01*
X100904040Y-144068800D02*
X100904040Y-143570960D01*
X106105960Y-143570960D02*
X106105960Y-144068800D01*
X103505000Y-144068800D02*
X103505000Y-143570960D01*
X100705920Y-138269980D02*
X106304080Y-138269980D01*
X100705920Y-144068800D02*
X106304080Y-144068800D01*
X106304080Y-144068800D02*
X106304080Y-137871200D01*
X106304080Y-137871200D02*
X100705920Y-137871200D01*
X100705920Y-137871200D02*
X100705920Y-144068800D01*
X113924080Y-143570960D02*
X108325920Y-143570960D01*
X108524040Y-144068800D02*
X108524040Y-143570960D01*
X113725960Y-143570960D02*
X113725960Y-144068800D01*
X111125000Y-144068800D02*
X111125000Y-143570960D01*
X108325920Y-138269980D02*
X113924080Y-138269980D01*
X108325920Y-144068800D02*
X113924080Y-144068800D01*
X113924080Y-144068800D02*
X113924080Y-137871200D01*
X113924080Y-137871200D02*
X108325920Y-137871200D01*
X108325920Y-137871200D02*
X108325920Y-144068800D01*
X121544080Y-143570960D02*
X115945920Y-143570960D01*
X116144040Y-144068800D02*
X116144040Y-143570960D01*
X121345960Y-143570960D02*
X121345960Y-144068800D01*
X118745000Y-144068800D02*
X118745000Y-143570960D01*
X115945920Y-138269980D02*
X121544080Y-138269980D01*
X115945920Y-144068800D02*
X121544080Y-144068800D01*
X121544080Y-144068800D02*
X121544080Y-137871200D01*
X121544080Y-137871200D02*
X115945920Y-137871200D01*
X115945920Y-137871200D02*
X115945920Y-144068800D01*
X129164080Y-143570960D02*
X123565920Y-143570960D01*
X123764040Y-144068800D02*
X123764040Y-143570960D01*
X128965960Y-143570960D02*
X128965960Y-144068800D01*
X126365000Y-144068800D02*
X126365000Y-143570960D01*
X123565920Y-138269980D02*
X129164080Y-138269980D01*
X123565920Y-144068800D02*
X129164080Y-144068800D01*
X129164080Y-144068800D02*
X129164080Y-137871200D01*
X129164080Y-137871200D02*
X123565920Y-137871200D01*
X123565920Y-137871200D02*
X123565920Y-144068800D01*
X136784080Y-143570960D02*
X131185920Y-143570960D01*
X131384040Y-144068800D02*
X131384040Y-143570960D01*
X136585960Y-143570960D02*
X136585960Y-144068800D01*
X133985000Y-144068800D02*
X133985000Y-143570960D01*
X131185920Y-138269980D02*
X136784080Y-138269980D01*
X131185920Y-144068800D02*
X136784080Y-144068800D01*
X136784080Y-144068800D02*
X136784080Y-137871200D01*
X136784080Y-137871200D02*
X131185920Y-137871200D01*
X131185920Y-137871200D02*
X131185920Y-144068800D01*
X144404080Y-143570960D02*
X138805920Y-143570960D01*
X139004040Y-144068800D02*
X139004040Y-143570960D01*
X144205960Y-143570960D02*
X144205960Y-144068800D01*
X141605000Y-144068800D02*
X141605000Y-143570960D01*
X138805920Y-138269980D02*
X144404080Y-138269980D01*
X138805920Y-144068800D02*
X144404080Y-144068800D01*
X144404080Y-144068800D02*
X144404080Y-137871200D01*
X144404080Y-137871200D02*
X138805920Y-137871200D01*
X138805920Y-137871200D02*
X138805920Y-144068800D01*
X152659080Y-143570960D02*
X147060920Y-143570960D01*
X147259040Y-144068800D02*
X147259040Y-143570960D01*
X152460960Y-143570960D02*
X152460960Y-144068800D01*
X149860000Y-144068800D02*
X149860000Y-143570960D01*
X147060920Y-138269980D02*
X152659080Y-138269980D01*
X147060920Y-144068800D02*
X152659080Y-144068800D01*
X152659080Y-144068800D02*
X152659080Y-137871200D01*
X152659080Y-137871200D02*
X147060920Y-137871200D01*
X147060920Y-137871200D02*
X147060920Y-144068800D01*
X160279080Y-143570960D02*
X154680920Y-143570960D01*
X154879040Y-144068800D02*
X154879040Y-143570960D01*
X160080960Y-143570960D02*
X160080960Y-144068800D01*
X157480000Y-144068800D02*
X157480000Y-143570960D01*
X154680920Y-138269980D02*
X160279080Y-138269980D01*
X154680920Y-144068800D02*
X160279080Y-144068800D01*
X160279080Y-144068800D02*
X160279080Y-137871200D01*
X160279080Y-137871200D02*
X154680920Y-137871200D01*
X154680920Y-137871200D02*
X154680920Y-144068800D01*
X168534080Y-143570960D02*
X162935920Y-143570960D01*
X163134040Y-144068800D02*
X163134040Y-143570960D01*
X168335960Y-143570960D02*
X168335960Y-144068800D01*
X165735000Y-144068800D02*
X165735000Y-143570960D01*
X162935920Y-138269980D02*
X168534080Y-138269980D01*
X162935920Y-144068800D02*
X168534080Y-144068800D01*
X168534080Y-144068800D02*
X168534080Y-137871200D01*
X168534080Y-137871200D02*
X162935920Y-137871200D01*
X162935920Y-137871200D02*
X162935920Y-144068800D01*
X176789080Y-143570960D02*
X171190920Y-143570960D01*
X171389040Y-144068800D02*
X171389040Y-143570960D01*
X176590960Y-143570960D02*
X176590960Y-144068800D01*
X173990000Y-144068800D02*
X173990000Y-143570960D01*
X171190920Y-138269980D02*
X176789080Y-138269980D01*
X171190920Y-144068800D02*
X176789080Y-144068800D01*
X176789080Y-144068800D02*
X176789080Y-137871200D01*
X176789080Y-137871200D02*
X171190920Y-137871200D01*
X171190920Y-137871200D02*
X171190920Y-144068800D01*
X185044080Y-143570960D02*
X179445920Y-143570960D01*
X179644040Y-144068800D02*
X179644040Y-143570960D01*
X184845960Y-143570960D02*
X184845960Y-144068800D01*
X182245000Y-144068800D02*
X182245000Y-143570960D01*
X179445920Y-138269980D02*
X185044080Y-138269980D01*
X179445920Y-144068800D02*
X185044080Y-144068800D01*
X185044080Y-144068800D02*
X185044080Y-137871200D01*
X185044080Y-137871200D02*
X179445920Y-137871200D01*
X179445920Y-137871200D02*
X179445920Y-144068800D01*
X193934080Y-143570960D02*
X188335920Y-143570960D01*
X188534040Y-144068800D02*
X188534040Y-143570960D01*
X193735960Y-143570960D02*
X193735960Y-144068800D01*
X191135000Y-144068800D02*
X191135000Y-143570960D01*
X188335920Y-138269980D02*
X193934080Y-138269980D01*
X188335920Y-144068800D02*
X193934080Y-144068800D01*
X193934080Y-144068800D02*
X193934080Y-137871200D01*
X193934080Y-137871200D02*
X188335920Y-137871200D01*
X188335920Y-137871200D02*
X188335920Y-144068800D01*
X202189080Y-143570960D02*
X196590920Y-143570960D01*
X196789040Y-144068800D02*
X196789040Y-143570960D01*
X201990960Y-143570960D02*
X201990960Y-144068800D01*
X199390000Y-144068800D02*
X199390000Y-143570960D01*
X196590920Y-138269980D02*
X202189080Y-138269980D01*
X196590920Y-144068800D02*
X202189080Y-144068800D01*
X202189080Y-144068800D02*
X202189080Y-137871200D01*
X202189080Y-137871200D02*
X196590920Y-137871200D01*
X196590920Y-137871200D02*
X196590920Y-144068800D01*
X210444080Y-143570960D02*
X204845920Y-143570960D01*
X205044040Y-144068800D02*
X205044040Y-143570960D01*
X210245960Y-143570960D02*
X210245960Y-144068800D01*
X207645000Y-144068800D02*
X207645000Y-143570960D01*
X204845920Y-138269980D02*
X210444080Y-138269980D01*
X204845920Y-144068800D02*
X210444080Y-144068800D01*
X210444080Y-144068800D02*
X210444080Y-137871200D01*
X210444080Y-137871200D02*
X204845920Y-137871200D01*
X204845920Y-137871200D02*
X204845920Y-144068800D01*
X219135960Y-137535920D02*
X219135960Y-143134080D01*
X219633800Y-142935960D02*
X219135960Y-142935960D01*
X219135960Y-137734040D02*
X219633800Y-137734040D01*
X219633800Y-140335000D02*
X219135960Y-140335000D01*
X213834980Y-143134080D02*
X213834980Y-137535920D01*
X219633800Y-143134080D02*
X219633800Y-137535920D01*
X219633800Y-137535920D02*
X213436200Y-137535920D01*
X213436200Y-137535920D02*
X213436200Y-143134080D01*
X213436200Y-143134080D02*
X219633800Y-143134080D01*
X219135960Y-128645920D02*
X219135960Y-134244080D01*
X219633800Y-134045960D02*
X219135960Y-134045960D01*
X219135960Y-128844040D02*
X219633800Y-128844040D01*
X219633800Y-131445000D02*
X219135960Y-131445000D01*
X213834980Y-134244080D02*
X213834980Y-128645920D01*
X219633800Y-134244080D02*
X219633800Y-128645920D01*
X219633800Y-128645920D02*
X213436200Y-128645920D01*
X213436200Y-128645920D02*
X213436200Y-134244080D01*
X213436200Y-134244080D02*
X219633800Y-134244080D01*
X219135960Y-119755920D02*
X219135960Y-125354080D01*
X219633800Y-125155960D02*
X219135960Y-125155960D01*
X219135960Y-119954040D02*
X219633800Y-119954040D01*
X219633800Y-122555000D02*
X219135960Y-122555000D01*
X213834980Y-125354080D02*
X213834980Y-119755920D01*
X219633800Y-125354080D02*
X219633800Y-119755920D01*
X219633800Y-119755920D02*
X213436200Y-119755920D01*
X213436200Y-119755920D02*
X213436200Y-125354080D01*
X213436200Y-125354080D02*
X219633800Y-125354080D01*
X219135960Y-110865920D02*
X219135960Y-116464080D01*
X219633800Y-116265960D02*
X219135960Y-116265960D01*
X219135960Y-111064040D02*
X219633800Y-111064040D01*
X219633800Y-113665000D02*
X219135960Y-113665000D01*
X213834980Y-116464080D02*
X213834980Y-110865920D01*
X219633800Y-116464080D02*
X219633800Y-110865920D01*
X219633800Y-110865920D02*
X213436200Y-110865920D01*
X213436200Y-110865920D02*
X213436200Y-116464080D01*
X213436200Y-116464080D02*
X219633800Y-116464080D01*
X219135960Y-101975920D02*
X219135960Y-107574080D01*
X219633800Y-107375960D02*
X219135960Y-107375960D01*
X219135960Y-102174040D02*
X219633800Y-102174040D01*
X219633800Y-104775000D02*
X219135960Y-104775000D01*
X213834980Y-107574080D02*
X213834980Y-101975920D01*
X219633800Y-107574080D02*
X219633800Y-101975920D01*
X219633800Y-101975920D02*
X213436200Y-101975920D01*
X213436200Y-101975920D02*
X213436200Y-107574080D01*
X213436200Y-107574080D02*
X219633800Y-107574080D01*
X219135960Y-93085920D02*
X219135960Y-98684080D01*
X219633800Y-98485960D02*
X219135960Y-98485960D01*
X219135960Y-93284040D02*
X219633800Y-93284040D01*
X219633800Y-95885000D02*
X219135960Y-95885000D01*
X213834980Y-98684080D02*
X213834980Y-93085920D01*
X219633800Y-98684080D02*
X219633800Y-93085920D01*
X219633800Y-93085920D02*
X213436200Y-93085920D01*
X213436200Y-93085920D02*
X213436200Y-98684080D01*
X213436200Y-98684080D02*
X219633800Y-98684080D01*
X219135960Y-84195920D02*
X219135960Y-89794080D01*
X219633800Y-89595960D02*
X219135960Y-89595960D01*
X219135960Y-84394040D02*
X219633800Y-84394040D01*
X219633800Y-86995000D02*
X219135960Y-86995000D01*
X213834980Y-89794080D02*
X213834980Y-84195920D01*
X219633800Y-89794080D02*
X219633800Y-84195920D01*
X219633800Y-84195920D02*
X213436200Y-84195920D01*
X213436200Y-84195920D02*
X213436200Y-89794080D01*
X213436200Y-89794080D02*
X219633800Y-89794080D01*
X219135960Y-75940920D02*
X219135960Y-81539080D01*
X219633800Y-81340960D02*
X219135960Y-81340960D01*
X219135960Y-76139040D02*
X219633800Y-76139040D01*
X219633800Y-78740000D02*
X219135960Y-78740000D01*
X213834980Y-81539080D02*
X213834980Y-75940920D01*
X219633800Y-81539080D02*
X219633800Y-75940920D01*
X219633800Y-75940920D02*
X213436200Y-75940920D01*
X213436200Y-75940920D02*
X213436200Y-81539080D01*
X213436200Y-81539080D02*
X219633800Y-81539080D01*
X219135960Y-68320920D02*
X219135960Y-73919080D01*
X219633800Y-73720960D02*
X219135960Y-73720960D01*
X219135960Y-68519040D02*
X219633800Y-68519040D01*
X219633800Y-71120000D02*
X219135960Y-71120000D01*
X213834980Y-73919080D02*
X213834980Y-68320920D01*
X219633800Y-73919080D02*
X219633800Y-68320920D01*
X219633800Y-68320920D02*
X213436200Y-68320920D01*
X213436200Y-68320920D02*
X213436200Y-73919080D01*
X213436200Y-73919080D02*
X219633800Y-73919080D01*
X133405880Y-33464500D02*
X124404120Y-33464500D01*
X133405880Y-29964380D02*
X124404120Y-29964380D01*
X124404120Y-29964380D02*
X124404120Y-44465240D01*
X124404120Y-44465240D02*
X133405880Y-44465240D01*
X133405880Y-44465240D02*
X133405880Y-29964380D01*
X146740880Y-33464500D02*
X137739120Y-33464500D01*
X146740880Y-29964380D02*
X137739120Y-29964380D01*
X137739120Y-29964380D02*
X137739120Y-44465240D01*
X137739120Y-44465240D02*
X146740880Y-44465240D01*
X146740880Y-44465240D02*
X146740880Y-29964380D01*
X160075880Y-33464500D02*
X151074120Y-33464500D01*
X160075880Y-29964380D02*
X151074120Y-29964380D01*
X151074120Y-29964380D02*
X151074120Y-44465240D01*
X151074120Y-44465240D02*
X160075880Y-44465240D01*
X160075880Y-44465240D02*
X160075880Y-29964380D01*
X173410880Y-33464500D02*
X164409120Y-33464500D01*
X173410880Y-29964380D02*
X164409120Y-29964380D01*
X164409120Y-29964380D02*
X164409120Y-44465240D01*
X164409120Y-44465240D02*
X173410880Y-44465240D01*
X173410880Y-44465240D02*
X173410880Y-29964380D01*
X186745880Y-33464500D02*
X177744120Y-33464500D01*
X186745880Y-29964380D02*
X177744120Y-29964380D01*
X177744120Y-29964380D02*
X177744120Y-44465240D01*
X177744120Y-44465240D02*
X186745880Y-44465240D01*
X186745880Y-44465240D02*
X186745880Y-29964380D01*
X213415880Y-33464500D02*
X204414120Y-33464500D01*
X213415880Y-29964380D02*
X204414120Y-29964380D01*
X204414120Y-29964380D02*
X204414120Y-44465240D01*
X204414120Y-44465240D02*
X213415880Y-44465240D01*
X213415880Y-44465240D02*
X213415880Y-29964380D01*
X200080880Y-33464500D02*
X191079120Y-33464500D01*
X200080880Y-29964380D02*
X191079120Y-29964380D01*
X191079120Y-29964380D02*
X191079120Y-44465240D01*
X191079120Y-44465240D02*
X200080880Y-44465240D01*
X200080880Y-44465240D02*
X200080880Y-29964380D01*
X173355000Y-65405000D02*
X150495000Y-65405000D01*
X153035000Y-70485000D02*
X173355000Y-70485000D01*
X173355000Y-65405000D02*
X173355000Y-70485000D01*
X150495000Y-65405000D02*
X150495000Y-67945000D01*
X150215000Y-69215000D02*
X150215000Y-70765000D01*
X150495000Y-67945000D02*
X153035000Y-67945000D01*
X153035000Y-67945000D02*
X153035000Y-70485000D01*
X150215000Y-70765000D02*
X151765000Y-70765000D01*
X187960000Y-69850000D02*
X180340000Y-69850000D01*
X180340000Y-69850000D02*
X180340000Y-74930000D01*
X180340000Y-74930000D02*
X190500000Y-74930000D01*
X190500000Y-74930000D02*
X190500000Y-72390000D01*
X190780000Y-71120000D02*
X190780000Y-69570000D01*
X190500000Y-72390000D02*
X187960000Y-72390000D01*
X187960000Y-72390000D02*
X187960000Y-69850000D01*
X190780000Y-69570000D02*
X189230000Y-69570000D01*
X187325000Y-95885000D02*
X179705000Y-95885000D01*
X179705000Y-95885000D02*
X179705000Y-100965000D01*
X179705000Y-100965000D02*
X189865000Y-100965000D01*
X189865000Y-100965000D02*
X189865000Y-98425000D01*
X190145000Y-97155000D02*
X190145000Y-95605000D01*
X189865000Y-98425000D02*
X187325000Y-98425000D01*
X187325000Y-98425000D02*
X187325000Y-95885000D01*
X190145000Y-95605000D02*
X188595000Y-95605000D01*
X62519560Y-137871200D02*
X54320440Y-137871200D01*
X62519560Y-138269980D02*
X54320440Y-138269980D01*
X62519560Y-143570960D02*
X54320440Y-143570960D01*
X54320440Y-144068800D02*
X62519560Y-144068800D01*
X59720480Y-143570960D02*
X59720480Y-144068800D01*
X54521100Y-144068800D02*
X54521100Y-143570960D01*
X62321440Y-143570960D02*
X62321440Y-144068800D01*
X57122060Y-144068800D02*
X57122060Y-143570960D01*
X62519560Y-144068800D02*
X62519560Y-137871200D01*
X54322980Y-137871200D02*
X54322980Y-144068800D01*
X72044560Y-137871200D02*
X63845440Y-137871200D01*
X72044560Y-138269980D02*
X63845440Y-138269980D01*
X72044560Y-143570960D02*
X63845440Y-143570960D01*
X63845440Y-144068800D02*
X72044560Y-144068800D01*
X69245480Y-143570960D02*
X69245480Y-144068800D01*
X64046100Y-144068800D02*
X64046100Y-143570960D01*
X71846440Y-143570960D02*
X71846440Y-144068800D01*
X66647060Y-144068800D02*
X66647060Y-143570960D01*
X72044560Y-144068800D02*
X72044560Y-137871200D01*
X63847980Y-137871200D02*
X63847980Y-144068800D01*
X91094560Y-137871200D02*
X82895440Y-137871200D01*
X91094560Y-138269980D02*
X82895440Y-138269980D01*
X91094560Y-143570960D02*
X82895440Y-143570960D01*
X82895440Y-144068800D02*
X91094560Y-144068800D01*
X88295480Y-143570960D02*
X88295480Y-144068800D01*
X83096100Y-144068800D02*
X83096100Y-143570960D01*
X90896440Y-143570960D02*
X90896440Y-144068800D01*
X85697060Y-144068800D02*
X85697060Y-143570960D01*
X91094560Y-144068800D02*
X91094560Y-137871200D01*
X82897980Y-137871200D02*
X82897980Y-144068800D01*
X81569560Y-137871200D02*
X73370440Y-137871200D01*
X81569560Y-138269980D02*
X73370440Y-138269980D01*
X81569560Y-143570960D02*
X73370440Y-143570960D01*
X73370440Y-144068800D02*
X81569560Y-144068800D01*
X78770480Y-143570960D02*
X78770480Y-144068800D01*
X73571100Y-144068800D02*
X73571100Y-143570960D01*
X81371440Y-143570960D02*
X81371440Y-144068800D01*
X76172060Y-144068800D02*
X76172060Y-143570960D01*
X81569560Y-144068800D02*
X81569560Y-137871200D01*
X73372980Y-137871200D02*
X73372980Y-144068800D01*
X64135000Y-104775000D02*
G75*
G03X64135000Y-100965000I-1905000J1905000D01*
G01*
X60325000Y-100965000D02*
G75*
G03X60325000Y-104775000I1905000J-1905000D01*
G01*
X59080000Y-106020000D02*
X60730000Y-106020000D01*
X65380000Y-106020000D02*
X63730000Y-106020000D01*
X59080000Y-99720000D02*
X60730000Y-99720000D01*
X65380000Y-99720000D02*
X63730000Y-99720000D01*
X65380000Y-99720000D02*
X65380000Y-106020000D01*
X59080000Y-99720000D02*
X59080000Y-106020000D01*
X38674040Y-103764080D02*
X38674040Y-98165920D01*
X38176200Y-98364040D02*
X38674040Y-98364040D01*
X38674040Y-103565960D02*
X38176200Y-103565960D01*
X38176200Y-100965000D02*
X38674040Y-100965000D01*
X43975020Y-98165920D02*
X43975020Y-103764080D01*
X38176200Y-98165920D02*
X38176200Y-103764080D01*
X38176200Y-103764080D02*
X44373800Y-103764080D01*
X44373800Y-103764080D02*
X44373800Y-98165920D01*
X44373800Y-98165920D02*
X38176200Y-98165920D01*
X38039040Y-144404080D02*
X38039040Y-138805920D01*
X37541200Y-139004040D02*
X38039040Y-139004040D01*
X38039040Y-144205960D02*
X37541200Y-144205960D01*
X37541200Y-141605000D02*
X38039040Y-141605000D01*
X43340020Y-138805920D02*
X43340020Y-144404080D01*
X37541200Y-138805920D02*
X37541200Y-144404080D01*
X37541200Y-144404080D02*
X43738800Y-144404080D01*
X43738800Y-144404080D02*
X43738800Y-138805920D01*
X43738800Y-138805920D02*
X37541200Y-138805920D01*
X52329080Y-143570960D02*
X46730920Y-143570960D01*
X46929040Y-144068800D02*
X46929040Y-143570960D01*
X52130960Y-143570960D02*
X52130960Y-144068800D01*
X49530000Y-144068800D02*
X49530000Y-143570960D01*
X46730920Y-138269980D02*
X52329080Y-138269980D01*
X46730920Y-144068800D02*
X52329080Y-144068800D01*
X52329080Y-144068800D02*
X52329080Y-137871200D01*
X52329080Y-137871200D02*
X46730920Y-137871200D01*
X46730920Y-137871200D02*
X46730920Y-144068800D01*
X38674040Y-111384080D02*
X38674040Y-105785920D01*
X38176200Y-105984040D02*
X38674040Y-105984040D01*
X38674040Y-111185960D02*
X38176200Y-111185960D01*
X38176200Y-108585000D02*
X38674040Y-108585000D01*
X43975020Y-105785920D02*
X43975020Y-111384080D01*
X38176200Y-105785920D02*
X38176200Y-111384080D01*
X38176200Y-111384080D02*
X44373800Y-111384080D01*
X44373800Y-111384080D02*
X44373800Y-105785920D01*
X44373800Y-105785920D02*
X38176200Y-105785920D01*
X84660000Y-42340000D02*
X88060000Y-42340000D01*
X84662944Y-42337056D02*
G75*
G02X86360000Y-38240000I1697056J1697056D01*
G01*
X88057056Y-42337056D02*
G75*
G03X86360000Y-38240000I-1697056J1697056D01*
G01*
X85295000Y-128065000D02*
X88695000Y-128065000D01*
X85297944Y-128062056D02*
G75*
G02X86995000Y-123965000I1697056J1697056D01*
G01*
X88692056Y-128062056D02*
G75*
G03X86995000Y-123965000I-1697056J1697056D01*
G01*
X49565000Y-39130000D02*
X50765000Y-39130000D01*
X50765000Y-40880000D02*
X49565000Y-40880000D01*
X76235000Y-39130000D02*
X77435000Y-39130000D01*
X77435000Y-40880000D02*
X76235000Y-40880000D01*
X88230000Y-47230000D02*
X87030000Y-47230000D01*
X87030000Y-45480000D02*
X88230000Y-45480000D01*
X123790000Y-63105000D02*
X122590000Y-63105000D01*
X122590000Y-61355000D02*
X123790000Y-61355000D01*
X121955000Y-93105000D02*
X123155000Y-93105000D01*
X123155000Y-94855000D02*
X121955000Y-94855000D01*
X85760000Y-129935000D02*
X86960000Y-129935000D01*
X86960000Y-131685000D02*
X85760000Y-131685000D01*
X81675000Y-66640000D02*
X81675000Y-65440000D01*
X83425000Y-65440000D02*
X83425000Y-66640000D01*
X64530000Y-74895000D02*
X64530000Y-73695000D01*
X66280000Y-73695000D02*
X66280000Y-74895000D01*
X77230000Y-66640000D02*
X77230000Y-65440000D01*
X78980000Y-65440000D02*
X78980000Y-66640000D01*
X64530000Y-70450000D02*
X64530000Y-69250000D01*
X66280000Y-69250000D02*
X66280000Y-70450000D01*
X123860000Y-45480000D02*
X125060000Y-45480000D01*
X125060000Y-47230000D02*
X123860000Y-47230000D01*
X119415000Y-45480000D02*
X120615000Y-45480000D01*
X120615000Y-47230000D02*
X119415000Y-47230000D01*
X136560000Y-45480000D02*
X137760000Y-45480000D01*
X137760000Y-47230000D02*
X136560000Y-47230000D01*
X132750000Y-45480000D02*
X133950000Y-45480000D01*
X133950000Y-47230000D02*
X132750000Y-47230000D01*
X150530000Y-45480000D02*
X151730000Y-45480000D01*
X151730000Y-47230000D02*
X150530000Y-47230000D01*
X146085000Y-45480000D02*
X147285000Y-45480000D01*
X147285000Y-47230000D02*
X146085000Y-47230000D01*
X163230000Y-45480000D02*
X164430000Y-45480000D01*
X164430000Y-47230000D02*
X163230000Y-47230000D01*
X159420000Y-45480000D02*
X160620000Y-45480000D01*
X160620000Y-47230000D02*
X159420000Y-47230000D01*
X176565000Y-45480000D02*
X177765000Y-45480000D01*
X177765000Y-47230000D02*
X176565000Y-47230000D01*
X172755000Y-45480000D02*
X173955000Y-45480000D01*
X173955000Y-47230000D02*
X172755000Y-47230000D01*
X120615000Y-52945000D02*
X119415000Y-52945000D01*
X119415000Y-51195000D02*
X120615000Y-51195000D01*
X133950000Y-52945000D02*
X132750000Y-52945000D01*
X132750000Y-51195000D02*
X133950000Y-51195000D01*
X148555000Y-52945000D02*
X147355000Y-52945000D01*
X147355000Y-51195000D02*
X148555000Y-51195000D01*
X161890000Y-52945000D02*
X160690000Y-52945000D01*
X160690000Y-51195000D02*
X161890000Y-51195000D01*
X174590000Y-52945000D02*
X173390000Y-52945000D01*
X173390000Y-51195000D02*
X174590000Y-51195000D01*
X203870000Y-46115000D02*
X205070000Y-46115000D01*
X205070000Y-47865000D02*
X203870000Y-47865000D01*
X199425000Y-46115000D02*
X200625000Y-46115000D01*
X200625000Y-47865000D02*
X199425000Y-47865000D01*
X189900000Y-45480000D02*
X191100000Y-45480000D01*
X191100000Y-47230000D02*
X189900000Y-47230000D01*
X186090000Y-45480000D02*
X187290000Y-45480000D01*
X187290000Y-47230000D02*
X186090000Y-47230000D01*
X212125000Y-46750000D02*
X213325000Y-46750000D01*
X213325000Y-48500000D02*
X212125000Y-48500000D01*
X186090000Y-49925000D02*
X187290000Y-49925000D01*
X187290000Y-51675000D02*
X186090000Y-51675000D01*
X202530000Y-57390000D02*
X201330000Y-57390000D01*
X201330000Y-55640000D02*
X202530000Y-55640000D01*
X188200000Y-57185000D02*
X188200000Y-58385000D01*
X186450000Y-58385000D02*
X186450000Y-57185000D01*
X128295000Y-56490000D02*
X128295000Y-56240000D01*
X128295000Y-56240000D02*
X134595000Y-56240000D01*
X134595000Y-56240000D02*
X134595000Y-56490000D01*
X128295000Y-60990000D02*
X128295000Y-58390000D01*
X134595000Y-62890000D02*
X134595000Y-63140000D01*
X134595000Y-63140000D02*
X128295000Y-63140000D01*
X128295000Y-63140000D02*
X128295000Y-62890000D01*
X134595000Y-58390000D02*
X134595000Y-60990000D01*
X133095000Y-59690000D02*
G75*
G03X133095000Y-59690000I-1650000J0D01*
G01*
X77390000Y-95925000D02*
X76140000Y-95925000D01*
X77390000Y-95925000D02*
X77390000Y-94425000D01*
X67390000Y-95925000D02*
X67390000Y-94425000D01*
X67390000Y-95925000D02*
X68640000Y-95925000D01*
D12*
X86595000Y-86990000D02*
X85335000Y-86990000D01*
X79775000Y-86990000D02*
X81035000Y-86990000D01*
X86595000Y-90750000D02*
X86595000Y-86990000D01*
X79775000Y-93000000D02*
X79775000Y-86990000D01*
D11*
X70150000Y-70875000D02*
X70150000Y-71450000D01*
X75900000Y-70875000D02*
X75900000Y-71525000D01*
X75900000Y-81525000D02*
X75900000Y-80875000D01*
X70150000Y-81525000D02*
X70150000Y-80875000D01*
X70150000Y-70875000D02*
X75900000Y-70875000D01*
X70150000Y-81525000D02*
X75900000Y-81525000D01*
X70150000Y-71450000D02*
X68550000Y-71450000D01*
X213750000Y-51570000D02*
X212480000Y-51570000D01*
X213750000Y-58920000D02*
X212480000Y-58920000D01*
X204080000Y-58920000D02*
X205350000Y-58920000D01*
X204080000Y-51570000D02*
X205350000Y-51570000D01*
X213750000Y-51570000D02*
X213750000Y-58920000D01*
X204080000Y-51570000D02*
X204080000Y-58920000D01*
X212480000Y-51570000D02*
X212480000Y-50635000D01*
X199145000Y-51570000D02*
X197875000Y-51570000D01*
X199145000Y-58920000D02*
X197875000Y-58920000D01*
X189475000Y-58920000D02*
X190745000Y-58920000D01*
X189475000Y-51570000D02*
X190745000Y-51570000D01*
X199145000Y-51570000D02*
X199145000Y-58920000D01*
X189475000Y-51570000D02*
X189475000Y-58920000D01*
X197875000Y-51570000D02*
X197875000Y-50635000D01*
X120659591Y-101849359D02*
X132358831Y-101849359D01*
X132358831Y-96850639D02*
X120659591Y-96850639D01*
X132358831Y-101849359D02*
X132358831Y-101000999D01*
X132358831Y-96850639D02*
X132358831Y-97698999D01*
X120659591Y-101849359D02*
X120659591Y-101000999D01*
X120659591Y-96850639D02*
X120659591Y-97698999D01*
X46228261Y-119403572D02*
X45228261Y-119403572D01*
X45228261Y-119022619D01*
X45275880Y-118927381D01*
X45323499Y-118879762D01*
X45418737Y-118832143D01*
X45561594Y-118832143D01*
X45656832Y-118879762D01*
X45704451Y-118927381D01*
X45752070Y-119022619D01*
X45752070Y-119403572D01*
X46228261Y-118260715D02*
X46180642Y-118355953D01*
X46133023Y-118403572D01*
X46037785Y-118451191D01*
X45752070Y-118451191D01*
X45656832Y-118403572D01*
X45609213Y-118355953D01*
X45561594Y-118260715D01*
X45561594Y-118117857D01*
X45609213Y-118022619D01*
X45656832Y-117975000D01*
X45752070Y-117927381D01*
X46037785Y-117927381D01*
X46133023Y-117975000D01*
X46180642Y-118022619D01*
X46228261Y-118117857D01*
X46228261Y-118260715D01*
X45561594Y-117070238D02*
X46228261Y-117070238D01*
X45561594Y-117498810D02*
X46085404Y-117498810D01*
X46180642Y-117451191D01*
X46228261Y-117355953D01*
X46228261Y-117213095D01*
X46180642Y-117117857D01*
X46133023Y-117070238D01*
X45561594Y-116736905D02*
X45561594Y-116355953D01*
X45228261Y-116594048D02*
X46085404Y-116594048D01*
X46180642Y-116546429D01*
X46228261Y-116451191D01*
X46228261Y-116355953D01*
X46228261Y-115498809D02*
X46228261Y-116070238D01*
X46228261Y-115784524D02*
X45228261Y-115784524D01*
X45371118Y-115879762D01*
X45466356Y-115975000D01*
X45513975Y-116070238D01*
X129413095Y-71917381D02*
X129413095Y-72726905D01*
X129460714Y-72822143D01*
X129508333Y-72869762D01*
X129603571Y-72917381D01*
X129794048Y-72917381D01*
X129889286Y-72869762D01*
X129936905Y-72822143D01*
X129984524Y-72726905D01*
X129984524Y-71917381D01*
X130365476Y-71917381D02*
X130984524Y-71917381D01*
X130651190Y-72298333D01*
X130794048Y-72298333D01*
X130889286Y-72345952D01*
X130936905Y-72393571D01*
X130984524Y-72488810D01*
X130984524Y-72726905D01*
X130936905Y-72822143D01*
X130889286Y-72869762D01*
X130794048Y-72917381D01*
X130508333Y-72917381D01*
X130413095Y-72869762D01*
X130365476Y-72822143D01*
X54082143Y-101111666D02*
X54129762Y-101159285D01*
X54177381Y-101302142D01*
X54177381Y-101397380D01*
X54129762Y-101540238D01*
X54034524Y-101635476D01*
X53939286Y-101683095D01*
X53748810Y-101730714D01*
X53605952Y-101730714D01*
X53415476Y-101683095D01*
X53320238Y-101635476D01*
X53225000Y-101540238D01*
X53177381Y-101397380D01*
X53177381Y-101302142D01*
X53225000Y-101159285D01*
X53272619Y-101111666D01*
X54177381Y-100159285D02*
X54177381Y-100730714D01*
X54177381Y-100445000D02*
X53177381Y-100445000D01*
X53320238Y-100540238D01*
X53415476Y-100635476D01*
X53463095Y-100730714D01*
X87737143Y-98571666D02*
X87784762Y-98619285D01*
X87832381Y-98762142D01*
X87832381Y-98857380D01*
X87784762Y-99000238D01*
X87689524Y-99095476D01*
X87594286Y-99143095D01*
X87403810Y-99190714D01*
X87260952Y-99190714D01*
X87070476Y-99143095D01*
X86975238Y-99095476D01*
X86880000Y-99000238D01*
X86832381Y-98857380D01*
X86832381Y-98762142D01*
X86880000Y-98619285D01*
X86927619Y-98571666D01*
X86927619Y-98190714D02*
X86880000Y-98143095D01*
X86832381Y-98047857D01*
X86832381Y-97809761D01*
X86880000Y-97714523D01*
X86927619Y-97666904D01*
X87022857Y-97619285D01*
X87118095Y-97619285D01*
X87260952Y-97666904D01*
X87832381Y-98238333D01*
X87832381Y-97619285D01*
X87967143Y-111921666D02*
X88014762Y-111969285D01*
X88062381Y-112112142D01*
X88062381Y-112207380D01*
X88014762Y-112350238D01*
X87919524Y-112445476D01*
X87824286Y-112493095D01*
X87633810Y-112540714D01*
X87490952Y-112540714D01*
X87300476Y-112493095D01*
X87205238Y-112445476D01*
X87110000Y-112350238D01*
X87062381Y-112207380D01*
X87062381Y-112112142D01*
X87110000Y-111969285D01*
X87157619Y-111921666D01*
X87062381Y-111588333D02*
X87062381Y-110969285D01*
X87443333Y-111302619D01*
X87443333Y-111159761D01*
X87490952Y-111064523D01*
X87538571Y-111016904D01*
X87633810Y-110969285D01*
X87871905Y-110969285D01*
X87967143Y-111016904D01*
X88014762Y-111064523D01*
X88062381Y-111159761D01*
X88062381Y-111445476D01*
X88014762Y-111540714D01*
X87967143Y-111588333D01*
X91992143Y-94146666D02*
X92039762Y-94194285D01*
X92087381Y-94337142D01*
X92087381Y-94432380D01*
X92039762Y-94575238D01*
X91944524Y-94670476D01*
X91849286Y-94718095D01*
X91658810Y-94765714D01*
X91515952Y-94765714D01*
X91325476Y-94718095D01*
X91230238Y-94670476D01*
X91135000Y-94575238D01*
X91087381Y-94432380D01*
X91087381Y-94337142D01*
X91135000Y-94194285D01*
X91182619Y-94146666D01*
X91420714Y-93289523D02*
X92087381Y-93289523D01*
X91039762Y-93527619D02*
X91754048Y-93765714D01*
X91754048Y-93146666D01*
X77172143Y-111921666D02*
X77219762Y-111969285D01*
X77267381Y-112112142D01*
X77267381Y-112207380D01*
X77219762Y-112350238D01*
X77124524Y-112445476D01*
X77029286Y-112493095D01*
X76838810Y-112540714D01*
X76695952Y-112540714D01*
X76505476Y-112493095D01*
X76410238Y-112445476D01*
X76315000Y-112350238D01*
X76267381Y-112207380D01*
X76267381Y-112112142D01*
X76315000Y-111969285D01*
X76362619Y-111921666D01*
X76267381Y-111016904D02*
X76267381Y-111493095D01*
X76743571Y-111540714D01*
X76695952Y-111493095D01*
X76648333Y-111397857D01*
X76648333Y-111159761D01*
X76695952Y-111064523D01*
X76743571Y-111016904D01*
X76838810Y-110969285D01*
X77076905Y-110969285D01*
X77172143Y-111016904D01*
X77219762Y-111064523D01*
X77267381Y-111159761D01*
X77267381Y-111397857D01*
X77219762Y-111493095D01*
X77172143Y-111540714D01*
X123293334Y-103667143D02*
X123245715Y-103714762D01*
X123102858Y-103762381D01*
X123007620Y-103762381D01*
X122864762Y-103714762D01*
X122769524Y-103619524D01*
X122721905Y-103524286D01*
X122674286Y-103333810D01*
X122674286Y-103190952D01*
X122721905Y-103000476D01*
X122769524Y-102905238D01*
X122864762Y-102810000D01*
X123007620Y-102762381D01*
X123102858Y-102762381D01*
X123245715Y-102810000D01*
X123293334Y-102857619D01*
X124150477Y-102762381D02*
X123960000Y-102762381D01*
X123864762Y-102810000D01*
X123817143Y-102857619D01*
X123721905Y-103000476D01*
X123674286Y-103190952D01*
X123674286Y-103571905D01*
X123721905Y-103667143D01*
X123769524Y-103714762D01*
X123864762Y-103762381D01*
X124055239Y-103762381D01*
X124150477Y-103714762D01*
X124198096Y-103667143D01*
X124245715Y-103571905D01*
X124245715Y-103333810D01*
X124198096Y-103238571D01*
X124150477Y-103190952D01*
X124055239Y-103143333D01*
X123864762Y-103143333D01*
X123769524Y-103190952D01*
X123721905Y-103238571D01*
X123674286Y-103333810D01*
X130008334Y-106597143D02*
X129960715Y-106644762D01*
X129817858Y-106692381D01*
X129722620Y-106692381D01*
X129579762Y-106644762D01*
X129484524Y-106549524D01*
X129436905Y-106454286D01*
X129389286Y-106263810D01*
X129389286Y-106120952D01*
X129436905Y-105930476D01*
X129484524Y-105835238D01*
X129579762Y-105740000D01*
X129722620Y-105692381D01*
X129817858Y-105692381D01*
X129960715Y-105740000D01*
X130008334Y-105787619D01*
X130341667Y-105692381D02*
X131008334Y-105692381D01*
X130579762Y-106692381D01*
X123023334Y-59607143D02*
X122975715Y-59654762D01*
X122832858Y-59702381D01*
X122737620Y-59702381D01*
X122594762Y-59654762D01*
X122499524Y-59559524D01*
X122451905Y-59464286D01*
X122404286Y-59273810D01*
X122404286Y-59130952D01*
X122451905Y-58940476D01*
X122499524Y-58845238D01*
X122594762Y-58750000D01*
X122737620Y-58702381D01*
X122832858Y-58702381D01*
X122975715Y-58750000D01*
X123023334Y-58797619D01*
X123594762Y-59130952D02*
X123499524Y-59083333D01*
X123451905Y-59035714D01*
X123404286Y-58940476D01*
X123404286Y-58892857D01*
X123451905Y-58797619D01*
X123499524Y-58750000D01*
X123594762Y-58702381D01*
X123785239Y-58702381D01*
X123880477Y-58750000D01*
X123928096Y-58797619D01*
X123975715Y-58892857D01*
X123975715Y-58940476D01*
X123928096Y-59035714D01*
X123880477Y-59083333D01*
X123785239Y-59130952D01*
X123594762Y-59130952D01*
X123499524Y-59178571D01*
X123451905Y-59226190D01*
X123404286Y-59321429D01*
X123404286Y-59511905D01*
X123451905Y-59607143D01*
X123499524Y-59654762D01*
X123594762Y-59702381D01*
X123785239Y-59702381D01*
X123880477Y-59654762D01*
X123928096Y-59607143D01*
X123975715Y-59511905D01*
X123975715Y-59321429D01*
X123928096Y-59226190D01*
X123880477Y-59178571D01*
X123785239Y-59130952D01*
X123352143Y-67476666D02*
X123399762Y-67524285D01*
X123447381Y-67667142D01*
X123447381Y-67762380D01*
X123399762Y-67905238D01*
X123304524Y-68000476D01*
X123209286Y-68048095D01*
X123018810Y-68095714D01*
X122875952Y-68095714D01*
X122685476Y-68048095D01*
X122590238Y-68000476D01*
X122495000Y-67905238D01*
X122447381Y-67762380D01*
X122447381Y-67667142D01*
X122495000Y-67524285D01*
X122542619Y-67476666D01*
X123447381Y-67000476D02*
X123447381Y-66810000D01*
X123399762Y-66714761D01*
X123352143Y-66667142D01*
X123209286Y-66571904D01*
X123018810Y-66524285D01*
X122637857Y-66524285D01*
X122542619Y-66571904D01*
X122495000Y-66619523D01*
X122447381Y-66714761D01*
X122447381Y-66905238D01*
X122495000Y-67000476D01*
X122542619Y-67048095D01*
X122637857Y-67095714D01*
X122875952Y-67095714D01*
X122971190Y-67048095D01*
X123018810Y-67000476D01*
X123066429Y-66905238D01*
X123066429Y-66714761D01*
X123018810Y-66619523D01*
X122971190Y-66571904D01*
X122875952Y-66524285D01*
X134782143Y-67952857D02*
X134829762Y-68000476D01*
X134877381Y-68143333D01*
X134877381Y-68238571D01*
X134829762Y-68381429D01*
X134734524Y-68476667D01*
X134639286Y-68524286D01*
X134448810Y-68571905D01*
X134305952Y-68571905D01*
X134115476Y-68524286D01*
X134020238Y-68476667D01*
X133925000Y-68381429D01*
X133877381Y-68238571D01*
X133877381Y-68143333D01*
X133925000Y-68000476D01*
X133972619Y-67952857D01*
X134877381Y-67000476D02*
X134877381Y-67571905D01*
X134877381Y-67286191D02*
X133877381Y-67286191D01*
X134020238Y-67381429D01*
X134115476Y-67476667D01*
X134163095Y-67571905D01*
X133877381Y-66381429D02*
X133877381Y-66286190D01*
X133925000Y-66190952D01*
X133972619Y-66143333D01*
X134067857Y-66095714D01*
X134258333Y-66048095D01*
X134496429Y-66048095D01*
X134686905Y-66095714D01*
X134782143Y-66143333D01*
X134829762Y-66190952D01*
X134877381Y-66286190D01*
X134877381Y-66381429D01*
X134829762Y-66476667D01*
X134782143Y-66524286D01*
X134686905Y-66571905D01*
X134496429Y-66619524D01*
X134258333Y-66619524D01*
X134067857Y-66571905D01*
X133972619Y-66524286D01*
X133925000Y-66476667D01*
X133877381Y-66381429D01*
X130972143Y-67952857D02*
X131019762Y-68000476D01*
X131067381Y-68143333D01*
X131067381Y-68238571D01*
X131019762Y-68381429D01*
X130924524Y-68476667D01*
X130829286Y-68524286D01*
X130638810Y-68571905D01*
X130495952Y-68571905D01*
X130305476Y-68524286D01*
X130210238Y-68476667D01*
X130115000Y-68381429D01*
X130067381Y-68238571D01*
X130067381Y-68143333D01*
X130115000Y-68000476D01*
X130162619Y-67952857D01*
X131067381Y-67000476D02*
X131067381Y-67571905D01*
X131067381Y-67286191D02*
X130067381Y-67286191D01*
X130210238Y-67381429D01*
X130305476Y-67476667D01*
X130353095Y-67571905D01*
X131067381Y-66048095D02*
X131067381Y-66619524D01*
X131067381Y-66333810D02*
X130067381Y-66333810D01*
X130210238Y-66429048D01*
X130305476Y-66524286D01*
X130353095Y-66619524D01*
X127162143Y-67952857D02*
X127209762Y-68000476D01*
X127257381Y-68143333D01*
X127257381Y-68238571D01*
X127209762Y-68381429D01*
X127114524Y-68476667D01*
X127019286Y-68524286D01*
X126828810Y-68571905D01*
X126685952Y-68571905D01*
X126495476Y-68524286D01*
X126400238Y-68476667D01*
X126305000Y-68381429D01*
X126257381Y-68238571D01*
X126257381Y-68143333D01*
X126305000Y-68000476D01*
X126352619Y-67952857D01*
X127257381Y-67000476D02*
X127257381Y-67571905D01*
X127257381Y-67286191D02*
X126257381Y-67286191D01*
X126400238Y-67381429D01*
X126495476Y-67476667D01*
X126543095Y-67571905D01*
X126352619Y-66619524D02*
X126305000Y-66571905D01*
X126257381Y-66476667D01*
X126257381Y-66238571D01*
X126305000Y-66143333D01*
X126352619Y-66095714D01*
X126447857Y-66048095D01*
X126543095Y-66048095D01*
X126685952Y-66095714D01*
X127257381Y-66667143D01*
X127257381Y-66048095D01*
X79537143Y-78112857D02*
X79584762Y-78160476D01*
X79632381Y-78303333D01*
X79632381Y-78398571D01*
X79584762Y-78541429D01*
X79489524Y-78636667D01*
X79394286Y-78684286D01*
X79203810Y-78731905D01*
X79060952Y-78731905D01*
X78870476Y-78684286D01*
X78775238Y-78636667D01*
X78680000Y-78541429D01*
X78632381Y-78398571D01*
X78632381Y-78303333D01*
X78680000Y-78160476D01*
X78727619Y-78112857D01*
X79632381Y-77160476D02*
X79632381Y-77731905D01*
X79632381Y-77446191D02*
X78632381Y-77446191D01*
X78775238Y-77541429D01*
X78870476Y-77636667D01*
X78918095Y-77731905D01*
X78632381Y-76827143D02*
X78632381Y-76208095D01*
X79013333Y-76541429D01*
X79013333Y-76398571D01*
X79060952Y-76303333D01*
X79108571Y-76255714D01*
X79203810Y-76208095D01*
X79441905Y-76208095D01*
X79537143Y-76255714D01*
X79584762Y-76303333D01*
X79632381Y-76398571D01*
X79632381Y-76684286D01*
X79584762Y-76779524D01*
X79537143Y-76827143D01*
X59682143Y-73187143D02*
X59634524Y-73234762D01*
X59491667Y-73282381D01*
X59396429Y-73282381D01*
X59253571Y-73234762D01*
X59158333Y-73139524D01*
X59110714Y-73044286D01*
X59063095Y-72853810D01*
X59063095Y-72710952D01*
X59110714Y-72520476D01*
X59158333Y-72425238D01*
X59253571Y-72330000D01*
X59396429Y-72282381D01*
X59491667Y-72282381D01*
X59634524Y-72330000D01*
X59682143Y-72377619D01*
X60634524Y-73282381D02*
X60063095Y-73282381D01*
X60348809Y-73282381D02*
X60348809Y-72282381D01*
X60253571Y-72425238D01*
X60158333Y-72520476D01*
X60063095Y-72568095D01*
X61491667Y-72615714D02*
X61491667Y-73282381D01*
X61253571Y-72234762D02*
X61015476Y-72949048D01*
X61634524Y-72949048D01*
X59682143Y-69377143D02*
X59634524Y-69424762D01*
X59491667Y-69472381D01*
X59396429Y-69472381D01*
X59253571Y-69424762D01*
X59158333Y-69329524D01*
X59110714Y-69234286D01*
X59063095Y-69043810D01*
X59063095Y-68900952D01*
X59110714Y-68710476D01*
X59158333Y-68615238D01*
X59253571Y-68520000D01*
X59396429Y-68472381D01*
X59491667Y-68472381D01*
X59634524Y-68520000D01*
X59682143Y-68567619D01*
X60634524Y-69472381D02*
X60063095Y-69472381D01*
X60348809Y-69472381D02*
X60348809Y-68472381D01*
X60253571Y-68615238D01*
X60158333Y-68710476D01*
X60063095Y-68758095D01*
X61539286Y-68472381D02*
X61063095Y-68472381D01*
X61015476Y-68948571D01*
X61063095Y-68900952D01*
X61158333Y-68853333D01*
X61396429Y-68853333D01*
X61491667Y-68900952D01*
X61539286Y-68948571D01*
X61586905Y-69043810D01*
X61586905Y-69281905D01*
X61539286Y-69377143D01*
X61491667Y-69424762D01*
X61396429Y-69472381D01*
X61158333Y-69472381D01*
X61063095Y-69424762D01*
X61015476Y-69377143D01*
X68572143Y-69132143D02*
X68524524Y-69179762D01*
X68381667Y-69227381D01*
X68286429Y-69227381D01*
X68143571Y-69179762D01*
X68048333Y-69084524D01*
X68000714Y-68989286D01*
X67953095Y-68798810D01*
X67953095Y-68655952D01*
X68000714Y-68465476D01*
X68048333Y-68370238D01*
X68143571Y-68275000D01*
X68286429Y-68227381D01*
X68381667Y-68227381D01*
X68524524Y-68275000D01*
X68572143Y-68322619D01*
X69524524Y-69227381D02*
X68953095Y-69227381D01*
X69238809Y-69227381D02*
X69238809Y-68227381D01*
X69143571Y-68370238D01*
X69048333Y-68465476D01*
X68953095Y-68513095D01*
X70381667Y-68227381D02*
X70191190Y-68227381D01*
X70095952Y-68275000D01*
X70048333Y-68322619D01*
X69953095Y-68465476D01*
X69905476Y-68655952D01*
X69905476Y-69036905D01*
X69953095Y-69132143D01*
X70000714Y-69179762D01*
X70095952Y-69227381D01*
X70286429Y-69227381D01*
X70381667Y-69179762D01*
X70429286Y-69132143D01*
X70476905Y-69036905D01*
X70476905Y-68798810D01*
X70429286Y-68703571D01*
X70381667Y-68655952D01*
X70286429Y-68608333D01*
X70095952Y-68608333D01*
X70000714Y-68655952D01*
X69953095Y-68703571D01*
X69905476Y-68798810D01*
X127797143Y-51442857D02*
X127844762Y-51490476D01*
X127892381Y-51633333D01*
X127892381Y-51728571D01*
X127844762Y-51871429D01*
X127749524Y-51966667D01*
X127654286Y-52014286D01*
X127463810Y-52061905D01*
X127320952Y-52061905D01*
X127130476Y-52014286D01*
X127035238Y-51966667D01*
X126940000Y-51871429D01*
X126892381Y-51728571D01*
X126892381Y-51633333D01*
X126940000Y-51490476D01*
X126987619Y-51442857D01*
X127892381Y-50490476D02*
X127892381Y-51061905D01*
X127892381Y-50776191D02*
X126892381Y-50776191D01*
X127035238Y-50871429D01*
X127130476Y-50966667D01*
X127178095Y-51061905D01*
X126892381Y-50157143D02*
X126892381Y-49490476D01*
X127892381Y-49919048D01*
X145332143Y-51442857D02*
X145379762Y-51490476D01*
X145427381Y-51633333D01*
X145427381Y-51728571D01*
X145379762Y-51871429D01*
X145284524Y-51966667D01*
X145189286Y-52014286D01*
X144998810Y-52061905D01*
X144855952Y-52061905D01*
X144665476Y-52014286D01*
X144570238Y-51966667D01*
X144475000Y-51871429D01*
X144427381Y-51728571D01*
X144427381Y-51633333D01*
X144475000Y-51490476D01*
X144522619Y-51442857D01*
X145427381Y-50490476D02*
X145427381Y-51061905D01*
X145427381Y-50776191D02*
X144427381Y-50776191D01*
X144570238Y-50871429D01*
X144665476Y-50966667D01*
X144713095Y-51061905D01*
X144855952Y-49919048D02*
X144808333Y-50014286D01*
X144760714Y-50061905D01*
X144665476Y-50109524D01*
X144617857Y-50109524D01*
X144522619Y-50061905D01*
X144475000Y-50014286D01*
X144427381Y-49919048D01*
X144427381Y-49728571D01*
X144475000Y-49633333D01*
X144522619Y-49585714D01*
X144617857Y-49538095D01*
X144665476Y-49538095D01*
X144760714Y-49585714D01*
X144808333Y-49633333D01*
X144855952Y-49728571D01*
X144855952Y-49919048D01*
X144903571Y-50014286D01*
X144951190Y-50061905D01*
X145046429Y-50109524D01*
X145236905Y-50109524D01*
X145332143Y-50061905D01*
X145379762Y-50014286D01*
X145427381Y-49919048D01*
X145427381Y-49728571D01*
X145379762Y-49633333D01*
X145332143Y-49585714D01*
X145236905Y-49538095D01*
X145046429Y-49538095D01*
X144951190Y-49585714D01*
X144903571Y-49633333D01*
X144855952Y-49728571D01*
X159302143Y-51442857D02*
X159349762Y-51490476D01*
X159397381Y-51633333D01*
X159397381Y-51728571D01*
X159349762Y-51871429D01*
X159254524Y-51966667D01*
X159159286Y-52014286D01*
X158968810Y-52061905D01*
X158825952Y-52061905D01*
X158635476Y-52014286D01*
X158540238Y-51966667D01*
X158445000Y-51871429D01*
X158397381Y-51728571D01*
X158397381Y-51633333D01*
X158445000Y-51490476D01*
X158492619Y-51442857D01*
X159397381Y-50490476D02*
X159397381Y-51061905D01*
X159397381Y-50776191D02*
X158397381Y-50776191D01*
X158540238Y-50871429D01*
X158635476Y-50966667D01*
X158683095Y-51061905D01*
X159397381Y-50014286D02*
X159397381Y-49823810D01*
X159349762Y-49728571D01*
X159302143Y-49680952D01*
X159159286Y-49585714D01*
X158968810Y-49538095D01*
X158587857Y-49538095D01*
X158492619Y-49585714D01*
X158445000Y-49633333D01*
X158397381Y-49728571D01*
X158397381Y-49919048D01*
X158445000Y-50014286D01*
X158492619Y-50061905D01*
X158587857Y-50109524D01*
X158825952Y-50109524D01*
X158921190Y-50061905D01*
X158968810Y-50014286D01*
X159016429Y-49919048D01*
X159016429Y-49728571D01*
X158968810Y-49633333D01*
X158921190Y-49585714D01*
X158825952Y-49538095D01*
X172002143Y-50807857D02*
X172049762Y-50855476D01*
X172097381Y-50998333D01*
X172097381Y-51093571D01*
X172049762Y-51236429D01*
X171954524Y-51331667D01*
X171859286Y-51379286D01*
X171668810Y-51426905D01*
X171525952Y-51426905D01*
X171335476Y-51379286D01*
X171240238Y-51331667D01*
X171145000Y-51236429D01*
X171097381Y-51093571D01*
X171097381Y-50998333D01*
X171145000Y-50855476D01*
X171192619Y-50807857D01*
X171192619Y-50426905D02*
X171145000Y-50379286D01*
X171097381Y-50284048D01*
X171097381Y-50045952D01*
X171145000Y-49950714D01*
X171192619Y-49903095D01*
X171287857Y-49855476D01*
X171383095Y-49855476D01*
X171525952Y-49903095D01*
X172097381Y-50474524D01*
X172097381Y-49855476D01*
X171097381Y-49236429D02*
X171097381Y-49141190D01*
X171145000Y-49045952D01*
X171192619Y-48998333D01*
X171287857Y-48950714D01*
X171478333Y-48903095D01*
X171716429Y-48903095D01*
X171906905Y-48950714D01*
X172002143Y-48998333D01*
X172049762Y-49045952D01*
X172097381Y-49141190D01*
X172097381Y-49236429D01*
X172049762Y-49331667D01*
X172002143Y-49379286D01*
X171906905Y-49426905D01*
X171716429Y-49474524D01*
X171478333Y-49474524D01*
X171287857Y-49426905D01*
X171192619Y-49379286D01*
X171145000Y-49331667D01*
X171097381Y-49236429D01*
X184702143Y-51442857D02*
X184749762Y-51490476D01*
X184797381Y-51633333D01*
X184797381Y-51728571D01*
X184749762Y-51871429D01*
X184654524Y-51966667D01*
X184559286Y-52014286D01*
X184368810Y-52061905D01*
X184225952Y-52061905D01*
X184035476Y-52014286D01*
X183940238Y-51966667D01*
X183845000Y-51871429D01*
X183797381Y-51728571D01*
X183797381Y-51633333D01*
X183845000Y-51490476D01*
X183892619Y-51442857D01*
X183892619Y-51061905D02*
X183845000Y-51014286D01*
X183797381Y-50919048D01*
X183797381Y-50680952D01*
X183845000Y-50585714D01*
X183892619Y-50538095D01*
X183987857Y-50490476D01*
X184083095Y-50490476D01*
X184225952Y-50538095D01*
X184797381Y-51109524D01*
X184797381Y-50490476D01*
X184797381Y-49538095D02*
X184797381Y-50109524D01*
X184797381Y-49823810D02*
X183797381Y-49823810D01*
X183940238Y-49919048D01*
X184035476Y-50014286D01*
X184083095Y-50109524D01*
X201287143Y-64297143D02*
X201239524Y-64344762D01*
X201096667Y-64392381D01*
X201001429Y-64392381D01*
X200858571Y-64344762D01*
X200763333Y-64249524D01*
X200715714Y-64154286D01*
X200668095Y-63963810D01*
X200668095Y-63820952D01*
X200715714Y-63630476D01*
X200763333Y-63535238D01*
X200858571Y-63440000D01*
X201001429Y-63392381D01*
X201096667Y-63392381D01*
X201239524Y-63440000D01*
X201287143Y-63487619D01*
X201668095Y-63487619D02*
X201715714Y-63440000D01*
X201810952Y-63392381D01*
X202049048Y-63392381D01*
X202144286Y-63440000D01*
X202191905Y-63487619D01*
X202239524Y-63582857D01*
X202239524Y-63678095D01*
X202191905Y-63820952D01*
X201620476Y-64392381D01*
X202239524Y-64392381D01*
X202620476Y-63487619D02*
X202668095Y-63440000D01*
X202763333Y-63392381D01*
X203001429Y-63392381D01*
X203096667Y-63440000D01*
X203144286Y-63487619D01*
X203191905Y-63582857D01*
X203191905Y-63678095D01*
X203144286Y-63820952D01*
X202572857Y-64392381D01*
X203191905Y-64392381D01*
X181602143Y-62147143D02*
X181554524Y-62194762D01*
X181411667Y-62242381D01*
X181316429Y-62242381D01*
X181173571Y-62194762D01*
X181078333Y-62099524D01*
X181030714Y-62004286D01*
X180983095Y-61813810D01*
X180983095Y-61670952D01*
X181030714Y-61480476D01*
X181078333Y-61385238D01*
X181173571Y-61290000D01*
X181316429Y-61242381D01*
X181411667Y-61242381D01*
X181554524Y-61290000D01*
X181602143Y-61337619D01*
X181983095Y-61337619D02*
X182030714Y-61290000D01*
X182125952Y-61242381D01*
X182364048Y-61242381D01*
X182459286Y-61290000D01*
X182506905Y-61337619D01*
X182554524Y-61432857D01*
X182554524Y-61528095D01*
X182506905Y-61670952D01*
X181935476Y-62242381D01*
X182554524Y-62242381D01*
X182887857Y-61242381D02*
X183506905Y-61242381D01*
X183173571Y-61623333D01*
X183316429Y-61623333D01*
X183411667Y-61670952D01*
X183459286Y-61718571D01*
X183506905Y-61813810D01*
X183506905Y-62051905D01*
X183459286Y-62147143D01*
X183411667Y-62194762D01*
X183316429Y-62242381D01*
X183030714Y-62242381D01*
X182935476Y-62194762D01*
X182887857Y-62147143D01*
X58951905Y-90492381D02*
X58951905Y-89492381D01*
X59190000Y-89492381D01*
X59332858Y-89540000D01*
X59428096Y-89635238D01*
X59475715Y-89730476D01*
X59523334Y-89920952D01*
X59523334Y-90063810D01*
X59475715Y-90254286D01*
X59428096Y-90349524D01*
X59332858Y-90444762D01*
X59190000Y-90492381D01*
X58951905Y-90492381D01*
X60475715Y-90492381D02*
X59904286Y-90492381D01*
X60190000Y-90492381D02*
X60190000Y-89492381D01*
X60094762Y-89635238D01*
X59999524Y-89730476D01*
X59904286Y-89778095D01*
X58951905Y-95572381D02*
X58951905Y-94572381D01*
X59190000Y-94572381D01*
X59332858Y-94620000D01*
X59428096Y-94715238D01*
X59475715Y-94810476D01*
X59523334Y-95000952D01*
X59523334Y-95143810D01*
X59475715Y-95334286D01*
X59428096Y-95429524D01*
X59332858Y-95524762D01*
X59190000Y-95572381D01*
X58951905Y-95572381D01*
X59904286Y-94667619D02*
X59951905Y-94620000D01*
X60047143Y-94572381D01*
X60285239Y-94572381D01*
X60380477Y-94620000D01*
X60428096Y-94667619D01*
X60475715Y-94762857D01*
X60475715Y-94858095D01*
X60428096Y-95000952D01*
X59856667Y-95572381D01*
X60475715Y-95572381D01*
X54032381Y-104243095D02*
X53032381Y-104243095D01*
X53032381Y-104005000D01*
X53080000Y-103862142D01*
X53175238Y-103766904D01*
X53270476Y-103719285D01*
X53460952Y-103671666D01*
X53603810Y-103671666D01*
X53794286Y-103719285D01*
X53889524Y-103766904D01*
X53984762Y-103862142D01*
X54032381Y-104005000D01*
X54032381Y-104243095D01*
X53032381Y-103338333D02*
X53032381Y-102719285D01*
X53413333Y-103052619D01*
X53413333Y-102909761D01*
X53460952Y-102814523D01*
X53508571Y-102766904D01*
X53603810Y-102719285D01*
X53841905Y-102719285D01*
X53937143Y-102766904D01*
X53984762Y-102814523D01*
X54032381Y-102909761D01*
X54032381Y-103195476D01*
X53984762Y-103290714D01*
X53937143Y-103338333D01*
X116812381Y-95353095D02*
X115812381Y-95353095D01*
X115812381Y-95115000D01*
X115860000Y-94972142D01*
X115955238Y-94876904D01*
X116050476Y-94829285D01*
X116240952Y-94781666D01*
X116383810Y-94781666D01*
X116574286Y-94829285D01*
X116669524Y-94876904D01*
X116764762Y-94972142D01*
X116812381Y-95115000D01*
X116812381Y-95353095D01*
X116145714Y-93924523D02*
X116812381Y-93924523D01*
X115764762Y-94162619D02*
X116479048Y-94400714D01*
X116479048Y-93781666D01*
X85621905Y-71727381D02*
X85621905Y-70727381D01*
X85860000Y-70727381D01*
X86002858Y-70775000D01*
X86098096Y-70870238D01*
X86145715Y-70965476D01*
X86193334Y-71155952D01*
X86193334Y-71298810D01*
X86145715Y-71489286D01*
X86098096Y-71584524D01*
X86002858Y-71679762D01*
X85860000Y-71727381D01*
X85621905Y-71727381D01*
X87098096Y-70727381D02*
X86621905Y-70727381D01*
X86574286Y-71203571D01*
X86621905Y-71155952D01*
X86717143Y-71108333D01*
X86955239Y-71108333D01*
X87050477Y-71155952D01*
X87098096Y-71203571D01*
X87145715Y-71298810D01*
X87145715Y-71536905D01*
X87098096Y-71632143D01*
X87050477Y-71679762D01*
X86955239Y-71727381D01*
X86717143Y-71727381D01*
X86621905Y-71679762D01*
X86574286Y-71632143D01*
X81176905Y-71727381D02*
X81176905Y-70727381D01*
X81415000Y-70727381D01*
X81557858Y-70775000D01*
X81653096Y-70870238D01*
X81700715Y-70965476D01*
X81748334Y-71155952D01*
X81748334Y-71298810D01*
X81700715Y-71489286D01*
X81653096Y-71584524D01*
X81557858Y-71679762D01*
X81415000Y-71727381D01*
X81176905Y-71727381D01*
X82605477Y-70727381D02*
X82415000Y-70727381D01*
X82319762Y-70775000D01*
X82272143Y-70822619D01*
X82176905Y-70965476D01*
X82129286Y-71155952D01*
X82129286Y-71536905D01*
X82176905Y-71632143D01*
X82224524Y-71679762D01*
X82319762Y-71727381D01*
X82510239Y-71727381D01*
X82605477Y-71679762D01*
X82653096Y-71632143D01*
X82700715Y-71536905D01*
X82700715Y-71298810D01*
X82653096Y-71203571D01*
X82605477Y-71155952D01*
X82510239Y-71108333D01*
X82319762Y-71108333D01*
X82224524Y-71155952D01*
X82176905Y-71203571D01*
X82129286Y-71298810D01*
X123721905Y-50222381D02*
X123721905Y-49222381D01*
X123960000Y-49222381D01*
X124102858Y-49270000D01*
X124198096Y-49365238D01*
X124245715Y-49460476D01*
X124293334Y-49650952D01*
X124293334Y-49793810D01*
X124245715Y-49984286D01*
X124198096Y-50079524D01*
X124102858Y-50174762D01*
X123960000Y-50222381D01*
X123721905Y-50222381D01*
X124626667Y-49222381D02*
X125293334Y-49222381D01*
X124864762Y-50222381D01*
X137691905Y-50222381D02*
X137691905Y-49222381D01*
X137930000Y-49222381D01*
X138072858Y-49270000D01*
X138168096Y-49365238D01*
X138215715Y-49460476D01*
X138263334Y-49650952D01*
X138263334Y-49793810D01*
X138215715Y-49984286D01*
X138168096Y-50079524D01*
X138072858Y-50174762D01*
X137930000Y-50222381D01*
X137691905Y-50222381D01*
X138834762Y-49650952D02*
X138739524Y-49603333D01*
X138691905Y-49555714D01*
X138644286Y-49460476D01*
X138644286Y-49412857D01*
X138691905Y-49317619D01*
X138739524Y-49270000D01*
X138834762Y-49222381D01*
X139025239Y-49222381D01*
X139120477Y-49270000D01*
X139168096Y-49317619D01*
X139215715Y-49412857D01*
X139215715Y-49460476D01*
X139168096Y-49555714D01*
X139120477Y-49603333D01*
X139025239Y-49650952D01*
X138834762Y-49650952D01*
X138739524Y-49698571D01*
X138691905Y-49746190D01*
X138644286Y-49841429D01*
X138644286Y-50031905D01*
X138691905Y-50127143D01*
X138739524Y-50174762D01*
X138834762Y-50222381D01*
X139025239Y-50222381D01*
X139120477Y-50174762D01*
X139168096Y-50127143D01*
X139215715Y-50031905D01*
X139215715Y-49841429D01*
X139168096Y-49746190D01*
X139120477Y-49698571D01*
X139025239Y-49650952D01*
X152296905Y-50222381D02*
X152296905Y-49222381D01*
X152535000Y-49222381D01*
X152677858Y-49270000D01*
X152773096Y-49365238D01*
X152820715Y-49460476D01*
X152868334Y-49650952D01*
X152868334Y-49793810D01*
X152820715Y-49984286D01*
X152773096Y-50079524D01*
X152677858Y-50174762D01*
X152535000Y-50222381D01*
X152296905Y-50222381D01*
X153344524Y-50222381D02*
X153535000Y-50222381D01*
X153630239Y-50174762D01*
X153677858Y-50127143D01*
X153773096Y-49984286D01*
X153820715Y-49793810D01*
X153820715Y-49412857D01*
X153773096Y-49317619D01*
X153725477Y-49270000D01*
X153630239Y-49222381D01*
X153439762Y-49222381D01*
X153344524Y-49270000D01*
X153296905Y-49317619D01*
X153249286Y-49412857D01*
X153249286Y-49650952D01*
X153296905Y-49746190D01*
X153344524Y-49793810D01*
X153439762Y-49841429D01*
X153630239Y-49841429D01*
X153725477Y-49793810D01*
X153773096Y-49746190D01*
X153820715Y-49650952D01*
X164520714Y-50222381D02*
X164520714Y-49222381D01*
X164758809Y-49222381D01*
X164901667Y-49270000D01*
X164996905Y-49365238D01*
X165044524Y-49460476D01*
X165092143Y-49650952D01*
X165092143Y-49793810D01*
X165044524Y-49984286D01*
X164996905Y-50079524D01*
X164901667Y-50174762D01*
X164758809Y-50222381D01*
X164520714Y-50222381D01*
X166044524Y-50222381D02*
X165473095Y-50222381D01*
X165758809Y-50222381D02*
X165758809Y-49222381D01*
X165663571Y-49365238D01*
X165568333Y-49460476D01*
X165473095Y-49508095D01*
X166663571Y-49222381D02*
X166758810Y-49222381D01*
X166854048Y-49270000D01*
X166901667Y-49317619D01*
X166949286Y-49412857D01*
X166996905Y-49603333D01*
X166996905Y-49841429D01*
X166949286Y-50031905D01*
X166901667Y-50127143D01*
X166854048Y-50174762D01*
X166758810Y-50222381D01*
X166663571Y-50222381D01*
X166568333Y-50174762D01*
X166520714Y-50127143D01*
X166473095Y-50031905D01*
X166425476Y-49841429D01*
X166425476Y-49603333D01*
X166473095Y-49412857D01*
X166520714Y-49317619D01*
X166568333Y-49270000D01*
X166663571Y-49222381D01*
X177220714Y-50222381D02*
X177220714Y-49222381D01*
X177458809Y-49222381D01*
X177601667Y-49270000D01*
X177696905Y-49365238D01*
X177744524Y-49460476D01*
X177792143Y-49650952D01*
X177792143Y-49793810D01*
X177744524Y-49984286D01*
X177696905Y-50079524D01*
X177601667Y-50174762D01*
X177458809Y-50222381D01*
X177220714Y-50222381D01*
X178744524Y-50222381D02*
X178173095Y-50222381D01*
X178458809Y-50222381D02*
X178458809Y-49222381D01*
X178363571Y-49365238D01*
X178268333Y-49460476D01*
X178173095Y-49508095D01*
X179696905Y-50222381D02*
X179125476Y-50222381D01*
X179411190Y-50222381D02*
X179411190Y-49222381D01*
X179315952Y-49365238D01*
X179220714Y-49460476D01*
X179125476Y-49508095D01*
X200715714Y-59747381D02*
X200715714Y-58747381D01*
X200953809Y-58747381D01*
X201096667Y-58795000D01*
X201191905Y-58890238D01*
X201239524Y-58985476D01*
X201287143Y-59175952D01*
X201287143Y-59318810D01*
X201239524Y-59509286D01*
X201191905Y-59604524D01*
X201096667Y-59699762D01*
X200953809Y-59747381D01*
X200715714Y-59747381D01*
X202239524Y-59747381D02*
X201668095Y-59747381D01*
X201953809Y-59747381D02*
X201953809Y-58747381D01*
X201858571Y-58890238D01*
X201763333Y-58985476D01*
X201668095Y-59033095D01*
X202620476Y-58842619D02*
X202668095Y-58795000D01*
X202763333Y-58747381D01*
X203001429Y-58747381D01*
X203096667Y-58795000D01*
X203144286Y-58842619D01*
X203191905Y-58937857D01*
X203191905Y-59033095D01*
X203144286Y-59175952D01*
X202572857Y-59747381D01*
X203191905Y-59747381D01*
X181030714Y-57997381D02*
X181030714Y-56997381D01*
X181268809Y-56997381D01*
X181411667Y-57045000D01*
X181506905Y-57140238D01*
X181554524Y-57235476D01*
X181602143Y-57425952D01*
X181602143Y-57568810D01*
X181554524Y-57759286D01*
X181506905Y-57854524D01*
X181411667Y-57949762D01*
X181268809Y-57997381D01*
X181030714Y-57997381D01*
X182554524Y-57997381D02*
X181983095Y-57997381D01*
X182268809Y-57997381D02*
X182268809Y-56997381D01*
X182173571Y-57140238D01*
X182078333Y-57235476D01*
X181983095Y-57283095D01*
X182887857Y-56997381D02*
X183506905Y-56997381D01*
X183173571Y-57378333D01*
X183316429Y-57378333D01*
X183411667Y-57425952D01*
X183459286Y-57473571D01*
X183506905Y-57568810D01*
X183506905Y-57806905D01*
X183459286Y-57902143D01*
X183411667Y-57949762D01*
X183316429Y-57997381D01*
X183030714Y-57997381D01*
X182935476Y-57949762D01*
X182887857Y-57902143D01*
X41505974Y-31143201D02*
X41505974Y-30143201D01*
X41744069Y-30143201D01*
X41886927Y-30190820D01*
X41982165Y-30286058D01*
X42029784Y-30381296D01*
X42077403Y-30571772D01*
X42077403Y-30714630D01*
X42029784Y-30905106D01*
X41982165Y-31000344D01*
X41886927Y-31095582D01*
X41744069Y-31143201D01*
X41505974Y-31143201D01*
X42458355Y-31095582D02*
X42601212Y-31143201D01*
X42839308Y-31143201D01*
X42934546Y-31095582D01*
X42982165Y-31047963D01*
X43029784Y-30952725D01*
X43029784Y-30857487D01*
X42982165Y-30762249D01*
X42934546Y-30714630D01*
X42839308Y-30667010D01*
X42648831Y-30619391D01*
X42553593Y-30571772D01*
X42505974Y-30524153D01*
X42458355Y-30428915D01*
X42458355Y-30333677D01*
X42505974Y-30238439D01*
X42553593Y-30190820D01*
X42648831Y-30143201D01*
X42886927Y-30143201D01*
X43029784Y-30190820D01*
X43982165Y-31143201D02*
X43410736Y-31143201D01*
X43696450Y-31143201D02*
X43696450Y-30143201D01*
X43601212Y-30286058D01*
X43505974Y-30381296D01*
X43410736Y-30428915D01*
X59991667Y-80968571D02*
X59658333Y-80968571D01*
X59658333Y-81492381D02*
X59658333Y-80492381D01*
X60134524Y-80492381D01*
X61039286Y-81492381D02*
X60467857Y-81492381D01*
X60753571Y-81492381D02*
X60753571Y-80492381D01*
X60658333Y-80635238D01*
X60563095Y-80730476D01*
X60467857Y-80778095D01*
X89847381Y-132421190D02*
X88847381Y-132421190D01*
X89752143Y-131373571D02*
X89799762Y-131421190D01*
X89847381Y-131564047D01*
X89847381Y-131659285D01*
X89799762Y-131802143D01*
X89704524Y-131897381D01*
X89609286Y-131945000D01*
X89418810Y-131992619D01*
X89275952Y-131992619D01*
X89085476Y-131945000D01*
X88990238Y-131897381D01*
X88895000Y-131802143D01*
X88847381Y-131659285D01*
X88847381Y-131564047D01*
X88895000Y-131421190D01*
X88942619Y-131373571D01*
X89847381Y-130421190D02*
X89847381Y-130992619D01*
X89847381Y-130706905D02*
X88847381Y-130706905D01*
X88990238Y-130802143D01*
X89085476Y-130897381D01*
X89133095Y-130992619D01*
X119057381Y-132421190D02*
X118057381Y-132421190D01*
X118962143Y-131373571D02*
X119009762Y-131421190D01*
X119057381Y-131564047D01*
X119057381Y-131659285D01*
X119009762Y-131802143D01*
X118914524Y-131897381D01*
X118819286Y-131945000D01*
X118628810Y-131992619D01*
X118485952Y-131992619D01*
X118295476Y-131945000D01*
X118200238Y-131897381D01*
X118105000Y-131802143D01*
X118057381Y-131659285D01*
X118057381Y-131564047D01*
X118105000Y-131421190D01*
X118152619Y-131373571D01*
X118152619Y-130992619D02*
X118105000Y-130945000D01*
X118057381Y-130849762D01*
X118057381Y-130611666D01*
X118105000Y-130516428D01*
X118152619Y-130468809D01*
X118247857Y-130421190D01*
X118343095Y-130421190D01*
X118485952Y-130468809D01*
X119057381Y-131040238D01*
X119057381Y-130421190D01*
X148902381Y-132421190D02*
X147902381Y-132421190D01*
X148807143Y-131373571D02*
X148854762Y-131421190D01*
X148902381Y-131564047D01*
X148902381Y-131659285D01*
X148854762Y-131802143D01*
X148759524Y-131897381D01*
X148664286Y-131945000D01*
X148473810Y-131992619D01*
X148330952Y-131992619D01*
X148140476Y-131945000D01*
X148045238Y-131897381D01*
X147950000Y-131802143D01*
X147902381Y-131659285D01*
X147902381Y-131564047D01*
X147950000Y-131421190D01*
X147997619Y-131373571D01*
X147902381Y-131040238D02*
X147902381Y-130421190D01*
X148283333Y-130754524D01*
X148283333Y-130611666D01*
X148330952Y-130516428D01*
X148378571Y-130468809D01*
X148473810Y-130421190D01*
X148711905Y-130421190D01*
X148807143Y-130468809D01*
X148854762Y-130516428D01*
X148902381Y-130611666D01*
X148902381Y-130897381D01*
X148854762Y-130992619D01*
X148807143Y-131040238D01*
X180017381Y-132421190D02*
X179017381Y-132421190D01*
X179922143Y-131373571D02*
X179969762Y-131421190D01*
X180017381Y-131564047D01*
X180017381Y-131659285D01*
X179969762Y-131802143D01*
X179874524Y-131897381D01*
X179779286Y-131945000D01*
X179588810Y-131992619D01*
X179445952Y-131992619D01*
X179255476Y-131945000D01*
X179160238Y-131897381D01*
X179065000Y-131802143D01*
X179017381Y-131659285D01*
X179017381Y-131564047D01*
X179065000Y-131421190D01*
X179112619Y-131373571D01*
X179350714Y-130516428D02*
X180017381Y-130516428D01*
X178969762Y-130754524D02*
X179684048Y-130992619D01*
X179684048Y-130373571D01*
X204128810Y-120607381D02*
X204128810Y-119607381D01*
X205176429Y-120512143D02*
X205128810Y-120559762D01*
X204985953Y-120607381D01*
X204890715Y-120607381D01*
X204747857Y-120559762D01*
X204652619Y-120464524D01*
X204605000Y-120369286D01*
X204557381Y-120178810D01*
X204557381Y-120035952D01*
X204605000Y-119845476D01*
X204652619Y-119750238D01*
X204747857Y-119655000D01*
X204890715Y-119607381D01*
X204985953Y-119607381D01*
X205128810Y-119655000D01*
X205176429Y-119702619D01*
X206081191Y-119607381D02*
X205605000Y-119607381D01*
X205557381Y-120083571D01*
X205605000Y-120035952D01*
X205700238Y-119988333D01*
X205938334Y-119988333D01*
X206033572Y-120035952D01*
X206081191Y-120083571D01*
X206128810Y-120178810D01*
X206128810Y-120416905D01*
X206081191Y-120512143D01*
X206033572Y-120559762D01*
X205938334Y-120607381D01*
X205700238Y-120607381D01*
X205605000Y-120559762D01*
X205557381Y-120512143D01*
X204128810Y-95207381D02*
X204128810Y-94207381D01*
X205176429Y-95112143D02*
X205128810Y-95159762D01*
X204985953Y-95207381D01*
X204890715Y-95207381D01*
X204747857Y-95159762D01*
X204652619Y-95064524D01*
X204605000Y-94969286D01*
X204557381Y-94778810D01*
X204557381Y-94635952D01*
X204605000Y-94445476D01*
X204652619Y-94350238D01*
X204747857Y-94255000D01*
X204890715Y-94207381D01*
X204985953Y-94207381D01*
X205128810Y-94255000D01*
X205176429Y-94302619D01*
X206033572Y-94207381D02*
X205843095Y-94207381D01*
X205747857Y-94255000D01*
X205700238Y-94302619D01*
X205605000Y-94445476D01*
X205557381Y-94635952D01*
X205557381Y-95016905D01*
X205605000Y-95112143D01*
X205652619Y-95159762D01*
X205747857Y-95207381D01*
X205938334Y-95207381D01*
X206033572Y-95159762D01*
X206081191Y-95112143D01*
X206128810Y-95016905D01*
X206128810Y-94778810D01*
X206081191Y-94683571D01*
X206033572Y-94635952D01*
X205938334Y-94588333D01*
X205747857Y-94588333D01*
X205652619Y-94635952D01*
X205605000Y-94683571D01*
X205557381Y-94778810D01*
X54636421Y-89868333D02*
X55350707Y-89868333D01*
X55493564Y-89915953D01*
X55588802Y-90011191D01*
X55636421Y-90154048D01*
X55636421Y-90249286D01*
X55636421Y-88868333D02*
X55636421Y-89439762D01*
X55636421Y-89154048D02*
X54636421Y-89154048D01*
X54779278Y-89249286D01*
X54874516Y-89344524D01*
X54922135Y-89439762D01*
X99996667Y-75632381D02*
X99996667Y-76346667D01*
X99949047Y-76489524D01*
X99853809Y-76584762D01*
X99710952Y-76632381D01*
X99615714Y-76632381D01*
X100425238Y-75727619D02*
X100472857Y-75680000D01*
X100568095Y-75632381D01*
X100806191Y-75632381D01*
X100901429Y-75680000D01*
X100949048Y-75727619D01*
X100996667Y-75822857D01*
X100996667Y-75918095D01*
X100949048Y-76060952D01*
X100377619Y-76632381D01*
X100996667Y-76632381D01*
X169846667Y-74362381D02*
X169846667Y-75076667D01*
X169799047Y-75219524D01*
X169703809Y-75314762D01*
X169560952Y-75362381D01*
X169465714Y-75362381D01*
X170227619Y-74362381D02*
X170846667Y-74362381D01*
X170513333Y-74743333D01*
X170656191Y-74743333D01*
X170751429Y-74790952D01*
X170799048Y-74838571D01*
X170846667Y-74933810D01*
X170846667Y-75171905D01*
X170799048Y-75267143D01*
X170751429Y-75314762D01*
X170656191Y-75362381D01*
X170370476Y-75362381D01*
X170275238Y-75314762D01*
X170227619Y-75267143D01*
X115042381Y-109553333D02*
X115756667Y-109553333D01*
X115899524Y-109600953D01*
X115994762Y-109696191D01*
X116042381Y-109839048D01*
X116042381Y-109934286D01*
X115375714Y-108648571D02*
X116042381Y-108648571D01*
X114994762Y-108886667D02*
X115709048Y-109124762D01*
X115709048Y-108505714D01*
X108017381Y-104473333D02*
X108731667Y-104473333D01*
X108874524Y-104520953D01*
X108969762Y-104616191D01*
X109017381Y-104759048D01*
X109017381Y-104854286D01*
X108017381Y-103520952D02*
X108017381Y-103997143D01*
X108493571Y-104044762D01*
X108445952Y-103997143D01*
X108398333Y-103901905D01*
X108398333Y-103663809D01*
X108445952Y-103568571D01*
X108493571Y-103520952D01*
X108588810Y-103473333D01*
X108826905Y-103473333D01*
X108922143Y-103520952D01*
X108969762Y-103568571D01*
X109017381Y-103663809D01*
X109017381Y-103901905D01*
X108969762Y-103997143D01*
X108922143Y-104044762D01*
X112696667Y-72457381D02*
X112696667Y-73171667D01*
X112649047Y-73314524D01*
X112553809Y-73409762D01*
X112410952Y-73457381D01*
X112315714Y-73457381D01*
X113601429Y-72457381D02*
X113410952Y-72457381D01*
X113315714Y-72505000D01*
X113268095Y-72552619D01*
X113172857Y-72695476D01*
X113125238Y-72885952D01*
X113125238Y-73266905D01*
X113172857Y-73362143D01*
X113220476Y-73409762D01*
X113315714Y-73457381D01*
X113506191Y-73457381D01*
X113601429Y-73409762D01*
X113649048Y-73362143D01*
X113696667Y-73266905D01*
X113696667Y-73028810D01*
X113649048Y-72933571D01*
X113601429Y-72885952D01*
X113506191Y-72838333D01*
X113315714Y-72838333D01*
X113220476Y-72885952D01*
X113172857Y-72933571D01*
X113125238Y-73028810D01*
X41108381Y-76533333D02*
X41822667Y-76533333D01*
X41965524Y-76580953D01*
X42060762Y-76676191D01*
X42108381Y-76819048D01*
X42108381Y-76914286D01*
X41108381Y-76152381D02*
X41108381Y-75485714D01*
X42108381Y-75914286D01*
X153336667Y-92182381D02*
X153336667Y-92896667D01*
X153289047Y-93039524D01*
X153193809Y-93134762D01*
X153050952Y-93182381D01*
X152955714Y-93182381D01*
X153955714Y-92610952D02*
X153860476Y-92563333D01*
X153812857Y-92515714D01*
X153765238Y-92420476D01*
X153765238Y-92372857D01*
X153812857Y-92277619D01*
X153860476Y-92230000D01*
X153955714Y-92182381D01*
X154146191Y-92182381D01*
X154241429Y-92230000D01*
X154289048Y-92277619D01*
X154336667Y-92372857D01*
X154336667Y-92420476D01*
X154289048Y-92515714D01*
X154241429Y-92563333D01*
X154146191Y-92610952D01*
X153955714Y-92610952D01*
X153860476Y-92658571D01*
X153812857Y-92706190D01*
X153765238Y-92801429D01*
X153765238Y-92991905D01*
X153812857Y-93087143D01*
X153860476Y-93134762D01*
X153955714Y-93182381D01*
X154146191Y-93182381D01*
X154241429Y-93134762D01*
X154289048Y-93087143D01*
X154336667Y-92991905D01*
X154336667Y-92801429D01*
X154289048Y-92706190D01*
X154241429Y-92658571D01*
X154146191Y-92610952D01*
X95551667Y-135921501D02*
X95551667Y-136635787D01*
X95504047Y-136778644D01*
X95408809Y-136873882D01*
X95265952Y-136921501D01*
X95170714Y-136921501D01*
X96075476Y-136921501D02*
X96265952Y-136921501D01*
X96361191Y-136873882D01*
X96408810Y-136826263D01*
X96504048Y-136683406D01*
X96551667Y-136492930D01*
X96551667Y-136111977D01*
X96504048Y-136016739D01*
X96456429Y-135969120D01*
X96361191Y-135921501D01*
X96170714Y-135921501D01*
X96075476Y-135969120D01*
X96027857Y-136016739D01*
X95980238Y-136111977D01*
X95980238Y-136350072D01*
X96027857Y-136445310D01*
X96075476Y-136492930D01*
X96170714Y-136540549D01*
X96361191Y-136540549D01*
X96456429Y-136492930D01*
X96504048Y-136445310D01*
X96551667Y-136350072D01*
X102695477Y-135921501D02*
X102695477Y-136635787D01*
X102647857Y-136778644D01*
X102552619Y-136873882D01*
X102409762Y-136921501D01*
X102314524Y-136921501D01*
X103695477Y-136921501D02*
X103124048Y-136921501D01*
X103409762Y-136921501D02*
X103409762Y-135921501D01*
X103314524Y-136064358D01*
X103219286Y-136159596D01*
X103124048Y-136207215D01*
X104314524Y-135921501D02*
X104409763Y-135921501D01*
X104505001Y-135969120D01*
X104552620Y-136016739D01*
X104600239Y-136111977D01*
X104647858Y-136302453D01*
X104647858Y-136540549D01*
X104600239Y-136731025D01*
X104552620Y-136826263D01*
X104505001Y-136873882D01*
X104409763Y-136921501D01*
X104314524Y-136921501D01*
X104219286Y-136873882D01*
X104171667Y-136826263D01*
X104124048Y-136731025D01*
X104076429Y-136540549D01*
X104076429Y-136302453D01*
X104124048Y-136111977D01*
X104171667Y-136016739D01*
X104219286Y-135969120D01*
X104314524Y-135921501D01*
X110315477Y-135921501D02*
X110315477Y-136635787D01*
X110267857Y-136778644D01*
X110172619Y-136873882D01*
X110029762Y-136921501D01*
X109934524Y-136921501D01*
X111315477Y-136921501D02*
X110744048Y-136921501D01*
X111029762Y-136921501D02*
X111029762Y-135921501D01*
X110934524Y-136064358D01*
X110839286Y-136159596D01*
X110744048Y-136207215D01*
X112267858Y-136921501D02*
X111696429Y-136921501D01*
X111982143Y-136921501D02*
X111982143Y-135921501D01*
X111886905Y-136064358D01*
X111791667Y-136159596D01*
X111696429Y-136207215D01*
X117935477Y-135921501D02*
X117935477Y-136635787D01*
X117887857Y-136778644D01*
X117792619Y-136873882D01*
X117649762Y-136921501D01*
X117554524Y-136921501D01*
X118935477Y-136921501D02*
X118364048Y-136921501D01*
X118649762Y-136921501D02*
X118649762Y-135921501D01*
X118554524Y-136064358D01*
X118459286Y-136159596D01*
X118364048Y-136207215D01*
X119316429Y-136016739D02*
X119364048Y-135969120D01*
X119459286Y-135921501D01*
X119697382Y-135921501D01*
X119792620Y-135969120D01*
X119840239Y-136016739D01*
X119887858Y-136111977D01*
X119887858Y-136207215D01*
X119840239Y-136350072D01*
X119268810Y-136921501D01*
X119887858Y-136921501D01*
X125555477Y-135921501D02*
X125555477Y-136635787D01*
X125507857Y-136778644D01*
X125412619Y-136873882D01*
X125269762Y-136921501D01*
X125174524Y-136921501D01*
X126555477Y-136921501D02*
X125984048Y-136921501D01*
X126269762Y-136921501D02*
X126269762Y-135921501D01*
X126174524Y-136064358D01*
X126079286Y-136159596D01*
X125984048Y-136207215D01*
X126888810Y-135921501D02*
X127507858Y-135921501D01*
X127174524Y-136302453D01*
X127317382Y-136302453D01*
X127412620Y-136350072D01*
X127460239Y-136397691D01*
X127507858Y-136492930D01*
X127507858Y-136731025D01*
X127460239Y-136826263D01*
X127412620Y-136873882D01*
X127317382Y-136921501D01*
X127031667Y-136921501D01*
X126936429Y-136873882D01*
X126888810Y-136826263D01*
X133175477Y-135921501D02*
X133175477Y-136635787D01*
X133127857Y-136778644D01*
X133032619Y-136873882D01*
X132889762Y-136921501D01*
X132794524Y-136921501D01*
X134175477Y-136921501D02*
X133604048Y-136921501D01*
X133889762Y-136921501D02*
X133889762Y-135921501D01*
X133794524Y-136064358D01*
X133699286Y-136159596D01*
X133604048Y-136207215D01*
X135032620Y-136254834D02*
X135032620Y-136921501D01*
X134794524Y-135873882D02*
X134556429Y-136588168D01*
X135175477Y-136588168D01*
X140795477Y-135921501D02*
X140795477Y-136635787D01*
X140747857Y-136778644D01*
X140652619Y-136873882D01*
X140509762Y-136921501D01*
X140414524Y-136921501D01*
X141795477Y-136921501D02*
X141224048Y-136921501D01*
X141509762Y-136921501D02*
X141509762Y-135921501D01*
X141414524Y-136064358D01*
X141319286Y-136159596D01*
X141224048Y-136207215D01*
X142700239Y-135921501D02*
X142224048Y-135921501D01*
X142176429Y-136397691D01*
X142224048Y-136350072D01*
X142319286Y-136302453D01*
X142557382Y-136302453D01*
X142652620Y-136350072D01*
X142700239Y-136397691D01*
X142747858Y-136492930D01*
X142747858Y-136731025D01*
X142700239Y-136826263D01*
X142652620Y-136873882D01*
X142557382Y-136921501D01*
X142319286Y-136921501D01*
X142224048Y-136873882D01*
X142176429Y-136826263D01*
X149050477Y-135921501D02*
X149050477Y-136635787D01*
X149002857Y-136778644D01*
X148907619Y-136873882D01*
X148764762Y-136921501D01*
X148669524Y-136921501D01*
X150050477Y-136921501D02*
X149479048Y-136921501D01*
X149764762Y-136921501D02*
X149764762Y-135921501D01*
X149669524Y-136064358D01*
X149574286Y-136159596D01*
X149479048Y-136207215D01*
X150907620Y-135921501D02*
X150717143Y-135921501D01*
X150621905Y-135969120D01*
X150574286Y-136016739D01*
X150479048Y-136159596D01*
X150431429Y-136350072D01*
X150431429Y-136731025D01*
X150479048Y-136826263D01*
X150526667Y-136873882D01*
X150621905Y-136921501D01*
X150812382Y-136921501D01*
X150907620Y-136873882D01*
X150955239Y-136826263D01*
X151002858Y-136731025D01*
X151002858Y-136492930D01*
X150955239Y-136397691D01*
X150907620Y-136350072D01*
X150812382Y-136302453D01*
X150621905Y-136302453D01*
X150526667Y-136350072D01*
X150479048Y-136397691D01*
X150431429Y-136492930D01*
X156670477Y-135921501D02*
X156670477Y-136635787D01*
X156622857Y-136778644D01*
X156527619Y-136873882D01*
X156384762Y-136921501D01*
X156289524Y-136921501D01*
X157670477Y-136921501D02*
X157099048Y-136921501D01*
X157384762Y-136921501D02*
X157384762Y-135921501D01*
X157289524Y-136064358D01*
X157194286Y-136159596D01*
X157099048Y-136207215D01*
X158003810Y-135921501D02*
X158670477Y-135921501D01*
X158241905Y-136921501D01*
X164925477Y-135921501D02*
X164925477Y-136635787D01*
X164877857Y-136778644D01*
X164782619Y-136873882D01*
X164639762Y-136921501D01*
X164544524Y-136921501D01*
X165925477Y-136921501D02*
X165354048Y-136921501D01*
X165639762Y-136921501D02*
X165639762Y-135921501D01*
X165544524Y-136064358D01*
X165449286Y-136159596D01*
X165354048Y-136207215D01*
X166496905Y-136350072D02*
X166401667Y-136302453D01*
X166354048Y-136254834D01*
X166306429Y-136159596D01*
X166306429Y-136111977D01*
X166354048Y-136016739D01*
X166401667Y-135969120D01*
X166496905Y-135921501D01*
X166687382Y-135921501D01*
X166782620Y-135969120D01*
X166830239Y-136016739D01*
X166877858Y-136111977D01*
X166877858Y-136159596D01*
X166830239Y-136254834D01*
X166782620Y-136302453D01*
X166687382Y-136350072D01*
X166496905Y-136350072D01*
X166401667Y-136397691D01*
X166354048Y-136445310D01*
X166306429Y-136540549D01*
X166306429Y-136731025D01*
X166354048Y-136826263D01*
X166401667Y-136873882D01*
X166496905Y-136921501D01*
X166687382Y-136921501D01*
X166782620Y-136873882D01*
X166830239Y-136826263D01*
X166877858Y-136731025D01*
X166877858Y-136540549D01*
X166830239Y-136445310D01*
X166782620Y-136397691D01*
X166687382Y-136350072D01*
X173180477Y-135921501D02*
X173180477Y-136635787D01*
X173132857Y-136778644D01*
X173037619Y-136873882D01*
X172894762Y-136921501D01*
X172799524Y-136921501D01*
X174180477Y-136921501D02*
X173609048Y-136921501D01*
X173894762Y-136921501D02*
X173894762Y-135921501D01*
X173799524Y-136064358D01*
X173704286Y-136159596D01*
X173609048Y-136207215D01*
X174656667Y-136921501D02*
X174847143Y-136921501D01*
X174942382Y-136873882D01*
X174990001Y-136826263D01*
X175085239Y-136683406D01*
X175132858Y-136492930D01*
X175132858Y-136111977D01*
X175085239Y-136016739D01*
X175037620Y-135969120D01*
X174942382Y-135921501D01*
X174751905Y-135921501D01*
X174656667Y-135969120D01*
X174609048Y-136016739D01*
X174561429Y-136111977D01*
X174561429Y-136350072D01*
X174609048Y-136445310D01*
X174656667Y-136492930D01*
X174751905Y-136540549D01*
X174942382Y-136540549D01*
X175037620Y-136492930D01*
X175085239Y-136445310D01*
X175132858Y-136350072D01*
X181435477Y-135921501D02*
X181435477Y-136635787D01*
X181387857Y-136778644D01*
X181292619Y-136873882D01*
X181149762Y-136921501D01*
X181054524Y-136921501D01*
X181864048Y-136016739D02*
X181911667Y-135969120D01*
X182006905Y-135921501D01*
X182245001Y-135921501D01*
X182340239Y-135969120D01*
X182387858Y-136016739D01*
X182435477Y-136111977D01*
X182435477Y-136207215D01*
X182387858Y-136350072D01*
X181816429Y-136921501D01*
X182435477Y-136921501D01*
X183054524Y-135921501D02*
X183149763Y-135921501D01*
X183245001Y-135969120D01*
X183292620Y-136016739D01*
X183340239Y-136111977D01*
X183387858Y-136302453D01*
X183387858Y-136540549D01*
X183340239Y-136731025D01*
X183292620Y-136826263D01*
X183245001Y-136873882D01*
X183149763Y-136921501D01*
X183054524Y-136921501D01*
X182959286Y-136873882D01*
X182911667Y-136826263D01*
X182864048Y-136731025D01*
X182816429Y-136540549D01*
X182816429Y-136302453D01*
X182864048Y-136111977D01*
X182911667Y-136016739D01*
X182959286Y-135969120D01*
X183054524Y-135921501D01*
X190325477Y-135921501D02*
X190325477Y-136635787D01*
X190277857Y-136778644D01*
X190182619Y-136873882D01*
X190039762Y-136921501D01*
X189944524Y-136921501D01*
X190754048Y-136016739D02*
X190801667Y-135969120D01*
X190896905Y-135921501D01*
X191135001Y-135921501D01*
X191230239Y-135969120D01*
X191277858Y-136016739D01*
X191325477Y-136111977D01*
X191325477Y-136207215D01*
X191277858Y-136350072D01*
X190706429Y-136921501D01*
X191325477Y-136921501D01*
X192277858Y-136921501D02*
X191706429Y-136921501D01*
X191992143Y-136921501D02*
X191992143Y-135921501D01*
X191896905Y-136064358D01*
X191801667Y-136159596D01*
X191706429Y-136207215D01*
X198580477Y-135921501D02*
X198580477Y-136635787D01*
X198532857Y-136778644D01*
X198437619Y-136873882D01*
X198294762Y-136921501D01*
X198199524Y-136921501D01*
X199009048Y-136016739D02*
X199056667Y-135969120D01*
X199151905Y-135921501D01*
X199390001Y-135921501D01*
X199485239Y-135969120D01*
X199532858Y-136016739D01*
X199580477Y-136111977D01*
X199580477Y-136207215D01*
X199532858Y-136350072D01*
X198961429Y-136921501D01*
X199580477Y-136921501D01*
X199961429Y-136016739D02*
X200009048Y-135969120D01*
X200104286Y-135921501D01*
X200342382Y-135921501D01*
X200437620Y-135969120D01*
X200485239Y-136016739D01*
X200532858Y-136111977D01*
X200532858Y-136207215D01*
X200485239Y-136350072D01*
X199913810Y-136921501D01*
X200532858Y-136921501D01*
X206835477Y-135921501D02*
X206835477Y-136635787D01*
X206787857Y-136778644D01*
X206692619Y-136873882D01*
X206549762Y-136921501D01*
X206454524Y-136921501D01*
X207264048Y-136016739D02*
X207311667Y-135969120D01*
X207406905Y-135921501D01*
X207645001Y-135921501D01*
X207740239Y-135969120D01*
X207787858Y-136016739D01*
X207835477Y-136111977D01*
X207835477Y-136207215D01*
X207787858Y-136350072D01*
X207216429Y-136921501D01*
X207835477Y-136921501D01*
X208168810Y-135921501D02*
X208787858Y-135921501D01*
X208454524Y-136302453D01*
X208597382Y-136302453D01*
X208692620Y-136350072D01*
X208740239Y-136397691D01*
X208787858Y-136492930D01*
X208787858Y-136731025D01*
X208740239Y-136826263D01*
X208692620Y-136873882D01*
X208597382Y-136921501D01*
X208311667Y-136921501D01*
X208216429Y-136873882D01*
X208168810Y-136826263D01*
X211486501Y-141144523D02*
X212200787Y-141144523D01*
X212343644Y-141192143D01*
X212438882Y-141287381D01*
X212486501Y-141430238D01*
X212486501Y-141525476D01*
X211581739Y-140715952D02*
X211534120Y-140668333D01*
X211486501Y-140573095D01*
X211486501Y-140334999D01*
X211534120Y-140239761D01*
X211581739Y-140192142D01*
X211676977Y-140144523D01*
X211772215Y-140144523D01*
X211915072Y-140192142D01*
X212486501Y-140763571D01*
X212486501Y-140144523D01*
X211819834Y-139287380D02*
X212486501Y-139287380D01*
X211438882Y-139525476D02*
X212153168Y-139763571D01*
X212153168Y-139144523D01*
X211486501Y-132254523D02*
X212200787Y-132254523D01*
X212343644Y-132302143D01*
X212438882Y-132397381D01*
X212486501Y-132540238D01*
X212486501Y-132635476D01*
X211581739Y-131825952D02*
X211534120Y-131778333D01*
X211486501Y-131683095D01*
X211486501Y-131444999D01*
X211534120Y-131349761D01*
X211581739Y-131302142D01*
X211676977Y-131254523D01*
X211772215Y-131254523D01*
X211915072Y-131302142D01*
X212486501Y-131873571D01*
X212486501Y-131254523D01*
X211486501Y-130349761D02*
X211486501Y-130825952D01*
X211962691Y-130873571D01*
X211915072Y-130825952D01*
X211867453Y-130730714D01*
X211867453Y-130492618D01*
X211915072Y-130397380D01*
X211962691Y-130349761D01*
X212057930Y-130302142D01*
X212296025Y-130302142D01*
X212391263Y-130349761D01*
X212438882Y-130397380D01*
X212486501Y-130492618D01*
X212486501Y-130730714D01*
X212438882Y-130825952D01*
X212391263Y-130873571D01*
X211486501Y-123364523D02*
X212200787Y-123364523D01*
X212343644Y-123412143D01*
X212438882Y-123507381D01*
X212486501Y-123650238D01*
X212486501Y-123745476D01*
X211581739Y-122935952D02*
X211534120Y-122888333D01*
X211486501Y-122793095D01*
X211486501Y-122554999D01*
X211534120Y-122459761D01*
X211581739Y-122412142D01*
X211676977Y-122364523D01*
X211772215Y-122364523D01*
X211915072Y-122412142D01*
X212486501Y-122983571D01*
X212486501Y-122364523D01*
X211486501Y-121507380D02*
X211486501Y-121697857D01*
X211534120Y-121793095D01*
X211581739Y-121840714D01*
X211724596Y-121935952D01*
X211915072Y-121983571D01*
X212296025Y-121983571D01*
X212391263Y-121935952D01*
X212438882Y-121888333D01*
X212486501Y-121793095D01*
X212486501Y-121602618D01*
X212438882Y-121507380D01*
X212391263Y-121459761D01*
X212296025Y-121412142D01*
X212057930Y-121412142D01*
X211962691Y-121459761D01*
X211915072Y-121507380D01*
X211867453Y-121602618D01*
X211867453Y-121793095D01*
X211915072Y-121888333D01*
X211962691Y-121935952D01*
X212057930Y-121983571D01*
X211486501Y-114474523D02*
X212200787Y-114474523D01*
X212343644Y-114522143D01*
X212438882Y-114617381D01*
X212486501Y-114760238D01*
X212486501Y-114855476D01*
X211581739Y-114045952D02*
X211534120Y-113998333D01*
X211486501Y-113903095D01*
X211486501Y-113664999D01*
X211534120Y-113569761D01*
X211581739Y-113522142D01*
X211676977Y-113474523D01*
X211772215Y-113474523D01*
X211915072Y-113522142D01*
X212486501Y-114093571D01*
X212486501Y-113474523D01*
X211486501Y-113141190D02*
X211486501Y-112474523D01*
X212486501Y-112903095D01*
X211486501Y-105584523D02*
X212200787Y-105584523D01*
X212343644Y-105632143D01*
X212438882Y-105727381D01*
X212486501Y-105870238D01*
X212486501Y-105965476D01*
X211581739Y-105155952D02*
X211534120Y-105108333D01*
X211486501Y-105013095D01*
X211486501Y-104774999D01*
X211534120Y-104679761D01*
X211581739Y-104632142D01*
X211676977Y-104584523D01*
X211772215Y-104584523D01*
X211915072Y-104632142D01*
X212486501Y-105203571D01*
X212486501Y-104584523D01*
X211915072Y-104013095D02*
X211867453Y-104108333D01*
X211819834Y-104155952D01*
X211724596Y-104203571D01*
X211676977Y-104203571D01*
X211581739Y-104155952D01*
X211534120Y-104108333D01*
X211486501Y-104013095D01*
X211486501Y-103822618D01*
X211534120Y-103727380D01*
X211581739Y-103679761D01*
X211676977Y-103632142D01*
X211724596Y-103632142D01*
X211819834Y-103679761D01*
X211867453Y-103727380D01*
X211915072Y-103822618D01*
X211915072Y-104013095D01*
X211962691Y-104108333D01*
X212010310Y-104155952D01*
X212105549Y-104203571D01*
X212296025Y-104203571D01*
X212391263Y-104155952D01*
X212438882Y-104108333D01*
X212486501Y-104013095D01*
X212486501Y-103822618D01*
X212438882Y-103727380D01*
X212391263Y-103679761D01*
X212296025Y-103632142D01*
X212105549Y-103632142D01*
X212010310Y-103679761D01*
X211962691Y-103727380D01*
X211915072Y-103822618D01*
X211486501Y-96694523D02*
X212200787Y-96694523D01*
X212343644Y-96742143D01*
X212438882Y-96837381D01*
X212486501Y-96980238D01*
X212486501Y-97075476D01*
X211581739Y-96265952D02*
X211534120Y-96218333D01*
X211486501Y-96123095D01*
X211486501Y-95884999D01*
X211534120Y-95789761D01*
X211581739Y-95742142D01*
X211676977Y-95694523D01*
X211772215Y-95694523D01*
X211915072Y-95742142D01*
X212486501Y-96313571D01*
X212486501Y-95694523D01*
X212486501Y-95218333D02*
X212486501Y-95027857D01*
X212438882Y-94932618D01*
X212391263Y-94884999D01*
X212248406Y-94789761D01*
X212057930Y-94742142D01*
X211676977Y-94742142D01*
X211581739Y-94789761D01*
X211534120Y-94837380D01*
X211486501Y-94932618D01*
X211486501Y-95123095D01*
X211534120Y-95218333D01*
X211581739Y-95265952D01*
X211676977Y-95313571D01*
X211915072Y-95313571D01*
X212010310Y-95265952D01*
X212057930Y-95218333D01*
X212105549Y-95123095D01*
X212105549Y-94932618D01*
X212057930Y-94837380D01*
X212010310Y-94789761D01*
X211915072Y-94742142D01*
X211486501Y-87804523D02*
X212200787Y-87804523D01*
X212343644Y-87852143D01*
X212438882Y-87947381D01*
X212486501Y-88090238D01*
X212486501Y-88185476D01*
X211486501Y-87423571D02*
X211486501Y-86804523D01*
X211867453Y-87137857D01*
X211867453Y-86994999D01*
X211915072Y-86899761D01*
X211962691Y-86852142D01*
X212057930Y-86804523D01*
X212296025Y-86804523D01*
X212391263Y-86852142D01*
X212438882Y-86899761D01*
X212486501Y-86994999D01*
X212486501Y-87280714D01*
X212438882Y-87375952D01*
X212391263Y-87423571D01*
X211486501Y-86185476D02*
X211486501Y-86090237D01*
X211534120Y-85994999D01*
X211581739Y-85947380D01*
X211676977Y-85899761D01*
X211867453Y-85852142D01*
X212105549Y-85852142D01*
X212296025Y-85899761D01*
X212391263Y-85947380D01*
X212438882Y-85994999D01*
X212486501Y-86090237D01*
X212486501Y-86185476D01*
X212438882Y-86280714D01*
X212391263Y-86328333D01*
X212296025Y-86375952D01*
X212105549Y-86423571D01*
X211867453Y-86423571D01*
X211676977Y-86375952D01*
X211581739Y-86328333D01*
X211534120Y-86280714D01*
X211486501Y-86185476D01*
X211486501Y-79549523D02*
X212200787Y-79549523D01*
X212343644Y-79597143D01*
X212438882Y-79692381D01*
X212486501Y-79835238D01*
X212486501Y-79930476D01*
X211486501Y-79168571D02*
X211486501Y-78549523D01*
X211867453Y-78882857D01*
X211867453Y-78739999D01*
X211915072Y-78644761D01*
X211962691Y-78597142D01*
X212057930Y-78549523D01*
X212296025Y-78549523D01*
X212391263Y-78597142D01*
X212438882Y-78644761D01*
X212486501Y-78739999D01*
X212486501Y-79025714D01*
X212438882Y-79120952D01*
X212391263Y-79168571D01*
X212486501Y-77597142D02*
X212486501Y-78168571D01*
X212486501Y-77882857D02*
X211486501Y-77882857D01*
X211629358Y-77978095D01*
X211724596Y-78073333D01*
X211772215Y-78168571D01*
X211486501Y-71929523D02*
X212200787Y-71929523D01*
X212343644Y-71977143D01*
X212438882Y-72072381D01*
X212486501Y-72215238D01*
X212486501Y-72310476D01*
X211486501Y-71548571D02*
X211486501Y-70929523D01*
X211867453Y-71262857D01*
X211867453Y-71119999D01*
X211915072Y-71024761D01*
X211962691Y-70977142D01*
X212057930Y-70929523D01*
X212296025Y-70929523D01*
X212391263Y-70977142D01*
X212438882Y-71024761D01*
X212486501Y-71119999D01*
X212486501Y-71405714D01*
X212438882Y-71500952D01*
X212391263Y-71548571D01*
X211581739Y-70548571D02*
X211534120Y-70500952D01*
X211486501Y-70405714D01*
X211486501Y-70167618D01*
X211534120Y-70072380D01*
X211581739Y-70024761D01*
X211676977Y-69977142D01*
X211772215Y-69977142D01*
X211915072Y-70024761D01*
X212486501Y-70596190D01*
X212486501Y-69977142D01*
X128095477Y-47016421D02*
X128095477Y-47730707D01*
X128047857Y-47873564D01*
X127952619Y-47968802D01*
X127809762Y-48016421D01*
X127714524Y-48016421D01*
X128476429Y-47016421D02*
X129095477Y-47016421D01*
X128762143Y-47397373D01*
X128905001Y-47397373D01*
X129000239Y-47444992D01*
X129047858Y-47492611D01*
X129095477Y-47587850D01*
X129095477Y-47825945D01*
X129047858Y-47921183D01*
X129000239Y-47968802D01*
X128905001Y-48016421D01*
X128619286Y-48016421D01*
X128524048Y-47968802D01*
X128476429Y-47921183D01*
X129428810Y-47016421D02*
X130047858Y-47016421D01*
X129714524Y-47397373D01*
X129857382Y-47397373D01*
X129952620Y-47444992D01*
X130000239Y-47492611D01*
X130047858Y-47587850D01*
X130047858Y-47825945D01*
X130000239Y-47921183D01*
X129952620Y-47968802D01*
X129857382Y-48016421D01*
X129571667Y-48016421D01*
X129476429Y-47968802D01*
X129428810Y-47921183D01*
X141430477Y-47016421D02*
X141430477Y-47730707D01*
X141382857Y-47873564D01*
X141287619Y-47968802D01*
X141144762Y-48016421D01*
X141049524Y-48016421D01*
X141811429Y-47016421D02*
X142430477Y-47016421D01*
X142097143Y-47397373D01*
X142240001Y-47397373D01*
X142335239Y-47444992D01*
X142382858Y-47492611D01*
X142430477Y-47587850D01*
X142430477Y-47825945D01*
X142382858Y-47921183D01*
X142335239Y-47968802D01*
X142240001Y-48016421D01*
X141954286Y-48016421D01*
X141859048Y-47968802D01*
X141811429Y-47921183D01*
X143287620Y-47349754D02*
X143287620Y-48016421D01*
X143049524Y-46968802D02*
X142811429Y-47683088D01*
X143430477Y-47683088D01*
X154765477Y-47016421D02*
X154765477Y-47730707D01*
X154717857Y-47873564D01*
X154622619Y-47968802D01*
X154479762Y-48016421D01*
X154384524Y-48016421D01*
X155146429Y-47016421D02*
X155765477Y-47016421D01*
X155432143Y-47397373D01*
X155575001Y-47397373D01*
X155670239Y-47444992D01*
X155717858Y-47492611D01*
X155765477Y-47587850D01*
X155765477Y-47825945D01*
X155717858Y-47921183D01*
X155670239Y-47968802D01*
X155575001Y-48016421D01*
X155289286Y-48016421D01*
X155194048Y-47968802D01*
X155146429Y-47921183D01*
X156670239Y-47016421D02*
X156194048Y-47016421D01*
X156146429Y-47492611D01*
X156194048Y-47444992D01*
X156289286Y-47397373D01*
X156527382Y-47397373D01*
X156622620Y-47444992D01*
X156670239Y-47492611D01*
X156717858Y-47587850D01*
X156717858Y-47825945D01*
X156670239Y-47921183D01*
X156622620Y-47968802D01*
X156527382Y-48016421D01*
X156289286Y-48016421D01*
X156194048Y-47968802D01*
X156146429Y-47921183D01*
X168100477Y-47016421D02*
X168100477Y-47730707D01*
X168052857Y-47873564D01*
X167957619Y-47968802D01*
X167814762Y-48016421D01*
X167719524Y-48016421D01*
X168481429Y-47016421D02*
X169100477Y-47016421D01*
X168767143Y-47397373D01*
X168910001Y-47397373D01*
X169005239Y-47444992D01*
X169052858Y-47492611D01*
X169100477Y-47587850D01*
X169100477Y-47825945D01*
X169052858Y-47921183D01*
X169005239Y-47968802D01*
X168910001Y-48016421D01*
X168624286Y-48016421D01*
X168529048Y-47968802D01*
X168481429Y-47921183D01*
X169957620Y-47016421D02*
X169767143Y-47016421D01*
X169671905Y-47064040D01*
X169624286Y-47111659D01*
X169529048Y-47254516D01*
X169481429Y-47444992D01*
X169481429Y-47825945D01*
X169529048Y-47921183D01*
X169576667Y-47968802D01*
X169671905Y-48016421D01*
X169862382Y-48016421D01*
X169957620Y-47968802D01*
X170005239Y-47921183D01*
X170052858Y-47825945D01*
X170052858Y-47587850D01*
X170005239Y-47492611D01*
X169957620Y-47444992D01*
X169862382Y-47397373D01*
X169671905Y-47397373D01*
X169576667Y-47444992D01*
X169529048Y-47492611D01*
X169481429Y-47587850D01*
X181435477Y-47016421D02*
X181435477Y-47730707D01*
X181387857Y-47873564D01*
X181292619Y-47968802D01*
X181149762Y-48016421D01*
X181054524Y-48016421D01*
X181816429Y-47016421D02*
X182435477Y-47016421D01*
X182102143Y-47397373D01*
X182245001Y-47397373D01*
X182340239Y-47444992D01*
X182387858Y-47492611D01*
X182435477Y-47587850D01*
X182435477Y-47825945D01*
X182387858Y-47921183D01*
X182340239Y-47968802D01*
X182245001Y-48016421D01*
X181959286Y-48016421D01*
X181864048Y-47968802D01*
X181816429Y-47921183D01*
X182768810Y-47016421D02*
X183435477Y-47016421D01*
X183006905Y-48016421D01*
X208105477Y-47016421D02*
X208105477Y-47730707D01*
X208057857Y-47873564D01*
X207962619Y-47968802D01*
X207819762Y-48016421D01*
X207724524Y-48016421D01*
X208486429Y-47016421D02*
X209105477Y-47016421D01*
X208772143Y-47397373D01*
X208915001Y-47397373D01*
X209010239Y-47444992D01*
X209057858Y-47492611D01*
X209105477Y-47587850D01*
X209105477Y-47825945D01*
X209057858Y-47921183D01*
X209010239Y-47968802D01*
X208915001Y-48016421D01*
X208629286Y-48016421D01*
X208534048Y-47968802D01*
X208486429Y-47921183D01*
X209676905Y-47444992D02*
X209581667Y-47397373D01*
X209534048Y-47349754D01*
X209486429Y-47254516D01*
X209486429Y-47206897D01*
X209534048Y-47111659D01*
X209581667Y-47064040D01*
X209676905Y-47016421D01*
X209867382Y-47016421D01*
X209962620Y-47064040D01*
X210010239Y-47111659D01*
X210057858Y-47206897D01*
X210057858Y-47254516D01*
X210010239Y-47349754D01*
X209962620Y-47397373D01*
X209867382Y-47444992D01*
X209676905Y-47444992D01*
X209581667Y-47492611D01*
X209534048Y-47540230D01*
X209486429Y-47635469D01*
X209486429Y-47825945D01*
X209534048Y-47921183D01*
X209581667Y-47968802D01*
X209676905Y-48016421D01*
X209867382Y-48016421D01*
X209962620Y-47968802D01*
X210010239Y-47921183D01*
X210057858Y-47825945D01*
X210057858Y-47635469D01*
X210010239Y-47540230D01*
X209962620Y-47492611D01*
X209867382Y-47444992D01*
X194770477Y-47016421D02*
X194770477Y-47730707D01*
X194722857Y-47873564D01*
X194627619Y-47968802D01*
X194484762Y-48016421D01*
X194389524Y-48016421D01*
X195151429Y-47016421D02*
X195770477Y-47016421D01*
X195437143Y-47397373D01*
X195580001Y-47397373D01*
X195675239Y-47444992D01*
X195722858Y-47492611D01*
X195770477Y-47587850D01*
X195770477Y-47825945D01*
X195722858Y-47921183D01*
X195675239Y-47968802D01*
X195580001Y-48016421D01*
X195294286Y-48016421D01*
X195199048Y-47968802D01*
X195151429Y-47921183D01*
X196246667Y-48016421D02*
X196437143Y-48016421D01*
X196532382Y-47968802D01*
X196580001Y-47921183D01*
X196675239Y-47778326D01*
X196722858Y-47587850D01*
X196722858Y-47206897D01*
X196675239Y-47111659D01*
X196627620Y-47064040D01*
X196532382Y-47016421D01*
X196341905Y-47016421D01*
X196246667Y-47064040D01*
X196199048Y-47111659D01*
X196151429Y-47206897D01*
X196151429Y-47444992D01*
X196199048Y-47540230D01*
X196246667Y-47587850D01*
X196341905Y-47635469D01*
X196532382Y-47635469D01*
X196627620Y-47587850D01*
X196675239Y-47540230D01*
X196722858Y-47444992D01*
X146117381Y-70024523D02*
X146831667Y-70024523D01*
X146974524Y-70072143D01*
X147069762Y-70167381D01*
X147117381Y-70310238D01*
X147117381Y-70405476D01*
X146450714Y-69119761D02*
X147117381Y-69119761D01*
X146069762Y-69357857D02*
X146784048Y-69595952D01*
X146784048Y-68976904D01*
X146117381Y-68405476D02*
X146117381Y-68310237D01*
X146165000Y-68214999D01*
X146212619Y-68167380D01*
X146307857Y-68119761D01*
X146498333Y-68072142D01*
X146736429Y-68072142D01*
X146926905Y-68119761D01*
X147022143Y-68167380D01*
X147069762Y-68214999D01*
X147117381Y-68310237D01*
X147117381Y-68405476D01*
X147069762Y-68500714D01*
X147022143Y-68548333D01*
X146926905Y-68595952D01*
X146736429Y-68643571D01*
X146498333Y-68643571D01*
X146307857Y-68595952D01*
X146212619Y-68548333D01*
X146165000Y-68500714D01*
X146117381Y-68405476D01*
X193782381Y-71929523D02*
X194496667Y-71929523D01*
X194639524Y-71977143D01*
X194734762Y-72072381D01*
X194782381Y-72215238D01*
X194782381Y-72310476D01*
X194115714Y-71024761D02*
X194782381Y-71024761D01*
X193734762Y-71262857D02*
X194449048Y-71500952D01*
X194449048Y-70881904D01*
X194782381Y-69977142D02*
X194782381Y-70548571D01*
X194782381Y-70262857D02*
X193782381Y-70262857D01*
X193925238Y-70358095D01*
X194020476Y-70453333D01*
X194068095Y-70548571D01*
X193147381Y-97964523D02*
X193861667Y-97964523D01*
X194004524Y-98012143D01*
X194099762Y-98107381D01*
X194147381Y-98250238D01*
X194147381Y-98345476D01*
X193480714Y-97059761D02*
X194147381Y-97059761D01*
X193099762Y-97297857D02*
X193814048Y-97535952D01*
X193814048Y-96916904D01*
X193242619Y-96583571D02*
X193195000Y-96535952D01*
X193147381Y-96440714D01*
X193147381Y-96202618D01*
X193195000Y-96107380D01*
X193242619Y-96059761D01*
X193337857Y-96012142D01*
X193433095Y-96012142D01*
X193575952Y-96059761D01*
X194147381Y-96631190D01*
X194147381Y-96012142D01*
X57610477Y-135921501D02*
X57610477Y-136635787D01*
X57562857Y-136778644D01*
X57467619Y-136873882D01*
X57324762Y-136921501D01*
X57229524Y-136921501D01*
X58515239Y-136254834D02*
X58515239Y-136921501D01*
X58277143Y-135873882D02*
X58039048Y-136588168D01*
X58658096Y-136588168D01*
X58943810Y-135921501D02*
X59562858Y-135921501D01*
X59229524Y-136302453D01*
X59372382Y-136302453D01*
X59467620Y-136350072D01*
X59515239Y-136397691D01*
X59562858Y-136492930D01*
X59562858Y-136731025D01*
X59515239Y-136826263D01*
X59467620Y-136873882D01*
X59372382Y-136921501D01*
X59086667Y-136921501D01*
X58991429Y-136873882D01*
X58943810Y-136826263D01*
X67135477Y-135921501D02*
X67135477Y-136635787D01*
X67087857Y-136778644D01*
X66992619Y-136873882D01*
X66849762Y-136921501D01*
X66754524Y-136921501D01*
X68040239Y-136254834D02*
X68040239Y-136921501D01*
X67802143Y-135873882D02*
X67564048Y-136588168D01*
X68183096Y-136588168D01*
X68992620Y-136254834D02*
X68992620Y-136921501D01*
X68754524Y-135873882D02*
X68516429Y-136588168D01*
X69135477Y-136588168D01*
X86185477Y-135921501D02*
X86185477Y-136635787D01*
X86137857Y-136778644D01*
X86042619Y-136873882D01*
X85899762Y-136921501D01*
X85804524Y-136921501D01*
X87090239Y-136254834D02*
X87090239Y-136921501D01*
X86852143Y-135873882D02*
X86614048Y-136588168D01*
X87233096Y-136588168D01*
X88090239Y-135921501D02*
X87614048Y-135921501D01*
X87566429Y-136397691D01*
X87614048Y-136350072D01*
X87709286Y-136302453D01*
X87947382Y-136302453D01*
X88042620Y-136350072D01*
X88090239Y-136397691D01*
X88137858Y-136492930D01*
X88137858Y-136731025D01*
X88090239Y-136826263D01*
X88042620Y-136873882D01*
X87947382Y-136921501D01*
X87709286Y-136921501D01*
X87614048Y-136873882D01*
X87566429Y-136826263D01*
X76660477Y-135921501D02*
X76660477Y-136635787D01*
X76612857Y-136778644D01*
X76517619Y-136873882D01*
X76374762Y-136921501D01*
X76279524Y-136921501D01*
X77565239Y-136254834D02*
X77565239Y-136921501D01*
X77327143Y-135873882D02*
X77089048Y-136588168D01*
X77708096Y-136588168D01*
X78517620Y-135921501D02*
X78327143Y-135921501D01*
X78231905Y-135969120D01*
X78184286Y-136016739D01*
X78089048Y-136159596D01*
X78041429Y-136350072D01*
X78041429Y-136731025D01*
X78089048Y-136826263D01*
X78136667Y-136873882D01*
X78231905Y-136921501D01*
X78422382Y-136921501D01*
X78517620Y-136873882D01*
X78565239Y-136826263D01*
X78612858Y-136731025D01*
X78612858Y-136492930D01*
X78565239Y-136397691D01*
X78517620Y-136350072D01*
X78422382Y-136302453D01*
X78231905Y-136302453D01*
X78136667Y-136350072D01*
X78089048Y-136397691D01*
X78041429Y-136492930D01*
X67127381Y-103036666D02*
X67127381Y-103512857D01*
X66127381Y-103512857D01*
X67127381Y-102179523D02*
X67127381Y-102750952D01*
X67127381Y-102465238D02*
X66127381Y-102465238D01*
X66270238Y-102560476D01*
X66365476Y-102655714D01*
X66413095Y-102750952D01*
X46228261Y-102393571D02*
X45228261Y-102393571D01*
X45228261Y-102012618D01*
X45275880Y-101917380D01*
X45323499Y-101869761D01*
X45418737Y-101822142D01*
X45561594Y-101822142D01*
X45656832Y-101869761D01*
X45704451Y-101917380D01*
X45752070Y-102012618D01*
X45752070Y-102393571D01*
X46228261Y-101393571D02*
X45561594Y-101393571D01*
X45228261Y-101393571D02*
X45275880Y-101441190D01*
X45323499Y-101393571D01*
X45275880Y-101345952D01*
X45228261Y-101393571D01*
X45323499Y-101393571D01*
X45561594Y-100917381D02*
X46228261Y-100917381D01*
X45656832Y-100917381D02*
X45609213Y-100869762D01*
X45561594Y-100774524D01*
X45561594Y-100631666D01*
X45609213Y-100536428D01*
X45704451Y-100488809D01*
X46228261Y-100488809D01*
X46228261Y-99488809D02*
X46228261Y-100060238D01*
X46228261Y-99774524D02*
X45228261Y-99774524D01*
X45371118Y-99869762D01*
X45466356Y-99965000D01*
X45513975Y-100060238D01*
X45593261Y-144390714D02*
X44593261Y-144390714D01*
X44593261Y-144009761D01*
X44640880Y-143914523D01*
X44688499Y-143866904D01*
X44783737Y-143819285D01*
X44926594Y-143819285D01*
X45021832Y-143866904D01*
X45069451Y-143914523D01*
X45117070Y-144009761D01*
X45117070Y-144390714D01*
X45593261Y-143390714D02*
X44926594Y-143390714D01*
X44593261Y-143390714D02*
X44640880Y-143438333D01*
X44688499Y-143390714D01*
X44640880Y-143343095D01*
X44593261Y-143390714D01*
X44688499Y-143390714D01*
X44926594Y-142914524D02*
X45593261Y-142914524D01*
X45021832Y-142914524D02*
X44974213Y-142866905D01*
X44926594Y-142771667D01*
X44926594Y-142628809D01*
X44974213Y-142533571D01*
X45069451Y-142485952D01*
X45593261Y-142485952D01*
X45593261Y-141533571D02*
X45593261Y-142009762D01*
X44593261Y-142009762D01*
X45069451Y-141200238D02*
X45069451Y-140866904D01*
X45593261Y-140724047D02*
X45593261Y-141200238D01*
X44593261Y-141200238D01*
X44593261Y-140724047D01*
X45593261Y-140295476D02*
X44593261Y-140295476D01*
X44593261Y-140057381D01*
X44640880Y-139914523D01*
X44736118Y-139819285D01*
X44831356Y-139771666D01*
X45021832Y-139724047D01*
X45164690Y-139724047D01*
X45355166Y-139771666D01*
X45450404Y-139819285D01*
X45545642Y-139914523D01*
X45593261Y-140057381D01*
X45593261Y-140295476D01*
X45593261Y-138771666D02*
X45593261Y-139343095D01*
X45593261Y-139057381D02*
X44593261Y-139057381D01*
X44736118Y-139152619D01*
X44831356Y-139247857D01*
X44878975Y-139343095D01*
X46601429Y-136921501D02*
X46601429Y-135921501D01*
X46982382Y-135921501D01*
X47077620Y-135969120D01*
X47125239Y-136016739D01*
X47172858Y-136111977D01*
X47172858Y-136254834D01*
X47125239Y-136350072D01*
X47077620Y-136397691D01*
X46982382Y-136445310D01*
X46601429Y-136445310D01*
X47601429Y-136921501D02*
X47601429Y-136254834D01*
X47601429Y-135921501D02*
X47553810Y-135969120D01*
X47601429Y-136016739D01*
X47649048Y-135969120D01*
X47601429Y-135921501D01*
X47601429Y-136016739D01*
X48077619Y-136254834D02*
X48077619Y-136921501D01*
X48077619Y-136350072D02*
X48125238Y-136302453D01*
X48220476Y-136254834D01*
X48363334Y-136254834D01*
X48458572Y-136302453D01*
X48506191Y-136397691D01*
X48506191Y-136921501D01*
X49553810Y-136921501D02*
X49220476Y-136445310D01*
X48982381Y-136921501D02*
X48982381Y-135921501D01*
X49363334Y-135921501D01*
X49458572Y-135969120D01*
X49506191Y-136016739D01*
X49553810Y-136111977D01*
X49553810Y-136254834D01*
X49506191Y-136350072D01*
X49458572Y-136397691D01*
X49363334Y-136445310D01*
X48982381Y-136445310D01*
X50506191Y-135969120D02*
X50410953Y-135921501D01*
X50268096Y-135921501D01*
X50125238Y-135969120D01*
X50030000Y-136064358D01*
X49982381Y-136159596D01*
X49934762Y-136350072D01*
X49934762Y-136492930D01*
X49982381Y-136683406D01*
X50030000Y-136778644D01*
X50125238Y-136873882D01*
X50268096Y-136921501D01*
X50363334Y-136921501D01*
X50506191Y-136873882D01*
X50553810Y-136826263D01*
X50553810Y-136492930D01*
X50363334Y-136492930D01*
X51315715Y-136397691D02*
X51458572Y-136445310D01*
X51506191Y-136492930D01*
X51553810Y-136588168D01*
X51553810Y-136731025D01*
X51506191Y-136826263D01*
X51458572Y-136873882D01*
X51363334Y-136921501D01*
X50982381Y-136921501D01*
X50982381Y-135921501D01*
X51315715Y-135921501D01*
X51410953Y-135969120D01*
X51458572Y-136016739D01*
X51506191Y-136111977D01*
X51506191Y-136207215D01*
X51458572Y-136302453D01*
X51410953Y-136350072D01*
X51315715Y-136397691D01*
X50982381Y-136397691D01*
X52506191Y-136921501D02*
X51934762Y-136921501D01*
X52220476Y-136921501D02*
X52220476Y-135921501D01*
X52125238Y-136064358D01*
X52030000Y-136159596D01*
X51934762Y-136207215D01*
X46228261Y-110513572D02*
X45228261Y-110513572D01*
X45228261Y-110132619D01*
X45275880Y-110037381D01*
X45323499Y-109989762D01*
X45418737Y-109942143D01*
X45561594Y-109942143D01*
X45656832Y-109989762D01*
X45704451Y-110037381D01*
X45752070Y-110132619D01*
X45752070Y-110513572D01*
X46228261Y-109370715D02*
X46180642Y-109465953D01*
X46133023Y-109513572D01*
X46037785Y-109561191D01*
X45752070Y-109561191D01*
X45656832Y-109513572D01*
X45609213Y-109465953D01*
X45561594Y-109370715D01*
X45561594Y-109227857D01*
X45609213Y-109132619D01*
X45656832Y-109085000D01*
X45752070Y-109037381D01*
X46037785Y-109037381D01*
X46133023Y-109085000D01*
X46180642Y-109132619D01*
X46228261Y-109227857D01*
X46228261Y-109370715D01*
X45561594Y-108180238D02*
X46228261Y-108180238D01*
X45561594Y-108608810D02*
X46085404Y-108608810D01*
X46180642Y-108561191D01*
X46228261Y-108465953D01*
X46228261Y-108323095D01*
X46180642Y-108227857D01*
X46133023Y-108180238D01*
X45561594Y-107846905D02*
X45561594Y-107465953D01*
X45228261Y-107704048D02*
X46085404Y-107704048D01*
X46180642Y-107656429D01*
X46228261Y-107561191D01*
X46228261Y-107465953D01*
X45323499Y-107180238D02*
X45275880Y-107132619D01*
X45228261Y-107037381D01*
X45228261Y-106799285D01*
X45275880Y-106704047D01*
X45323499Y-106656428D01*
X45418737Y-106608809D01*
X45513975Y-106608809D01*
X45656832Y-106656428D01*
X46228261Y-107227857D01*
X46228261Y-106608809D01*
X84994762Y-37187619D02*
X84899524Y-37140000D01*
X84804286Y-37044762D01*
X84661429Y-36901905D01*
X84566190Y-36854286D01*
X84470952Y-36854286D01*
X84518571Y-37092381D02*
X84423333Y-37044762D01*
X84328095Y-36949524D01*
X84280476Y-36759048D01*
X84280476Y-36425714D01*
X84328095Y-36235238D01*
X84423333Y-36140000D01*
X84518571Y-36092381D01*
X84709048Y-36092381D01*
X84804286Y-36140000D01*
X84899524Y-36235238D01*
X84947143Y-36425714D01*
X84947143Y-36759048D01*
X84899524Y-36949524D01*
X84804286Y-37044762D01*
X84709048Y-37092381D01*
X84518571Y-37092381D01*
X85899524Y-37092381D02*
X85328095Y-37092381D01*
X85613809Y-37092381D02*
X85613809Y-36092381D01*
X85518571Y-36235238D01*
X85423333Y-36330476D01*
X85328095Y-36378095D01*
X85629762Y-122912619D02*
X85534524Y-122865000D01*
X85439286Y-122769762D01*
X85296429Y-122626905D01*
X85201190Y-122579286D01*
X85105952Y-122579286D01*
X85153571Y-122817381D02*
X85058333Y-122769762D01*
X84963095Y-122674524D01*
X84915476Y-122484048D01*
X84915476Y-122150714D01*
X84963095Y-121960238D01*
X85058333Y-121865000D01*
X85153571Y-121817381D01*
X85344048Y-121817381D01*
X85439286Y-121865000D01*
X85534524Y-121960238D01*
X85582143Y-122150714D01*
X85582143Y-122484048D01*
X85534524Y-122674524D01*
X85439286Y-122769762D01*
X85344048Y-122817381D01*
X85153571Y-122817381D01*
X85963095Y-121912619D02*
X86010714Y-121865000D01*
X86105952Y-121817381D01*
X86344048Y-121817381D01*
X86439286Y-121865000D01*
X86486905Y-121912619D01*
X86534524Y-122007857D01*
X86534524Y-122103095D01*
X86486905Y-122245952D01*
X85915476Y-122817381D01*
X86534524Y-122817381D01*
X49998334Y-42557381D02*
X49665000Y-42081190D01*
X49426905Y-42557381D02*
X49426905Y-41557381D01*
X49807858Y-41557381D01*
X49903096Y-41605000D01*
X49950715Y-41652619D01*
X49998334Y-41747857D01*
X49998334Y-41890714D01*
X49950715Y-41985952D01*
X49903096Y-42033571D01*
X49807858Y-42081190D01*
X49426905Y-42081190D01*
X50950715Y-42557381D02*
X50379286Y-42557381D01*
X50665000Y-42557381D02*
X50665000Y-41557381D01*
X50569762Y-41700238D01*
X50474524Y-41795476D01*
X50379286Y-41843095D01*
X76668334Y-42557381D02*
X76335000Y-42081190D01*
X76096905Y-42557381D02*
X76096905Y-41557381D01*
X76477858Y-41557381D01*
X76573096Y-41605000D01*
X76620715Y-41652619D01*
X76668334Y-41747857D01*
X76668334Y-41890714D01*
X76620715Y-41985952D01*
X76573096Y-42033571D01*
X76477858Y-42081190D01*
X76096905Y-42081190D01*
X77049286Y-41652619D02*
X77096905Y-41605000D01*
X77192143Y-41557381D01*
X77430239Y-41557381D01*
X77525477Y-41605000D01*
X77573096Y-41652619D01*
X77620715Y-41747857D01*
X77620715Y-41843095D01*
X77573096Y-41985952D01*
X77001667Y-42557381D01*
X77620715Y-42557381D01*
X87463334Y-44707381D02*
X87130000Y-44231190D01*
X86891905Y-44707381D02*
X86891905Y-43707381D01*
X87272858Y-43707381D01*
X87368096Y-43755000D01*
X87415715Y-43802619D01*
X87463334Y-43897857D01*
X87463334Y-44040714D01*
X87415715Y-44135952D01*
X87368096Y-44183571D01*
X87272858Y-44231190D01*
X86891905Y-44231190D01*
X87796667Y-43707381D02*
X88415715Y-43707381D01*
X88082381Y-44088333D01*
X88225239Y-44088333D01*
X88320477Y-44135952D01*
X88368096Y-44183571D01*
X88415715Y-44278810D01*
X88415715Y-44516905D01*
X88368096Y-44612143D01*
X88320477Y-44659762D01*
X88225239Y-44707381D01*
X87939524Y-44707381D01*
X87844286Y-44659762D01*
X87796667Y-44612143D01*
X123023334Y-60582381D02*
X122690000Y-60106190D01*
X122451905Y-60582381D02*
X122451905Y-59582381D01*
X122832858Y-59582381D01*
X122928096Y-59630000D01*
X122975715Y-59677619D01*
X123023334Y-59772857D01*
X123023334Y-59915714D01*
X122975715Y-60010952D01*
X122928096Y-60058571D01*
X122832858Y-60106190D01*
X122451905Y-60106190D01*
X123880477Y-59915714D02*
X123880477Y-60582381D01*
X123642381Y-59534762D02*
X123404286Y-60249048D01*
X124023334Y-60249048D01*
X122388334Y-96532381D02*
X122055000Y-96056190D01*
X121816905Y-96532381D02*
X121816905Y-95532381D01*
X122197858Y-95532381D01*
X122293096Y-95580000D01*
X122340715Y-95627619D01*
X122388334Y-95722857D01*
X122388334Y-95865714D01*
X122340715Y-95960952D01*
X122293096Y-96008571D01*
X122197858Y-96056190D01*
X121816905Y-96056190D01*
X123293096Y-95532381D02*
X122816905Y-95532381D01*
X122769286Y-96008571D01*
X122816905Y-95960952D01*
X122912143Y-95913333D01*
X123150239Y-95913333D01*
X123245477Y-95960952D01*
X123293096Y-96008571D01*
X123340715Y-96103810D01*
X123340715Y-96341905D01*
X123293096Y-96437143D01*
X123245477Y-96484762D01*
X123150239Y-96532381D01*
X122912143Y-96532381D01*
X122816905Y-96484762D01*
X122769286Y-96437143D01*
X86193334Y-133362381D02*
X85860000Y-132886190D01*
X85621905Y-133362381D02*
X85621905Y-132362381D01*
X86002858Y-132362381D01*
X86098096Y-132410000D01*
X86145715Y-132457619D01*
X86193334Y-132552857D01*
X86193334Y-132695714D01*
X86145715Y-132790952D01*
X86098096Y-132838571D01*
X86002858Y-132886190D01*
X85621905Y-132886190D01*
X87050477Y-132362381D02*
X86860000Y-132362381D01*
X86764762Y-132410000D01*
X86717143Y-132457619D01*
X86621905Y-132600476D01*
X86574286Y-132790952D01*
X86574286Y-133171905D01*
X86621905Y-133267143D01*
X86669524Y-133314762D01*
X86764762Y-133362381D01*
X86955239Y-133362381D01*
X87050477Y-133314762D01*
X87098096Y-133267143D01*
X87145715Y-133171905D01*
X87145715Y-132933810D01*
X87098096Y-132838571D01*
X87050477Y-132790952D01*
X86955239Y-132743333D01*
X86764762Y-132743333D01*
X86669524Y-132790952D01*
X86621905Y-132838571D01*
X86574286Y-132933810D01*
X85102381Y-66206666D02*
X84626190Y-66540000D01*
X85102381Y-66778095D02*
X84102381Y-66778095D01*
X84102381Y-66397142D01*
X84150000Y-66301904D01*
X84197619Y-66254285D01*
X84292857Y-66206666D01*
X84435714Y-66206666D01*
X84530952Y-66254285D01*
X84578571Y-66301904D01*
X84626190Y-66397142D01*
X84626190Y-66778095D01*
X84102381Y-65873333D02*
X84102381Y-65206666D01*
X85102381Y-65635238D01*
X67957381Y-74461666D02*
X67481190Y-74795000D01*
X67957381Y-75033095D02*
X66957381Y-75033095D01*
X66957381Y-74652142D01*
X67005000Y-74556904D01*
X67052619Y-74509285D01*
X67147857Y-74461666D01*
X67290714Y-74461666D01*
X67385952Y-74509285D01*
X67433571Y-74556904D01*
X67481190Y-74652142D01*
X67481190Y-75033095D01*
X67385952Y-73890238D02*
X67338333Y-73985476D01*
X67290714Y-74033095D01*
X67195476Y-74080714D01*
X67147857Y-74080714D01*
X67052619Y-74033095D01*
X67005000Y-73985476D01*
X66957381Y-73890238D01*
X66957381Y-73699761D01*
X67005000Y-73604523D01*
X67052619Y-73556904D01*
X67147857Y-73509285D01*
X67195476Y-73509285D01*
X67290714Y-73556904D01*
X67338333Y-73604523D01*
X67385952Y-73699761D01*
X67385952Y-73890238D01*
X67433571Y-73985476D01*
X67481190Y-74033095D01*
X67576429Y-74080714D01*
X67766905Y-74080714D01*
X67862143Y-74033095D01*
X67909762Y-73985476D01*
X67957381Y-73890238D01*
X67957381Y-73699761D01*
X67909762Y-73604523D01*
X67862143Y-73556904D01*
X67766905Y-73509285D01*
X67576429Y-73509285D01*
X67481190Y-73556904D01*
X67433571Y-73604523D01*
X67385952Y-73699761D01*
X80657381Y-66206666D02*
X80181190Y-66540000D01*
X80657381Y-66778095D02*
X79657381Y-66778095D01*
X79657381Y-66397142D01*
X79705000Y-66301904D01*
X79752619Y-66254285D01*
X79847857Y-66206666D01*
X79990714Y-66206666D01*
X80085952Y-66254285D01*
X80133571Y-66301904D01*
X80181190Y-66397142D01*
X80181190Y-66778095D01*
X80657381Y-65730476D02*
X80657381Y-65540000D01*
X80609762Y-65444761D01*
X80562143Y-65397142D01*
X80419286Y-65301904D01*
X80228810Y-65254285D01*
X79847857Y-65254285D01*
X79752619Y-65301904D01*
X79705000Y-65349523D01*
X79657381Y-65444761D01*
X79657381Y-65635238D01*
X79705000Y-65730476D01*
X79752619Y-65778095D01*
X79847857Y-65825714D01*
X80085952Y-65825714D01*
X80181190Y-65778095D01*
X80228810Y-65730476D01*
X80276429Y-65635238D01*
X80276429Y-65444761D01*
X80228810Y-65349523D01*
X80181190Y-65301904D01*
X80085952Y-65254285D01*
X67957381Y-70492857D02*
X67481190Y-70826191D01*
X67957381Y-71064286D02*
X66957381Y-71064286D01*
X66957381Y-70683333D01*
X67005000Y-70588095D01*
X67052619Y-70540476D01*
X67147857Y-70492857D01*
X67290714Y-70492857D01*
X67385952Y-70540476D01*
X67433571Y-70588095D01*
X67481190Y-70683333D01*
X67481190Y-71064286D01*
X67957381Y-69540476D02*
X67957381Y-70111905D01*
X67957381Y-69826191D02*
X66957381Y-69826191D01*
X67100238Y-69921429D01*
X67195476Y-70016667D01*
X67243095Y-70111905D01*
X66957381Y-68921429D02*
X66957381Y-68826190D01*
X67005000Y-68730952D01*
X67052619Y-68683333D01*
X67147857Y-68635714D01*
X67338333Y-68588095D01*
X67576429Y-68588095D01*
X67766905Y-68635714D01*
X67862143Y-68683333D01*
X67909762Y-68730952D01*
X67957381Y-68826190D01*
X67957381Y-68921429D01*
X67909762Y-69016667D01*
X67862143Y-69064286D01*
X67766905Y-69111905D01*
X67576429Y-69159524D01*
X67338333Y-69159524D01*
X67147857Y-69111905D01*
X67052619Y-69064286D01*
X67005000Y-69016667D01*
X66957381Y-68921429D01*
X123817143Y-48907381D02*
X123483809Y-48431190D01*
X123245714Y-48907381D02*
X123245714Y-47907381D01*
X123626667Y-47907381D01*
X123721905Y-47955000D01*
X123769524Y-48002619D01*
X123817143Y-48097857D01*
X123817143Y-48240714D01*
X123769524Y-48335952D01*
X123721905Y-48383571D01*
X123626667Y-48431190D01*
X123245714Y-48431190D01*
X124769524Y-48907381D02*
X124198095Y-48907381D01*
X124483809Y-48907381D02*
X124483809Y-47907381D01*
X124388571Y-48050238D01*
X124293333Y-48145476D01*
X124198095Y-48193095D01*
X125721905Y-48907381D02*
X125150476Y-48907381D01*
X125436190Y-48907381D02*
X125436190Y-47907381D01*
X125340952Y-48050238D01*
X125245714Y-48145476D01*
X125150476Y-48193095D01*
X119372143Y-48907381D02*
X119038809Y-48431190D01*
X118800714Y-48907381D02*
X118800714Y-47907381D01*
X119181667Y-47907381D01*
X119276905Y-47955000D01*
X119324524Y-48002619D01*
X119372143Y-48097857D01*
X119372143Y-48240714D01*
X119324524Y-48335952D01*
X119276905Y-48383571D01*
X119181667Y-48431190D01*
X118800714Y-48431190D01*
X120324524Y-48907381D02*
X119753095Y-48907381D01*
X120038809Y-48907381D02*
X120038809Y-47907381D01*
X119943571Y-48050238D01*
X119848333Y-48145476D01*
X119753095Y-48193095D01*
X120705476Y-48002619D02*
X120753095Y-47955000D01*
X120848333Y-47907381D01*
X121086429Y-47907381D01*
X121181667Y-47955000D01*
X121229286Y-48002619D01*
X121276905Y-48097857D01*
X121276905Y-48193095D01*
X121229286Y-48335952D01*
X120657857Y-48907381D01*
X121276905Y-48907381D01*
X136517143Y-48907381D02*
X136183809Y-48431190D01*
X135945714Y-48907381D02*
X135945714Y-47907381D01*
X136326667Y-47907381D01*
X136421905Y-47955000D01*
X136469524Y-48002619D01*
X136517143Y-48097857D01*
X136517143Y-48240714D01*
X136469524Y-48335952D01*
X136421905Y-48383571D01*
X136326667Y-48431190D01*
X135945714Y-48431190D01*
X137469524Y-48907381D02*
X136898095Y-48907381D01*
X137183809Y-48907381D02*
X137183809Y-47907381D01*
X137088571Y-48050238D01*
X136993333Y-48145476D01*
X136898095Y-48193095D01*
X137802857Y-47907381D02*
X138421905Y-47907381D01*
X138088571Y-48288333D01*
X138231429Y-48288333D01*
X138326667Y-48335952D01*
X138374286Y-48383571D01*
X138421905Y-48478810D01*
X138421905Y-48716905D01*
X138374286Y-48812143D01*
X138326667Y-48859762D01*
X138231429Y-48907381D01*
X137945714Y-48907381D01*
X137850476Y-48859762D01*
X137802857Y-48812143D01*
X132707143Y-48907381D02*
X132373809Y-48431190D01*
X132135714Y-48907381D02*
X132135714Y-47907381D01*
X132516667Y-47907381D01*
X132611905Y-47955000D01*
X132659524Y-48002619D01*
X132707143Y-48097857D01*
X132707143Y-48240714D01*
X132659524Y-48335952D01*
X132611905Y-48383571D01*
X132516667Y-48431190D01*
X132135714Y-48431190D01*
X133659524Y-48907381D02*
X133088095Y-48907381D01*
X133373809Y-48907381D02*
X133373809Y-47907381D01*
X133278571Y-48050238D01*
X133183333Y-48145476D01*
X133088095Y-48193095D01*
X134516667Y-48240714D02*
X134516667Y-48907381D01*
X134278571Y-47859762D02*
X134040476Y-48574048D01*
X134659524Y-48574048D01*
X150487143Y-48907381D02*
X150153809Y-48431190D01*
X149915714Y-48907381D02*
X149915714Y-47907381D01*
X150296667Y-47907381D01*
X150391905Y-47955000D01*
X150439524Y-48002619D01*
X150487143Y-48097857D01*
X150487143Y-48240714D01*
X150439524Y-48335952D01*
X150391905Y-48383571D01*
X150296667Y-48431190D01*
X149915714Y-48431190D01*
X151439524Y-48907381D02*
X150868095Y-48907381D01*
X151153809Y-48907381D02*
X151153809Y-47907381D01*
X151058571Y-48050238D01*
X150963333Y-48145476D01*
X150868095Y-48193095D01*
X152344286Y-47907381D02*
X151868095Y-47907381D01*
X151820476Y-48383571D01*
X151868095Y-48335952D01*
X151963333Y-48288333D01*
X152201429Y-48288333D01*
X152296667Y-48335952D01*
X152344286Y-48383571D01*
X152391905Y-48478810D01*
X152391905Y-48716905D01*
X152344286Y-48812143D01*
X152296667Y-48859762D01*
X152201429Y-48907381D01*
X151963333Y-48907381D01*
X151868095Y-48859762D01*
X151820476Y-48812143D01*
X146042143Y-48907381D02*
X145708809Y-48431190D01*
X145470714Y-48907381D02*
X145470714Y-47907381D01*
X145851667Y-47907381D01*
X145946905Y-47955000D01*
X145994524Y-48002619D01*
X146042143Y-48097857D01*
X146042143Y-48240714D01*
X145994524Y-48335952D01*
X145946905Y-48383571D01*
X145851667Y-48431190D01*
X145470714Y-48431190D01*
X146994524Y-48907381D02*
X146423095Y-48907381D01*
X146708809Y-48907381D02*
X146708809Y-47907381D01*
X146613571Y-48050238D01*
X146518333Y-48145476D01*
X146423095Y-48193095D01*
X147851667Y-47907381D02*
X147661190Y-47907381D01*
X147565952Y-47955000D01*
X147518333Y-48002619D01*
X147423095Y-48145476D01*
X147375476Y-48335952D01*
X147375476Y-48716905D01*
X147423095Y-48812143D01*
X147470714Y-48859762D01*
X147565952Y-48907381D01*
X147756429Y-48907381D01*
X147851667Y-48859762D01*
X147899286Y-48812143D01*
X147946905Y-48716905D01*
X147946905Y-48478810D01*
X147899286Y-48383571D01*
X147851667Y-48335952D01*
X147756429Y-48288333D01*
X147565952Y-48288333D01*
X147470714Y-48335952D01*
X147423095Y-48383571D01*
X147375476Y-48478810D01*
X163187143Y-48907381D02*
X162853809Y-48431190D01*
X162615714Y-48907381D02*
X162615714Y-47907381D01*
X162996667Y-47907381D01*
X163091905Y-47955000D01*
X163139524Y-48002619D01*
X163187143Y-48097857D01*
X163187143Y-48240714D01*
X163139524Y-48335952D01*
X163091905Y-48383571D01*
X162996667Y-48431190D01*
X162615714Y-48431190D01*
X164139524Y-48907381D02*
X163568095Y-48907381D01*
X163853809Y-48907381D02*
X163853809Y-47907381D01*
X163758571Y-48050238D01*
X163663333Y-48145476D01*
X163568095Y-48193095D01*
X164472857Y-47907381D02*
X165139524Y-47907381D01*
X164710952Y-48907381D01*
X159377143Y-48907381D02*
X159043809Y-48431190D01*
X158805714Y-48907381D02*
X158805714Y-47907381D01*
X159186667Y-47907381D01*
X159281905Y-47955000D01*
X159329524Y-48002619D01*
X159377143Y-48097857D01*
X159377143Y-48240714D01*
X159329524Y-48335952D01*
X159281905Y-48383571D01*
X159186667Y-48431190D01*
X158805714Y-48431190D01*
X160329524Y-48907381D02*
X159758095Y-48907381D01*
X160043809Y-48907381D02*
X160043809Y-47907381D01*
X159948571Y-48050238D01*
X159853333Y-48145476D01*
X159758095Y-48193095D01*
X160900952Y-48335952D02*
X160805714Y-48288333D01*
X160758095Y-48240714D01*
X160710476Y-48145476D01*
X160710476Y-48097857D01*
X160758095Y-48002619D01*
X160805714Y-47955000D01*
X160900952Y-47907381D01*
X161091429Y-47907381D01*
X161186667Y-47955000D01*
X161234286Y-48002619D01*
X161281905Y-48097857D01*
X161281905Y-48145476D01*
X161234286Y-48240714D01*
X161186667Y-48288333D01*
X161091429Y-48335952D01*
X160900952Y-48335952D01*
X160805714Y-48383571D01*
X160758095Y-48431190D01*
X160710476Y-48526429D01*
X160710476Y-48716905D01*
X160758095Y-48812143D01*
X160805714Y-48859762D01*
X160900952Y-48907381D01*
X161091429Y-48907381D01*
X161186667Y-48859762D01*
X161234286Y-48812143D01*
X161281905Y-48716905D01*
X161281905Y-48526429D01*
X161234286Y-48431190D01*
X161186667Y-48383571D01*
X161091429Y-48335952D01*
X176522143Y-48907381D02*
X176188809Y-48431190D01*
X175950714Y-48907381D02*
X175950714Y-47907381D01*
X176331667Y-47907381D01*
X176426905Y-47955000D01*
X176474524Y-48002619D01*
X176522143Y-48097857D01*
X176522143Y-48240714D01*
X176474524Y-48335952D01*
X176426905Y-48383571D01*
X176331667Y-48431190D01*
X175950714Y-48431190D01*
X177474524Y-48907381D02*
X176903095Y-48907381D01*
X177188809Y-48907381D02*
X177188809Y-47907381D01*
X177093571Y-48050238D01*
X176998333Y-48145476D01*
X176903095Y-48193095D01*
X177950714Y-48907381D02*
X178141190Y-48907381D01*
X178236429Y-48859762D01*
X178284048Y-48812143D01*
X178379286Y-48669286D01*
X178426905Y-48478810D01*
X178426905Y-48097857D01*
X178379286Y-48002619D01*
X178331667Y-47955000D01*
X178236429Y-47907381D01*
X178045952Y-47907381D01*
X177950714Y-47955000D01*
X177903095Y-48002619D01*
X177855476Y-48097857D01*
X177855476Y-48335952D01*
X177903095Y-48431190D01*
X177950714Y-48478810D01*
X178045952Y-48526429D01*
X178236429Y-48526429D01*
X178331667Y-48478810D01*
X178379286Y-48431190D01*
X178426905Y-48335952D01*
X172712143Y-48907381D02*
X172378809Y-48431190D01*
X172140714Y-48907381D02*
X172140714Y-47907381D01*
X172521667Y-47907381D01*
X172616905Y-47955000D01*
X172664524Y-48002619D01*
X172712143Y-48097857D01*
X172712143Y-48240714D01*
X172664524Y-48335952D01*
X172616905Y-48383571D01*
X172521667Y-48431190D01*
X172140714Y-48431190D01*
X173093095Y-48002619D02*
X173140714Y-47955000D01*
X173235952Y-47907381D01*
X173474048Y-47907381D01*
X173569286Y-47955000D01*
X173616905Y-48002619D01*
X173664524Y-48097857D01*
X173664524Y-48193095D01*
X173616905Y-48335952D01*
X173045476Y-48907381D01*
X173664524Y-48907381D01*
X174283571Y-47907381D02*
X174378810Y-47907381D01*
X174474048Y-47955000D01*
X174521667Y-48002619D01*
X174569286Y-48097857D01*
X174616905Y-48288333D01*
X174616905Y-48526429D01*
X174569286Y-48716905D01*
X174521667Y-48812143D01*
X174474048Y-48859762D01*
X174378810Y-48907381D01*
X174283571Y-48907381D01*
X174188333Y-48859762D01*
X174140714Y-48812143D01*
X174093095Y-48716905D01*
X174045476Y-48526429D01*
X174045476Y-48288333D01*
X174093095Y-48097857D01*
X174140714Y-48002619D01*
X174188333Y-47955000D01*
X174283571Y-47907381D01*
X119372143Y-50422381D02*
X119038809Y-49946190D01*
X118800714Y-50422381D02*
X118800714Y-49422381D01*
X119181667Y-49422381D01*
X119276905Y-49470000D01*
X119324524Y-49517619D01*
X119372143Y-49612857D01*
X119372143Y-49755714D01*
X119324524Y-49850952D01*
X119276905Y-49898571D01*
X119181667Y-49946190D01*
X118800714Y-49946190D01*
X119753095Y-49517619D02*
X119800714Y-49470000D01*
X119895952Y-49422381D01*
X120134048Y-49422381D01*
X120229286Y-49470000D01*
X120276905Y-49517619D01*
X120324524Y-49612857D01*
X120324524Y-49708095D01*
X120276905Y-49850952D01*
X119705476Y-50422381D01*
X120324524Y-50422381D01*
X121276905Y-50422381D02*
X120705476Y-50422381D01*
X120991190Y-50422381D02*
X120991190Y-49422381D01*
X120895952Y-49565238D01*
X120800714Y-49660476D01*
X120705476Y-49708095D01*
X132707143Y-50422381D02*
X132373809Y-49946190D01*
X132135714Y-50422381D02*
X132135714Y-49422381D01*
X132516667Y-49422381D01*
X132611905Y-49470000D01*
X132659524Y-49517619D01*
X132707143Y-49612857D01*
X132707143Y-49755714D01*
X132659524Y-49850952D01*
X132611905Y-49898571D01*
X132516667Y-49946190D01*
X132135714Y-49946190D01*
X133088095Y-49517619D02*
X133135714Y-49470000D01*
X133230952Y-49422381D01*
X133469048Y-49422381D01*
X133564286Y-49470000D01*
X133611905Y-49517619D01*
X133659524Y-49612857D01*
X133659524Y-49708095D01*
X133611905Y-49850952D01*
X133040476Y-50422381D01*
X133659524Y-50422381D01*
X134040476Y-49517619D02*
X134088095Y-49470000D01*
X134183333Y-49422381D01*
X134421429Y-49422381D01*
X134516667Y-49470000D01*
X134564286Y-49517619D01*
X134611905Y-49612857D01*
X134611905Y-49708095D01*
X134564286Y-49850952D01*
X133992857Y-50422381D01*
X134611905Y-50422381D01*
X147312143Y-50422381D02*
X146978809Y-49946190D01*
X146740714Y-50422381D02*
X146740714Y-49422381D01*
X147121667Y-49422381D01*
X147216905Y-49470000D01*
X147264524Y-49517619D01*
X147312143Y-49612857D01*
X147312143Y-49755714D01*
X147264524Y-49850952D01*
X147216905Y-49898571D01*
X147121667Y-49946190D01*
X146740714Y-49946190D01*
X147693095Y-49517619D02*
X147740714Y-49470000D01*
X147835952Y-49422381D01*
X148074048Y-49422381D01*
X148169286Y-49470000D01*
X148216905Y-49517619D01*
X148264524Y-49612857D01*
X148264524Y-49708095D01*
X148216905Y-49850952D01*
X147645476Y-50422381D01*
X148264524Y-50422381D01*
X148597857Y-49422381D02*
X149216905Y-49422381D01*
X148883571Y-49803333D01*
X149026429Y-49803333D01*
X149121667Y-49850952D01*
X149169286Y-49898571D01*
X149216905Y-49993810D01*
X149216905Y-50231905D01*
X149169286Y-50327143D01*
X149121667Y-50374762D01*
X149026429Y-50422381D01*
X148740714Y-50422381D01*
X148645476Y-50374762D01*
X148597857Y-50327143D01*
X160647143Y-50422381D02*
X160313809Y-49946190D01*
X160075714Y-50422381D02*
X160075714Y-49422381D01*
X160456667Y-49422381D01*
X160551905Y-49470000D01*
X160599524Y-49517619D01*
X160647143Y-49612857D01*
X160647143Y-49755714D01*
X160599524Y-49850952D01*
X160551905Y-49898571D01*
X160456667Y-49946190D01*
X160075714Y-49946190D01*
X161028095Y-49517619D02*
X161075714Y-49470000D01*
X161170952Y-49422381D01*
X161409048Y-49422381D01*
X161504286Y-49470000D01*
X161551905Y-49517619D01*
X161599524Y-49612857D01*
X161599524Y-49708095D01*
X161551905Y-49850952D01*
X160980476Y-50422381D01*
X161599524Y-50422381D01*
X162456667Y-49755714D02*
X162456667Y-50422381D01*
X162218571Y-49374762D02*
X161980476Y-50089048D01*
X162599524Y-50089048D01*
X173347143Y-50422381D02*
X173013809Y-49946190D01*
X172775714Y-50422381D02*
X172775714Y-49422381D01*
X173156667Y-49422381D01*
X173251905Y-49470000D01*
X173299524Y-49517619D01*
X173347143Y-49612857D01*
X173347143Y-49755714D01*
X173299524Y-49850952D01*
X173251905Y-49898571D01*
X173156667Y-49946190D01*
X172775714Y-49946190D01*
X173728095Y-49517619D02*
X173775714Y-49470000D01*
X173870952Y-49422381D01*
X174109048Y-49422381D01*
X174204286Y-49470000D01*
X174251905Y-49517619D01*
X174299524Y-49612857D01*
X174299524Y-49708095D01*
X174251905Y-49850952D01*
X173680476Y-50422381D01*
X174299524Y-50422381D01*
X175204286Y-49422381D02*
X174728095Y-49422381D01*
X174680476Y-49898571D01*
X174728095Y-49850952D01*
X174823333Y-49803333D01*
X175061429Y-49803333D01*
X175156667Y-49850952D01*
X175204286Y-49898571D01*
X175251905Y-49993810D01*
X175251905Y-50231905D01*
X175204286Y-50327143D01*
X175156667Y-50374762D01*
X175061429Y-50422381D01*
X174823333Y-50422381D01*
X174728095Y-50374762D01*
X174680476Y-50327143D01*
X203827143Y-49542381D02*
X203493809Y-49066190D01*
X203255714Y-49542381D02*
X203255714Y-48542381D01*
X203636667Y-48542381D01*
X203731905Y-48590000D01*
X203779524Y-48637619D01*
X203827143Y-48732857D01*
X203827143Y-48875714D01*
X203779524Y-48970952D01*
X203731905Y-49018571D01*
X203636667Y-49066190D01*
X203255714Y-49066190D01*
X204208095Y-48637619D02*
X204255714Y-48590000D01*
X204350952Y-48542381D01*
X204589048Y-48542381D01*
X204684286Y-48590000D01*
X204731905Y-48637619D01*
X204779524Y-48732857D01*
X204779524Y-48828095D01*
X204731905Y-48970952D01*
X204160476Y-49542381D01*
X204779524Y-49542381D01*
X205636667Y-48542381D02*
X205446190Y-48542381D01*
X205350952Y-48590000D01*
X205303333Y-48637619D01*
X205208095Y-48780476D01*
X205160476Y-48970952D01*
X205160476Y-49351905D01*
X205208095Y-49447143D01*
X205255714Y-49494762D01*
X205350952Y-49542381D01*
X205541429Y-49542381D01*
X205636667Y-49494762D01*
X205684286Y-49447143D01*
X205731905Y-49351905D01*
X205731905Y-49113810D01*
X205684286Y-49018571D01*
X205636667Y-48970952D01*
X205541429Y-48923333D01*
X205350952Y-48923333D01*
X205255714Y-48970952D01*
X205208095Y-49018571D01*
X205160476Y-49113810D01*
X199382143Y-49542381D02*
X199048809Y-49066190D01*
X198810714Y-49542381D02*
X198810714Y-48542381D01*
X199191667Y-48542381D01*
X199286905Y-48590000D01*
X199334524Y-48637619D01*
X199382143Y-48732857D01*
X199382143Y-48875714D01*
X199334524Y-48970952D01*
X199286905Y-49018571D01*
X199191667Y-49066190D01*
X198810714Y-49066190D01*
X199763095Y-48637619D02*
X199810714Y-48590000D01*
X199905952Y-48542381D01*
X200144048Y-48542381D01*
X200239286Y-48590000D01*
X200286905Y-48637619D01*
X200334524Y-48732857D01*
X200334524Y-48828095D01*
X200286905Y-48970952D01*
X199715476Y-49542381D01*
X200334524Y-49542381D01*
X200667857Y-48542381D02*
X201334524Y-48542381D01*
X200905952Y-49542381D01*
X189857143Y-48907381D02*
X189523809Y-48431190D01*
X189285714Y-48907381D02*
X189285714Y-47907381D01*
X189666667Y-47907381D01*
X189761905Y-47955000D01*
X189809524Y-48002619D01*
X189857143Y-48097857D01*
X189857143Y-48240714D01*
X189809524Y-48335952D01*
X189761905Y-48383571D01*
X189666667Y-48431190D01*
X189285714Y-48431190D01*
X190238095Y-48002619D02*
X190285714Y-47955000D01*
X190380952Y-47907381D01*
X190619048Y-47907381D01*
X190714286Y-47955000D01*
X190761905Y-48002619D01*
X190809524Y-48097857D01*
X190809524Y-48193095D01*
X190761905Y-48335952D01*
X190190476Y-48907381D01*
X190809524Y-48907381D01*
X191380952Y-48335952D02*
X191285714Y-48288333D01*
X191238095Y-48240714D01*
X191190476Y-48145476D01*
X191190476Y-48097857D01*
X191238095Y-48002619D01*
X191285714Y-47955000D01*
X191380952Y-47907381D01*
X191571429Y-47907381D01*
X191666667Y-47955000D01*
X191714286Y-48002619D01*
X191761905Y-48097857D01*
X191761905Y-48145476D01*
X191714286Y-48240714D01*
X191666667Y-48288333D01*
X191571429Y-48335952D01*
X191380952Y-48335952D01*
X191285714Y-48383571D01*
X191238095Y-48431190D01*
X191190476Y-48526429D01*
X191190476Y-48716905D01*
X191238095Y-48812143D01*
X191285714Y-48859762D01*
X191380952Y-48907381D01*
X191571429Y-48907381D01*
X191666667Y-48859762D01*
X191714286Y-48812143D01*
X191761905Y-48716905D01*
X191761905Y-48526429D01*
X191714286Y-48431190D01*
X191666667Y-48383571D01*
X191571429Y-48335952D01*
X186047143Y-48907381D02*
X185713809Y-48431190D01*
X185475714Y-48907381D02*
X185475714Y-47907381D01*
X185856667Y-47907381D01*
X185951905Y-47955000D01*
X185999524Y-48002619D01*
X186047143Y-48097857D01*
X186047143Y-48240714D01*
X185999524Y-48335952D01*
X185951905Y-48383571D01*
X185856667Y-48431190D01*
X185475714Y-48431190D01*
X186428095Y-48002619D02*
X186475714Y-47955000D01*
X186570952Y-47907381D01*
X186809048Y-47907381D01*
X186904286Y-47955000D01*
X186951905Y-48002619D01*
X186999524Y-48097857D01*
X186999524Y-48193095D01*
X186951905Y-48335952D01*
X186380476Y-48907381D01*
X186999524Y-48907381D01*
X187475714Y-48907381D02*
X187666190Y-48907381D01*
X187761429Y-48859762D01*
X187809048Y-48812143D01*
X187904286Y-48669286D01*
X187951905Y-48478810D01*
X187951905Y-48097857D01*
X187904286Y-48002619D01*
X187856667Y-47955000D01*
X187761429Y-47907381D01*
X187570952Y-47907381D01*
X187475714Y-47955000D01*
X187428095Y-48002619D01*
X187380476Y-48097857D01*
X187380476Y-48335952D01*
X187428095Y-48431190D01*
X187475714Y-48478810D01*
X187570952Y-48526429D01*
X187761429Y-48526429D01*
X187856667Y-48478810D01*
X187904286Y-48431190D01*
X187951905Y-48335952D01*
X212082143Y-50177381D02*
X211748809Y-49701190D01*
X211510714Y-50177381D02*
X211510714Y-49177381D01*
X211891667Y-49177381D01*
X211986905Y-49225000D01*
X212034524Y-49272619D01*
X212082143Y-49367857D01*
X212082143Y-49510714D01*
X212034524Y-49605952D01*
X211986905Y-49653571D01*
X211891667Y-49701190D01*
X211510714Y-49701190D01*
X212415476Y-49177381D02*
X213034524Y-49177381D01*
X212701190Y-49558333D01*
X212844048Y-49558333D01*
X212939286Y-49605952D01*
X212986905Y-49653571D01*
X213034524Y-49748810D01*
X213034524Y-49986905D01*
X212986905Y-50082143D01*
X212939286Y-50129762D01*
X212844048Y-50177381D01*
X212558333Y-50177381D01*
X212463095Y-50129762D01*
X212415476Y-50082143D01*
X213653571Y-49177381D02*
X213748810Y-49177381D01*
X213844048Y-49225000D01*
X213891667Y-49272619D01*
X213939286Y-49367857D01*
X213986905Y-49558333D01*
X213986905Y-49796429D01*
X213939286Y-49986905D01*
X213891667Y-50082143D01*
X213844048Y-50129762D01*
X213748810Y-50177381D01*
X213653571Y-50177381D01*
X213558333Y-50129762D01*
X213510714Y-50082143D01*
X213463095Y-49986905D01*
X213415476Y-49796429D01*
X213415476Y-49558333D01*
X213463095Y-49367857D01*
X213510714Y-49272619D01*
X213558333Y-49225000D01*
X213653571Y-49177381D01*
X186047143Y-53352381D02*
X185713809Y-52876190D01*
X185475714Y-53352381D02*
X185475714Y-52352381D01*
X185856667Y-52352381D01*
X185951905Y-52400000D01*
X185999524Y-52447619D01*
X186047143Y-52542857D01*
X186047143Y-52685714D01*
X185999524Y-52780952D01*
X185951905Y-52828571D01*
X185856667Y-52876190D01*
X185475714Y-52876190D01*
X186380476Y-52352381D02*
X186999524Y-52352381D01*
X186666190Y-52733333D01*
X186809048Y-52733333D01*
X186904286Y-52780952D01*
X186951905Y-52828571D01*
X186999524Y-52923810D01*
X186999524Y-53161905D01*
X186951905Y-53257143D01*
X186904286Y-53304762D01*
X186809048Y-53352381D01*
X186523333Y-53352381D01*
X186428095Y-53304762D01*
X186380476Y-53257143D01*
X187951905Y-53352381D02*
X187380476Y-53352381D01*
X187666190Y-53352381D02*
X187666190Y-52352381D01*
X187570952Y-52495238D01*
X187475714Y-52590476D01*
X187380476Y-52638095D01*
X201287143Y-54867381D02*
X200953809Y-54391190D01*
X200715714Y-54867381D02*
X200715714Y-53867381D01*
X201096667Y-53867381D01*
X201191905Y-53915000D01*
X201239524Y-53962619D01*
X201287143Y-54057857D01*
X201287143Y-54200714D01*
X201239524Y-54295952D01*
X201191905Y-54343571D01*
X201096667Y-54391190D01*
X200715714Y-54391190D01*
X201620476Y-53867381D02*
X202239524Y-53867381D01*
X201906190Y-54248333D01*
X202049048Y-54248333D01*
X202144286Y-54295952D01*
X202191905Y-54343571D01*
X202239524Y-54438810D01*
X202239524Y-54676905D01*
X202191905Y-54772143D01*
X202144286Y-54819762D01*
X202049048Y-54867381D01*
X201763333Y-54867381D01*
X201668095Y-54819762D01*
X201620476Y-54772143D01*
X202620476Y-53962619D02*
X202668095Y-53915000D01*
X202763333Y-53867381D01*
X203001429Y-53867381D01*
X203096667Y-53915000D01*
X203144286Y-53962619D01*
X203191905Y-54057857D01*
X203191905Y-54153095D01*
X203144286Y-54295952D01*
X202572857Y-54867381D01*
X203191905Y-54867381D01*
X185677381Y-58427857D02*
X185201190Y-58761191D01*
X185677381Y-58999286D02*
X184677381Y-58999286D01*
X184677381Y-58618333D01*
X184725000Y-58523095D01*
X184772619Y-58475476D01*
X184867857Y-58427857D01*
X185010714Y-58427857D01*
X185105952Y-58475476D01*
X185153571Y-58523095D01*
X185201190Y-58618333D01*
X185201190Y-58999286D01*
X184677381Y-58094524D02*
X184677381Y-57475476D01*
X185058333Y-57808810D01*
X185058333Y-57665952D01*
X185105952Y-57570714D01*
X185153571Y-57523095D01*
X185248810Y-57475476D01*
X185486905Y-57475476D01*
X185582143Y-57523095D01*
X185629762Y-57570714D01*
X185677381Y-57665952D01*
X185677381Y-57951667D01*
X185629762Y-58046905D01*
X185582143Y-58094524D01*
X184677381Y-57142143D02*
X184677381Y-56523095D01*
X185058333Y-56856429D01*
X185058333Y-56713571D01*
X185105952Y-56618333D01*
X185153571Y-56570714D01*
X185248810Y-56523095D01*
X185486905Y-56523095D01*
X185582143Y-56570714D01*
X185629762Y-56618333D01*
X185677381Y-56713571D01*
X185677381Y-56999286D01*
X185629762Y-57094524D01*
X185582143Y-57142143D01*
X130111667Y-55594762D02*
X130254524Y-55642381D01*
X130492620Y-55642381D01*
X130587858Y-55594762D01*
X130635477Y-55547143D01*
X130683096Y-55451905D01*
X130683096Y-55356667D01*
X130635477Y-55261429D01*
X130587858Y-55213810D01*
X130492620Y-55166190D01*
X130302143Y-55118571D01*
X130206905Y-55070952D01*
X130159286Y-55023333D01*
X130111667Y-54928095D01*
X130111667Y-54832857D01*
X130159286Y-54737619D01*
X130206905Y-54690000D01*
X130302143Y-54642381D01*
X130540239Y-54642381D01*
X130683096Y-54690000D01*
X131016429Y-54642381D02*
X131254524Y-55642381D01*
X131445001Y-54928095D01*
X131635477Y-55642381D01*
X131873572Y-54642381D01*
X132778334Y-55642381D02*
X132206905Y-55642381D01*
X132492619Y-55642381D02*
X132492619Y-54642381D01*
X132397381Y-54785238D01*
X132302143Y-54880476D01*
X132206905Y-54928095D01*
X71628095Y-94377381D02*
X71628095Y-95186905D01*
X71675714Y-95282143D01*
X71723333Y-95329762D01*
X71818571Y-95377381D01*
X72009048Y-95377381D01*
X72104286Y-95329762D01*
X72151905Y-95282143D01*
X72199524Y-95186905D01*
X72199524Y-94377381D01*
X73199524Y-95377381D02*
X72628095Y-95377381D01*
X72913809Y-95377381D02*
X72913809Y-94377381D01*
X72818571Y-94520238D01*
X72723333Y-94615476D01*
X72628095Y-94663095D01*
X78137381Y-89661905D02*
X78946905Y-89661905D01*
X79042143Y-89614286D01*
X79089762Y-89566667D01*
X79137381Y-89471429D01*
X79137381Y-89280952D01*
X79089762Y-89185714D01*
X79042143Y-89138095D01*
X78946905Y-89090476D01*
X78137381Y-89090476D01*
X78232619Y-88661905D02*
X78185000Y-88614286D01*
X78137381Y-88519048D01*
X78137381Y-88280952D01*
X78185000Y-88185714D01*
X78232619Y-88138095D01*
X78327857Y-88090476D01*
X78423095Y-88090476D01*
X78565952Y-88138095D01*
X79137381Y-88709524D01*
X79137381Y-88090476D01*
X72263095Y-69402381D02*
X72263095Y-70211905D01*
X72310714Y-70307143D01*
X72358333Y-70354762D01*
X72453571Y-70402381D01*
X72644048Y-70402381D01*
X72739286Y-70354762D01*
X72786905Y-70307143D01*
X72834524Y-70211905D01*
X72834524Y-69402381D01*
X73739286Y-69735714D02*
X73739286Y-70402381D01*
X73501190Y-69354762D02*
X73263095Y-70069048D01*
X73882143Y-70069048D01*
X216127381Y-52196905D02*
X216936905Y-52196905D01*
X217032143Y-52149286D01*
X217079762Y-52101667D01*
X217127381Y-52006429D01*
X217127381Y-51815952D01*
X217079762Y-51720714D01*
X217032143Y-51673095D01*
X216936905Y-51625476D01*
X216127381Y-51625476D01*
X216127381Y-50673095D02*
X216127381Y-51149286D01*
X216603571Y-51196905D01*
X216555952Y-51149286D01*
X216508333Y-51054048D01*
X216508333Y-50815952D01*
X216555952Y-50720714D01*
X216603571Y-50673095D01*
X216698810Y-50625476D01*
X216936905Y-50625476D01*
X217032143Y-50673095D01*
X217079762Y-50720714D01*
X217127381Y-50815952D01*
X217127381Y-51054048D01*
X217079762Y-51149286D01*
X217032143Y-51196905D01*
X201522381Y-52196905D02*
X202331905Y-52196905D01*
X202427143Y-52149286D01*
X202474762Y-52101667D01*
X202522381Y-52006429D01*
X202522381Y-51815952D01*
X202474762Y-51720714D01*
X202427143Y-51673095D01*
X202331905Y-51625476D01*
X201522381Y-51625476D01*
X201522381Y-50720714D02*
X201522381Y-50911191D01*
X201570000Y-51006429D01*
X201617619Y-51054048D01*
X201760476Y-51149286D01*
X201950952Y-51196905D01*
X202331905Y-51196905D01*
X202427143Y-51149286D01*
X202474762Y-51101667D01*
X202522381Y-51006429D01*
X202522381Y-50815952D01*
X202474762Y-50720714D01*
X202427143Y-50673095D01*
X202331905Y-50625476D01*
X202093810Y-50625476D01*
X201998571Y-50673095D01*
X201950952Y-50720714D01*
X201903333Y-50815952D01*
X201903333Y-51006429D01*
X201950952Y-51101667D01*
X201998571Y-51149286D01*
X202093810Y-51196905D01*
X126033020Y-94246189D02*
X126033020Y-94722380D01*
X125699687Y-93722380D02*
X126033020Y-94246189D01*
X126366354Y-93722380D01*
X127223497Y-94722380D02*
X126652068Y-94722380D01*
X126937782Y-94722380D02*
X126937782Y-93722380D01*
X126842544Y-93865237D01*
X126747306Y-93960475D01*
X126652068Y-94008094D01*
M02*
