G04 #@! TF.FileFunction,Paste,Top*
%FSLAX46Y46*%
G04 Gerber Fmt 4.6, Leading zero omitted, Abs format (unit mm)*
G04 Created by KiCad (PCBNEW 4.0.6) date 2017 August 14, Monday 10:36:18*
%MOMM*%
%LPD*%
G01*
G04 APERTURE LIST*
%ADD10C,0.100000*%
%ADD11R,1.500000X0.300000*%
%ADD12R,0.300000X1.500000*%
%ADD13R,1.250000X1.000000*%
%ADD14R,1.000000X1.250000*%
%ADD15R,1.600000X1.000000*%
%ADD16R,1.198880X1.198880*%
%ADD17R,1.000000X1.600000*%
%ADD18R,0.900000X1.700000*%
%ADD19R,2.400000X1.500000*%
%ADD20R,0.700000X1.300000*%
%ADD21R,1.300000X0.700000*%
%ADD22R,1.550000X1.300000*%
%ADD23R,1.100000X4.600000*%
%ADD24R,10.800000X9.400000*%
%ADD25R,3.800000X2.000000*%
%ADD26R,1.500000X2.000000*%
%ADD27R,1.750000X0.450000*%
%ADD28R,5.600700X2.100580*%
G04 APERTURE END LIST*
D10*
D11*
X122475000Y-75915000D03*
X122475000Y-76415000D03*
X122475000Y-76915000D03*
X122475000Y-77415000D03*
X122475000Y-77915000D03*
X122475000Y-78415000D03*
X122475000Y-78915000D03*
X122475000Y-79415000D03*
X122475000Y-79915000D03*
X122475000Y-80415000D03*
X122475000Y-80915000D03*
X122475000Y-81415000D03*
X122475000Y-81915000D03*
X122475000Y-82415000D03*
X122475000Y-82915000D03*
X122475000Y-83415000D03*
X122475000Y-83915000D03*
X122475000Y-84415000D03*
X122475000Y-84915000D03*
X122475000Y-85415000D03*
X122475000Y-85915000D03*
X122475000Y-86415000D03*
X122475000Y-86915000D03*
X122475000Y-87415000D03*
X122475000Y-87915000D03*
D12*
X124175000Y-89615000D03*
X124675000Y-89615000D03*
X125175000Y-89615000D03*
X125675000Y-89615000D03*
X126175000Y-89615000D03*
X126675000Y-89615000D03*
X127175000Y-89615000D03*
X127675000Y-89615000D03*
X128175000Y-89615000D03*
X128675000Y-89615000D03*
X129175000Y-89615000D03*
X129675000Y-89615000D03*
X130175000Y-89615000D03*
X130675000Y-89615000D03*
X131175000Y-89615000D03*
X131675000Y-89615000D03*
X132175000Y-89615000D03*
X132675000Y-89615000D03*
X133175000Y-89615000D03*
X133675000Y-89615000D03*
X134175000Y-89615000D03*
X134675000Y-89615000D03*
X135175000Y-89615000D03*
X135675000Y-89615000D03*
X136175000Y-89615000D03*
D11*
X137875000Y-87915000D03*
X137875000Y-87415000D03*
X137875000Y-86915000D03*
X137875000Y-86415000D03*
X137875000Y-85915000D03*
X137875000Y-85415000D03*
X137875000Y-84915000D03*
X137875000Y-84415000D03*
X137875000Y-83915000D03*
X137875000Y-83415000D03*
X137875000Y-82915000D03*
X137875000Y-82415000D03*
X137875000Y-81915000D03*
X137875000Y-81415000D03*
X137875000Y-80915000D03*
X137875000Y-80415000D03*
X137875000Y-79915000D03*
X137875000Y-79415000D03*
X137875000Y-78915000D03*
X137875000Y-78415000D03*
X137875000Y-77915000D03*
X137875000Y-77415000D03*
X137875000Y-76915000D03*
X137875000Y-76415000D03*
X137875000Y-75915000D03*
D12*
X136175000Y-74215000D03*
X135675000Y-74215000D03*
X135175000Y-74215000D03*
X134675000Y-74215000D03*
X134175000Y-74215000D03*
X133675000Y-74215000D03*
X133175000Y-74215000D03*
X132675000Y-74215000D03*
X132175000Y-74215000D03*
X131675000Y-74215000D03*
X131175000Y-74215000D03*
X130675000Y-74215000D03*
X130175000Y-74215000D03*
X129675000Y-74215000D03*
X129175000Y-74215000D03*
X128675000Y-74215000D03*
X128175000Y-74215000D03*
X127675000Y-74215000D03*
X127175000Y-74215000D03*
X126675000Y-74215000D03*
X126175000Y-74215000D03*
X125675000Y-74215000D03*
X125175000Y-74215000D03*
X124675000Y-74215000D03*
X124175000Y-74215000D03*
D13*
X89535000Y-92980000D03*
X89535000Y-94980000D03*
D14*
X122460000Y-105410000D03*
X124460000Y-105410000D03*
X131175000Y-104140000D03*
X129175000Y-104140000D03*
X124190000Y-57150000D03*
X122190000Y-57150000D03*
D13*
X125095000Y-68310000D03*
X125095000Y-66310000D03*
X136525000Y-68310000D03*
X136525000Y-66310000D03*
X132715000Y-68310000D03*
X132715000Y-66310000D03*
X128905000Y-68310000D03*
X128905000Y-66310000D03*
X81280000Y-78470000D03*
X81280000Y-76470000D03*
D14*
X59325000Y-74930000D03*
X61325000Y-74930000D03*
X59325000Y-71120000D03*
X61325000Y-71120000D03*
X70215000Y-66675000D03*
X68215000Y-66675000D03*
D13*
X129540000Y-51800000D03*
X129540000Y-49800000D03*
X142875000Y-49800000D03*
X142875000Y-51800000D03*
X156845000Y-49800000D03*
X156845000Y-51800000D03*
X169545000Y-49165000D03*
X169545000Y-51165000D03*
X182245000Y-49800000D03*
X182245000Y-51800000D03*
D14*
X200930000Y-66040000D03*
X202930000Y-66040000D03*
X183245000Y-59690000D03*
X181245000Y-59690000D03*
D15*
X55880000Y-105005000D03*
X55880000Y-102005000D03*
D16*
X118110000Y-93565980D03*
X118110000Y-95664020D03*
X87409020Y-73025000D03*
X85310980Y-73025000D03*
X82964020Y-73025000D03*
X80865980Y-73025000D03*
D17*
X122960000Y-52070000D03*
X125960000Y-52070000D03*
X136930000Y-52070000D03*
X139930000Y-52070000D03*
X151535000Y-52070000D03*
X154535000Y-52070000D03*
X164235000Y-52070000D03*
X167235000Y-52070000D03*
X176935000Y-52070000D03*
X179935000Y-52070000D03*
X200430000Y-61595000D03*
X203430000Y-61595000D03*
X183745000Y-55245000D03*
X180745000Y-55245000D03*
D18*
X61775000Y-78740000D03*
X58875000Y-78740000D03*
D19*
X62230000Y-100120000D03*
X62230000Y-105620000D03*
D20*
X51115000Y-40005000D03*
X49215000Y-40005000D03*
X77785000Y-40005000D03*
X75885000Y-40005000D03*
X86680000Y-46355000D03*
X88580000Y-46355000D03*
X122240000Y-62230000D03*
X124140000Y-62230000D03*
X123505000Y-93980000D03*
X121605000Y-93980000D03*
X87310000Y-130810000D03*
X85410000Y-130810000D03*
D21*
X82550000Y-65090000D03*
X82550000Y-66990000D03*
X65405000Y-73345000D03*
X65405000Y-75245000D03*
X78105000Y-65090000D03*
X78105000Y-66990000D03*
X65405000Y-68900000D03*
X65405000Y-70800000D03*
D20*
X125410000Y-46355000D03*
X123510000Y-46355000D03*
X120965000Y-46355000D03*
X119065000Y-46355000D03*
X138110000Y-46355000D03*
X136210000Y-46355000D03*
X134300000Y-46355000D03*
X132400000Y-46355000D03*
X152080000Y-46355000D03*
X150180000Y-46355000D03*
X147635000Y-46355000D03*
X145735000Y-46355000D03*
X164780000Y-46355000D03*
X162880000Y-46355000D03*
X160970000Y-46355000D03*
X159070000Y-46355000D03*
X178115000Y-46355000D03*
X176215000Y-46355000D03*
X174305000Y-46355000D03*
X172405000Y-46355000D03*
X119065000Y-52070000D03*
X120965000Y-52070000D03*
X132400000Y-52070000D03*
X134300000Y-52070000D03*
X147005000Y-52070000D03*
X148905000Y-52070000D03*
X160340000Y-52070000D03*
X162240000Y-52070000D03*
X173040000Y-52070000D03*
X174940000Y-52070000D03*
X205420000Y-46990000D03*
X203520000Y-46990000D03*
X200975000Y-46990000D03*
X199075000Y-46990000D03*
X191450000Y-46355000D03*
X189550000Y-46355000D03*
X187640000Y-46355000D03*
X185740000Y-46355000D03*
X213675000Y-47625000D03*
X211775000Y-47625000D03*
X187640000Y-50800000D03*
X185740000Y-50800000D03*
X200980000Y-56515000D03*
X202880000Y-56515000D03*
D21*
X187325000Y-58735000D03*
X187325000Y-56835000D03*
D22*
X127470000Y-57440000D03*
X135420000Y-57440000D03*
X127470000Y-61940000D03*
X135420000Y-61940000D03*
D23*
X75790000Y-98425000D03*
X74090000Y-98425000D03*
X70690000Y-98425000D03*
D24*
X72390000Y-89275000D03*
D23*
X72390000Y-98425000D03*
X68990000Y-98425000D03*
D25*
X83185000Y-85750000D03*
D26*
X83185000Y-92050000D03*
X85485000Y-92050000D03*
X80885000Y-92050000D03*
D27*
X69425000Y-71975000D03*
X69425000Y-72625000D03*
X69425000Y-73275000D03*
X69425000Y-73925000D03*
X69425000Y-74575000D03*
X69425000Y-75225000D03*
X69425000Y-75875000D03*
X69425000Y-76525000D03*
X69425000Y-77175000D03*
X69425000Y-77825000D03*
X69425000Y-78475000D03*
X69425000Y-79125000D03*
X69425000Y-79775000D03*
X69425000Y-80425000D03*
X76625000Y-80425000D03*
X76625000Y-79775000D03*
X76625000Y-79125000D03*
X76625000Y-78475000D03*
X76625000Y-77825000D03*
X76625000Y-77175000D03*
X76625000Y-76525000D03*
X76625000Y-75875000D03*
X76625000Y-75225000D03*
X76625000Y-74575000D03*
X76625000Y-73925000D03*
X76625000Y-73275000D03*
X76625000Y-72625000D03*
X76625000Y-71975000D03*
D28*
X121660351Y-99349999D03*
X131358071Y-99349999D03*
M02*
